%TF.GenerationSoftware,KiCad,Pcbnew,7.0.10*%
%TF.CreationDate,2025-02-13T15:15:04-06:00*%
%TF.ProjectId,IR2IP,49523249-502e-46b6-9963-61645f706362,rev?*%
%TF.SameCoordinates,PX55fe290PY8062360*%
%TF.FileFunction,Paste,Top*%
%TF.FilePolarity,Positive*%
%FSLAX46Y46*%
G04 Gerber Fmt 4.6, Leading zero omitted, Abs format (unit mm)*
G04 Created by KiCad (PCBNEW 7.0.10) date 2025-02-13 15:15:04*
%MOMM*%
%LPD*%
G01*
G04 APERTURE LIST*
G04 Aperture macros list*
%AMRoundRect*
0 Rectangle with rounded corners*
0 $1 Rounding radius*
0 $2 $3 $4 $5 $6 $7 $8 $9 X,Y pos of 4 corners*
0 Add a 4 corners polygon primitive as box body*
4,1,4,$2,$3,$4,$5,$6,$7,$8,$9,$2,$3,0*
0 Add four circle primitives for the rounded corners*
1,1,$1+$1,$2,$3*
1,1,$1+$1,$4,$5*
1,1,$1+$1,$6,$7*
1,1,$1+$1,$8,$9*
0 Add four rect primitives between the rounded corners*
20,1,$1+$1,$2,$3,$4,$5,0*
20,1,$1+$1,$4,$5,$6,$7,0*
20,1,$1+$1,$6,$7,$8,$9,0*
20,1,$1+$1,$8,$9,$2,$3,0*%
%AMFreePoly0*
4,1,53,0.315063,0.245106,0.330902,0.245106,0.343715,0.235796,0.358779,0.230902,0.368088,0.218088,0.380902,0.208779,0.385796,0.193715,0.395106,0.180902,0.395106,0.165062,0.400000,0.150000,0.400000,-0.150000,0.380902,-0.208779,0.330902,-0.245106,0.300000,-0.245106,0.300000,-0.430000,0.295106,-0.445062,0.295106,-0.460902,0.285796,-0.473715,0.280902,-0.488779,0.268088,-0.498088,
0.258779,-0.510902,0.243715,-0.515796,0.230902,-0.525106,0.215063,-0.525106,0.200000,-0.530000,-0.200000,-0.530000,-0.215063,-0.525106,-0.230902,-0.525106,-0.243715,-0.515796,-0.258779,-0.510902,-0.268088,-0.498088,-0.280902,-0.488779,-0.285796,-0.473715,-0.295106,-0.460902,-0.295106,-0.445062,-0.300000,-0.430000,-0.300000,-0.245106,-0.330902,-0.245106,-0.380902,-0.208779,-0.400000,-0.150000,
-0.400000,0.150000,-0.395106,0.165062,-0.395106,0.180902,-0.385796,0.193715,-0.380902,0.208779,-0.368088,0.218088,-0.358779,0.230902,-0.343715,0.235796,-0.330902,0.245106,-0.315063,0.245106,-0.300000,0.250000,0.300000,0.250000,0.315063,0.245106,0.315063,0.245106,$1*%
G04 Aperture macros list end*
%ADD10R,2.500000X1.700000*%
%ADD11RoundRect,0.218750X-0.256250X0.218750X-0.256250X-0.218750X0.256250X-0.218750X0.256250X0.218750X0*%
%ADD12RoundRect,0.218750X-0.218750X-0.256250X0.218750X-0.256250X0.218750X0.256250X-0.218750X0.256250X0*%
%ADD13RoundRect,0.218750X0.218750X0.256250X-0.218750X0.256250X-0.218750X-0.256250X0.218750X-0.256250X0*%
%ADD14RoundRect,0.243750X0.243750X0.456250X-0.243750X0.456250X-0.243750X-0.456250X0.243750X-0.456250X0*%
%ADD15RoundRect,0.218750X0.256250X-0.218750X0.256250X0.218750X-0.256250X0.218750X-0.256250X-0.218750X0*%
%ADD16RoundRect,0.243750X-0.456250X0.243750X-0.456250X-0.243750X0.456250X-0.243750X0.456250X0.243750X0*%
%ADD17R,1.700000X2.400000*%
%ADD18R,0.250000X1.300000*%
%ADD19R,1.300000X0.250000*%
%ADD20R,0.900000X1.200000*%
%ADD21RoundRect,0.243750X-0.243750X-0.456250X0.243750X-0.456250X0.243750X0.456250X-0.243750X0.456250X0*%
%ADD22RoundRect,0.250000X1.450000X-0.312500X1.450000X0.312500X-1.450000X0.312500X-1.450000X-0.312500X0*%
%ADD23RoundRect,0.250000X-0.375000X-1.075000X0.375000X-1.075000X0.375000X1.075000X-0.375000X1.075000X0*%
%ADD24R,1.200000X0.900000*%
%ADD25R,0.700000X0.600000*%
%ADD26R,0.600000X0.700000*%
%ADD27R,1.300000X0.600000*%
%ADD28R,0.400000X1.200000*%
%ADD29R,0.950000X0.900000*%
%ADD30RoundRect,0.250000X-0.625000X0.375000X-0.625000X-0.375000X0.625000X-0.375000X0.625000X0.375000X0*%
%ADD31RoundRect,0.250000X-1.075000X0.375000X-1.075000X-0.375000X1.075000X-0.375000X1.075000X0.375000X0*%
%ADD32R,2.200000X2.800000*%
%ADD33R,2.800000X2.800000*%
%ADD34R,2.600000X2.800000*%
%ADD35R,0.900000X0.800000*%
%ADD36R,0.800000X0.900000*%
%ADD37RoundRect,0.243750X0.456250X-0.243750X0.456250X0.243750X-0.456250X0.243750X-0.456250X-0.243750X0*%
%ADD38R,0.300000X1.550000*%
%ADD39R,1.550000X0.300000*%
%ADD40R,2.100000X1.700000*%
%ADD41R,1.800000X1.000000*%
%ADD42R,2.823300X1.248300*%
%ADD43FreePoly0,180.000000*%
%ADD44FreePoly0,0.000000*%
%ADD45RoundRect,0.250000X0.425000X1.425000X-0.425000X1.425000X-0.425000X-1.425000X0.425000X-1.425000X0*%
%ADD46R,1.220000X2.540000*%
%ADD47R,3.360000X4.860000*%
%ADD48R,1.390000X1.400000*%
%ADD49R,1.400000X1.200000*%
%ADD50R,1.400000X1.000000*%
%ADD51RoundRect,0.250000X1.025000X-0.787500X1.025000X0.787500X-1.025000X0.787500X-1.025000X-0.787500X0*%
%ADD52RoundRect,0.250000X0.287500X0.275000X-0.287500X0.275000X-0.287500X-0.275000X0.287500X-0.275000X0*%
%ADD53R,3.050000X2.750000*%
%ADD54R,2.200000X1.200000*%
%ADD55R,0.600000X1.300000*%
%TA.AperFunction,Profile*%
%ADD56C,0.150000*%
%TD*%
G04 APERTURE END LIST*
D10*
%TO.C,D1*%
X89830000Y63100000D03*
X85830000Y63100000D03*
%TD*%
D11*
%TO.C,R7*%
X49330000Y55907500D03*
X49330000Y54332500D03*
%TD*%
D12*
%TO.C,C13*%
X85064500Y8128000D03*
X86639500Y8128000D03*
%TD*%
D11*
%TO.C,C15*%
X78200000Y17375500D03*
X78200000Y15800500D03*
%TD*%
D13*
%TO.C,C16*%
X72987500Y27100000D03*
X71412500Y27100000D03*
%TD*%
%TO.C,C18*%
X76487500Y20300000D03*
X74912500Y20300000D03*
%TD*%
%TO.C,C20*%
X76487500Y23700000D03*
X74912500Y23700000D03*
%TD*%
%TO.C,C21*%
X76487500Y25400000D03*
X74912500Y25400000D03*
%TD*%
D14*
%TO.C,FB1*%
X76237500Y29200000D03*
X74362500Y29200000D03*
%TD*%
D13*
%TO.C,R15*%
X84887500Y15300000D03*
X83312500Y15300000D03*
%TD*%
D12*
%TO.C,C17*%
X88824500Y27400000D03*
X90399500Y27400000D03*
%TD*%
D13*
%TO.C,C12*%
X83083500Y8128000D03*
X81508500Y8128000D03*
%TD*%
D15*
%TO.C,C26*%
X85598000Y29438500D03*
X85598000Y31013500D03*
%TD*%
D11*
%TO.C,C27*%
X88900000Y31087500D03*
X88900000Y29512500D03*
%TD*%
D12*
%TO.C,C28*%
X78212500Y43300000D03*
X79787500Y43300000D03*
%TD*%
D16*
%TO.C,R21*%
X96100000Y34637500D03*
X96100000Y32762500D03*
%TD*%
%TO.C,R22*%
X92800000Y34599500D03*
X92800000Y32724500D03*
%TD*%
D17*
%TO.C,Y1*%
X82250000Y12400000D03*
X85950000Y12400000D03*
%TD*%
D13*
%TO.C,C25*%
X82321500Y29100000D03*
X80746500Y29100000D03*
%TD*%
%TO.C,R23*%
X79787500Y41000000D03*
X78212500Y41000000D03*
%TD*%
D15*
%TO.C,C19*%
X76000000Y33712500D03*
X76000000Y35287500D03*
%TD*%
D18*
%TO.C,U4*%
X86850000Y27150000D03*
X86350000Y27150000D03*
X85850000Y27150000D03*
X85350000Y27150000D03*
X84850000Y27150000D03*
X84350000Y27150000D03*
X83850000Y27150000D03*
X83350000Y27150000D03*
X82850000Y27150000D03*
X82350000Y27150000D03*
X81850000Y27150000D03*
X81350000Y27150000D03*
D19*
X79750000Y25550000D03*
X79750000Y25050000D03*
X79750000Y24550000D03*
X79750000Y24050000D03*
X79750000Y23550000D03*
X79750000Y23050000D03*
X79750000Y22550000D03*
X79750000Y22050000D03*
X79750000Y21550000D03*
X79750000Y21050000D03*
X79750000Y20550000D03*
X79750000Y20050000D03*
D18*
X81350000Y18450000D03*
X81850000Y18450000D03*
X82350000Y18450000D03*
X82850000Y18450000D03*
X83350000Y18450000D03*
X83850000Y18450000D03*
X84350000Y18450000D03*
X84850000Y18450000D03*
X85350000Y18450000D03*
X85850000Y18450000D03*
X86350000Y18450000D03*
X86850000Y18450000D03*
D19*
X88450000Y20050000D03*
X88450000Y20550000D03*
X88450000Y21050000D03*
X88450000Y21550000D03*
X88450000Y22050000D03*
X88450000Y22550000D03*
X88450000Y23050000D03*
X88450000Y23550000D03*
X88450000Y24050000D03*
X88450000Y24550000D03*
X88450000Y25050000D03*
X88450000Y25550000D03*
%TD*%
D13*
%TO.C,R18*%
X89287500Y34600000D03*
X87712500Y34600000D03*
%TD*%
%TO.C,R19*%
X79087500Y31600000D03*
X77512500Y31600000D03*
%TD*%
D11*
%TO.C,C24*%
X81000000Y35387500D03*
X81000000Y33812500D03*
%TD*%
D12*
%TO.C,R20*%
X83912500Y34600000D03*
X85487500Y34600000D03*
%TD*%
%TO.C,R17*%
X81012500Y31600000D03*
X82587500Y31600000D03*
%TD*%
D11*
%TO.C,C23*%
X79100000Y35387500D03*
X79100000Y33812500D03*
%TD*%
D13*
%TO.C,C14*%
X76487500Y22000000D03*
X74912500Y22000000D03*
%TD*%
%TO.C,R16*%
X79887500Y27500000D03*
X78312500Y27500000D03*
%TD*%
D12*
%TO.C,C22*%
X78212500Y38800000D03*
X79787500Y38800000D03*
%TD*%
D20*
%TO.C,D2*%
X49750000Y66400000D03*
X46450000Y66400000D03*
%TD*%
D21*
%TO.C,C1*%
X85462500Y57600000D03*
X87337500Y57600000D03*
%TD*%
D22*
%TO.C,C2*%
X81830000Y62232500D03*
X81830000Y66507500D03*
%TD*%
D11*
%TO.C,C4*%
X51110000Y56050000D03*
X51110000Y54475000D03*
%TD*%
D21*
%TO.C,C5*%
X53650500Y53510000D03*
X55525500Y53510000D03*
%TD*%
D11*
%TO.C,C6*%
X72080000Y55157500D03*
X72080000Y53582500D03*
%TD*%
%TO.C,C8*%
X54650000Y46885000D03*
X54650000Y45310000D03*
%TD*%
D13*
%TO.C,C9*%
X72367500Y36120000D03*
X70792500Y36120000D03*
%TD*%
D23*
%TO.C,C10*%
X44300000Y42000000D03*
X47100000Y42000000D03*
%TD*%
D24*
%TO.C,D3*%
X38580000Y55770000D03*
X38580000Y52470000D03*
%TD*%
D25*
%TO.C,D4*%
X45330000Y60920000D03*
X45330000Y62320000D03*
%TD*%
%TO.C,D5*%
X46330000Y54170000D03*
X46330000Y55570000D03*
%TD*%
D26*
%TO.C,D6*%
X54220000Y56050000D03*
X55620000Y56050000D03*
%TD*%
D27*
%TO.C,Q1*%
X42040000Y66300000D03*
X42040000Y64400000D03*
X44140000Y65350000D03*
%TD*%
D11*
%TO.C,R1*%
X45330000Y59157500D03*
X45330000Y57582500D03*
%TD*%
D15*
%TO.C,R2*%
X39830000Y64582500D03*
X39830000Y66157500D03*
%TD*%
%TO.C,R3*%
X54920000Y60342500D03*
X54920000Y61917500D03*
%TD*%
D11*
%TO.C,R4*%
X42330000Y60907500D03*
X42330000Y59332500D03*
%TD*%
D15*
%TO.C,R5*%
X59330000Y62332500D03*
X59330000Y63907500D03*
%TD*%
D11*
%TO.C,R6*%
X57460000Y65727500D03*
X57460000Y64152500D03*
%TD*%
D15*
%TO.C,R13*%
X54650000Y41195000D03*
X54650000Y42770000D03*
%TD*%
D12*
%TO.C,R14*%
X51912500Y39100000D03*
X53487500Y39100000D03*
%TD*%
D28*
%TO.C,U1*%
X47617500Y58530000D03*
X48252500Y58530000D03*
X48887500Y58530000D03*
X49522500Y58530000D03*
X50157500Y58530000D03*
X50792500Y58530000D03*
X51427500Y58530000D03*
X52062500Y58530000D03*
X52062500Y63730000D03*
X51427500Y63730000D03*
X50792500Y63730000D03*
X50157500Y63730000D03*
X49522500Y63730000D03*
X48887500Y63730000D03*
X48252500Y63730000D03*
X47617500Y63730000D03*
%TD*%
D29*
%TO.C,Z1*%
X38580000Y57645000D03*
X38580000Y62595000D03*
%TD*%
D27*
%TO.C,Q2*%
X41030000Y55820000D03*
X41030000Y53920000D03*
X43130000Y54870000D03*
%TD*%
D30*
%TO.C,R9*%
X73330000Y66020000D03*
X73330000Y63220000D03*
%TD*%
D12*
%TO.C,C29*%
X69062500Y17018000D03*
X70637500Y17018000D03*
%TD*%
D15*
%TO.C,C32*%
X48600000Y31712500D03*
X48600000Y33287500D03*
%TD*%
D13*
%TO.C,C34*%
X29467500Y24220000D03*
X27892500Y24220000D03*
%TD*%
D12*
%TO.C,C37*%
X38812500Y32100000D03*
X40387500Y32100000D03*
%TD*%
%TO.C,C39*%
X56870500Y16002000D03*
X58445500Y16002000D03*
%TD*%
D13*
%TO.C,C40*%
X36687500Y35100000D03*
X35112500Y35100000D03*
%TD*%
D11*
%TO.C,C43*%
X48500000Y4387500D03*
X48500000Y2812500D03*
%TD*%
%TO.C,C44*%
X42800000Y33287500D03*
X42800000Y31712500D03*
%TD*%
D13*
%TO.C,C46*%
X29489500Y16510000D03*
X27914500Y16510000D03*
%TD*%
D11*
%TO.C,C47*%
X51300000Y4387500D03*
X51300000Y2812500D03*
%TD*%
D12*
%TO.C,C48*%
X56812500Y17600000D03*
X58387500Y17600000D03*
%TD*%
D13*
%TO.C,C49*%
X23167500Y16020000D03*
X21592500Y16020000D03*
%TD*%
D12*
%TO.C,C50*%
X35112500Y32100000D03*
X36687500Y32100000D03*
%TD*%
D13*
%TO.C,C52*%
X26187500Y20320000D03*
X24612500Y20320000D03*
%TD*%
%TO.C,C53*%
X26187500Y22098000D03*
X24612500Y22098000D03*
%TD*%
D31*
%TO.C,C54*%
X17780000Y54740000D03*
X17780000Y51940000D03*
%TD*%
%TO.C,C55*%
X17780000Y36960000D03*
X17780000Y34160000D03*
%TD*%
%TO.C,C56*%
X17780000Y19180000D03*
X17780000Y16380000D03*
%TD*%
D14*
%TO.C,FB2*%
X40637500Y35400000D03*
X38762500Y35400000D03*
%TD*%
D32*
%TO.C,J3*%
X2400000Y58300000D03*
D33*
X11800000Y58300000D03*
D32*
X4400000Y65700000D03*
D34*
X15800000Y62750000D03*
%TD*%
D32*
%TO.C,J4*%
X2400000Y40300000D03*
D33*
X11800000Y40300000D03*
D32*
X4400000Y47700000D03*
D34*
X15800000Y44750000D03*
%TD*%
D32*
%TO.C,J5*%
X2400000Y22300000D03*
D33*
X11800000Y22300000D03*
D32*
X4400000Y29700000D03*
D34*
X15800000Y26750000D03*
%TD*%
D32*
%TO.C,J6*%
X2400000Y4300000D03*
D33*
X11800000Y4300000D03*
D32*
X4400000Y11700000D03*
D34*
X15800000Y8750000D03*
%TD*%
D35*
%TO.C,Q4*%
X60220000Y20824000D03*
X60220000Y22724000D03*
X58220000Y21774000D03*
%TD*%
D36*
%TO.C,Q8*%
X2850000Y52340000D03*
X4750000Y52340000D03*
X3800000Y54340000D03*
%TD*%
%TO.C,Q9*%
X2800000Y34560000D03*
X4700000Y34560000D03*
X3750000Y36560000D03*
%TD*%
%TO.C,Q10*%
X2860000Y16780000D03*
X4760000Y16780000D03*
X3810000Y18780000D03*
%TD*%
D12*
%TO.C,R24*%
X21564500Y19050000D03*
X23139500Y19050000D03*
%TD*%
D13*
%TO.C,R26*%
X23887500Y30800000D03*
X22312500Y30800000D03*
%TD*%
%TO.C,R27*%
X23887500Y27700000D03*
X22312500Y27700000D03*
%TD*%
D15*
%TO.C,R28*%
X66802000Y15468500D03*
X66802000Y17043500D03*
%TD*%
D11*
%TO.C,R29*%
X74000000Y17087500D03*
X74000000Y15512500D03*
%TD*%
%TO.C,R30*%
X63800000Y17075500D03*
X63800000Y15500500D03*
%TD*%
D15*
%TO.C,R31*%
X63800000Y18912500D03*
X63800000Y20487500D03*
%TD*%
D13*
%TO.C,R32*%
X14757500Y50800000D03*
X13182500Y50800000D03*
%TD*%
%TO.C,R33*%
X14757500Y33020000D03*
X13182500Y33020000D03*
%TD*%
%TO.C,R34*%
X14757500Y15240000D03*
X13182500Y15240000D03*
%TD*%
%TO.C,R35*%
X14757500Y54610000D03*
X13182500Y54610000D03*
%TD*%
%TO.C,R36*%
X14757500Y36830000D03*
X13182500Y36830000D03*
%TD*%
%TO.C,R37*%
X14757500Y19050000D03*
X13182500Y19050000D03*
%TD*%
D37*
%TO.C,R38*%
X19050000Y57482500D03*
X19050000Y59357500D03*
%TD*%
%TO.C,R40*%
X19050000Y21922500D03*
X19050000Y23797500D03*
%TD*%
D11*
%TO.C,R41*%
X19050000Y13287500D03*
X19050000Y11712500D03*
%TD*%
D38*
%TO.C,U5*%
X51650000Y29000000D03*
X51150000Y29000000D03*
X50650000Y29000000D03*
X50150000Y29000000D03*
X49650000Y29000000D03*
X49150000Y29000000D03*
X48650000Y29000000D03*
X48150000Y29000000D03*
X47650000Y29000000D03*
X47150000Y29000000D03*
X46650000Y29000000D03*
X46150000Y29000000D03*
X45650000Y29000000D03*
X45150000Y29000000D03*
X44650000Y29000000D03*
X44150000Y29000000D03*
X43650000Y29000000D03*
X43150000Y29000000D03*
X42650000Y29000000D03*
X42150000Y29000000D03*
X41650000Y29000000D03*
X41150000Y29000000D03*
X40650000Y29000000D03*
X40150000Y29000000D03*
X39650000Y29000000D03*
X39150000Y29000000D03*
X38650000Y29000000D03*
X38150000Y29000000D03*
X37650000Y29000000D03*
X37150000Y29000000D03*
X36650000Y29000000D03*
X36150000Y29000000D03*
X35650000Y29000000D03*
X35150000Y29000000D03*
X34650000Y29000000D03*
X34150000Y29000000D03*
D39*
X32200000Y27050000D03*
X32200000Y26550000D03*
X32200000Y26050000D03*
X32200000Y25550000D03*
X32200000Y25050000D03*
X32200000Y24550000D03*
X32200000Y24050000D03*
X32200000Y23550000D03*
X32200000Y23050000D03*
X32200000Y22550000D03*
X32200000Y22050000D03*
X32200000Y21550000D03*
X32200000Y21050000D03*
X32200000Y20550000D03*
X32200000Y20050000D03*
X32200000Y19550000D03*
X32200000Y19050000D03*
X32200000Y18550000D03*
X32200000Y18050000D03*
X32200000Y17550000D03*
X32200000Y17050000D03*
X32200000Y16550000D03*
X32200000Y16050000D03*
X32200000Y15550000D03*
X32200000Y15050000D03*
X32200000Y14550000D03*
X32200000Y14050000D03*
X32200000Y13550000D03*
X32200000Y13050000D03*
X32200000Y12550000D03*
X32200000Y12050000D03*
X32200000Y11550000D03*
X32200000Y11050000D03*
X32200000Y10550000D03*
X32200000Y10050000D03*
X32200000Y9550000D03*
D38*
X34150000Y7600000D03*
X34650000Y7600000D03*
X35150000Y7600000D03*
X35650000Y7600000D03*
X36150000Y7600000D03*
X36650000Y7600000D03*
X37150000Y7600000D03*
X37650000Y7600000D03*
X38150000Y7600000D03*
X38650000Y7600000D03*
X39150000Y7600000D03*
X39650000Y7600000D03*
X40150000Y7600000D03*
X40650000Y7600000D03*
X41150000Y7600000D03*
X41650000Y7600000D03*
X42150000Y7600000D03*
X42650000Y7600000D03*
X43150000Y7600000D03*
X43650000Y7600000D03*
X44150000Y7600000D03*
X44650000Y7600000D03*
X45150000Y7600000D03*
X45650000Y7600000D03*
X46150000Y7600000D03*
X46650000Y7600000D03*
X47150000Y7600000D03*
X47650000Y7600000D03*
X48150000Y7600000D03*
X48650000Y7600000D03*
X49150000Y7600000D03*
X49650000Y7600000D03*
X50150000Y7600000D03*
X50650000Y7600000D03*
X51150000Y7600000D03*
X51650000Y7600000D03*
D39*
X53600000Y9550000D03*
X53600000Y10050000D03*
X53600000Y10550000D03*
X53600000Y11050000D03*
X53600000Y11550000D03*
X53600000Y12050000D03*
X53600000Y12550000D03*
X53600000Y13050000D03*
X53600000Y13550000D03*
X53600000Y14050000D03*
X53600000Y14550000D03*
X53600000Y15050000D03*
X53600000Y15550000D03*
X53600000Y16050000D03*
X53600000Y16550000D03*
X53600000Y17050000D03*
X53600000Y17550000D03*
X53600000Y18050000D03*
X53600000Y18550000D03*
X53600000Y19050000D03*
X53600000Y19550000D03*
X53600000Y20050000D03*
X53600000Y20550000D03*
X53600000Y21050000D03*
X53600000Y21550000D03*
X53600000Y22050000D03*
X53600000Y22550000D03*
X53600000Y23050000D03*
X53600000Y23550000D03*
X53600000Y24050000D03*
X53600000Y24550000D03*
X53600000Y25050000D03*
X53600000Y25550000D03*
X53600000Y26050000D03*
X53600000Y26550000D03*
X53600000Y27050000D03*
%TD*%
D40*
%TO.C,Y2*%
X32450000Y37750000D03*
X26550000Y37750000D03*
X26550000Y35050000D03*
X32450000Y35050000D03*
%TD*%
D41*
%TO.C,Y3*%
X28230000Y20070000D03*
X28230000Y22570000D03*
%TD*%
D13*
%TO.C,C51*%
X32399500Y32100000D03*
X30824500Y32100000D03*
%TD*%
D15*
%TO.C,C31*%
X45700000Y31712500D03*
X45700000Y33287500D03*
%TD*%
D13*
%TO.C,C33*%
X29887500Y27800000D03*
X28312500Y27800000D03*
%TD*%
%TO.C,C35*%
X29489500Y18034000D03*
X27914500Y18034000D03*
%TD*%
%TO.C,C38*%
X27787500Y9400000D03*
X26212500Y9400000D03*
%TD*%
%TO.C,C36*%
X29489500Y14986000D03*
X27914500Y14986000D03*
%TD*%
D12*
%TO.C,R25*%
X19100500Y27700000D03*
X20675500Y27700000D03*
%TD*%
%TO.C,C41*%
X19112500Y30800000D03*
X20687500Y30800000D03*
%TD*%
D11*
%TO.C,C42*%
X33200000Y4387500D03*
X33200000Y2812500D03*
%TD*%
%TO.C,C45*%
X36100000Y4387500D03*
X36100000Y2812500D03*
%TD*%
D35*
%TO.C,U3*%
X51200000Y41850000D03*
X51200000Y43750000D03*
X49200000Y42800000D03*
%TD*%
D37*
%TO.C,R39*%
X19050000Y39702500D03*
X19050000Y41577500D03*
%TD*%
D42*
%TO.C,C7*%
X75830000Y46852000D03*
X75830000Y52388000D03*
%TD*%
D43*
%TO.C,U2*%
X47935000Y47100000D03*
X49205000Y47100000D03*
D44*
X49205000Y52300000D03*
X47935000Y52300000D03*
%TD*%
D45*
%TO.C,R8*%
X80230000Y55870000D03*
X74430000Y55870000D03*
%TD*%
D12*
%TO.C,R10*%
X58274500Y60370000D03*
X59849500Y60370000D03*
%TD*%
D46*
%TO.C,T1*%
X58810000Y57580000D03*
X61310000Y57580000D03*
X63810000Y57580000D03*
X66310000Y57580000D03*
X68810000Y57580000D03*
X68810000Y41820000D03*
X66310000Y41820000D03*
X63810000Y41820000D03*
X61310000Y41820000D03*
X58860000Y41820000D03*
%TD*%
D47*
%TO.C,D7*%
X66350000Y34610000D03*
D48*
X67270000Y38592000D03*
X65430000Y38592000D03*
%TD*%
D49*
%TO.C,U6*%
X67730000Y22140000D03*
D50*
X67730000Y20420000D03*
X69930000Y20420000D03*
X69930000Y22320000D03*
%TD*%
D11*
%TO.C,R11*%
X45200000Y46787500D03*
X45200000Y45212500D03*
%TD*%
D51*
%TO.C,C3*%
X77080000Y60007500D03*
X77080000Y66232500D03*
%TD*%
%TO.C,C11*%
X60000000Y31347500D03*
X60000000Y37572500D03*
%TD*%
D52*
%TO.C,C30*%
X27712500Y12300000D03*
X26287500Y12300000D03*
%TD*%
D53*
%TO.C,Q3*%
X65905000Y62345000D03*
X65905000Y65395000D03*
X62555000Y62345000D03*
X62555000Y65395000D03*
D54*
X70530000Y61590000D03*
X70530000Y66150000D03*
%TD*%
D55*
%TO.C,Q5*%
X7940000Y52290000D03*
X9840000Y52290000D03*
X8890000Y54390000D03*
%TD*%
%TO.C,Q6*%
X7940000Y34510000D03*
X9840000Y34510000D03*
X8890000Y36610000D03*
%TD*%
%TO.C,Q7*%
X7940000Y16730000D03*
X9840000Y16730000D03*
X8890000Y18830000D03*
%TD*%
D12*
%TO.C,R12*%
X70792500Y39207500D03*
X72367500Y39207500D03*
%TD*%
D56*
X0Y70000000D02*
X100000000Y70000000D01*
X0Y0D02*
X0Y70000000D01*
X100000000Y0D02*
X0Y0D01*
X100000000Y70000000D02*
X100000000Y0D01*
M02*
