%TF.GenerationSoftware,KiCad,Pcbnew,7.0.10*%
%TF.CreationDate,2025-02-13T15:28:56-06:00*%
%TF.ProjectId,IR2IP,49523249-502e-46b6-9963-61645f706362,rev?*%
%TF.SameCoordinates,PX55fe290PY8062360*%
%TF.FileFunction,Component,L4,Bot*%
%TF.FilePolarity,Positive*%
%FSLAX46Y46*%
G04 Gerber Fmt 4.6, Leading zero omitted, Abs format (unit mm)*
G04 Created by KiCad (PCBNEW 7.0.10) date 2025-02-13 15:28:56*
%MOMM*%
%LPD*%
G01*
G04 APERTURE LIST*
%TA.AperFunction,ComponentMain*%
%ADD10C,0.300000*%
%TD*%
%TA.AperFunction,ComponentOutline,Courtyard*%
%ADD11C,0.100000*%
%TD*%
%TA.AperFunction,ComponentPin*%
%ADD12C,0.100000*%
%TD*%
%TA.AperFunction,Profile*%
%ADD13C,0.150000*%
%TD*%
G04 APERTURE END LIST*
D10*
%TO.C,FID6*%
%TO.CFtp,Fiducial_1mm_Dia_2.54mm_Outer_CopperTop*%
%TO.CVal,Fiducial_1mm_Dia_2.54mm_Outer_CopperTop*%
%TO.CLbN,Fiducial*%
%TO.CMnt,SMD*%
%TO.CRot,180*%
X2830000Y66620000D03*
D11*
X2586015Y68160457D02*
X3073985Y68160457D01*
X3538070Y68009668D01*
X3538070Y68009667D01*
X3932846Y67722846D01*
X4219667Y67328070D01*
X4370457Y66863985D01*
X4379999Y66620000D01*
X4370457Y66376015D01*
X4219667Y65911930D01*
X3932846Y65517154D01*
X3538070Y65230333D01*
X3073985Y65079543D01*
X2586015Y65079543D01*
X2121929Y65230333D01*
X2121930Y65230333D01*
X1727154Y65517154D01*
X1440333Y65911930D01*
X1289543Y66376015D01*
X1289543Y66863985D01*
X1440333Y67328070D01*
X1727154Y67722846D01*
X2121930Y68009667D01*
X2121929Y68009668D01*
X2586015Y68160457D01*
D12*
%TO.P,FID6,*%
X2830000Y66620000D03*
%TD*%
D10*
%TO.C,FID5*%
%TO.CFtp,Fiducial_1mm_Dia_2.54mm_Outer_CopperTop*%
%TO.CVal,Fiducial_1mm_Dia_2.54mm_Outer_CopperTop*%
%TO.CLbN,Fiducial*%
%TO.CMnt,SMD*%
%TO.CRot,180*%
X96830000Y2620000D03*
D11*
X96586015Y4160457D02*
X97073985Y4160457D01*
X97538070Y4009668D01*
X97538070Y4009667D01*
X97932846Y3722846D01*
X98219667Y3328070D01*
X98370457Y2863985D01*
X98379999Y2620000D01*
X98370457Y2376015D01*
X98219667Y1911930D01*
X97932846Y1517154D01*
X97538070Y1230333D01*
X97073985Y1079543D01*
X96586015Y1079543D01*
X96121929Y1230333D01*
X96121930Y1230333D01*
X95727154Y1517154D01*
X95440333Y1911930D01*
X95289543Y2376015D01*
X95289543Y2863985D01*
X95440333Y3328070D01*
X95727154Y3722846D01*
X96121930Y4009667D01*
X96121929Y4009668D01*
X96586015Y4160457D01*
D12*
%TO.P,FID5,*%
X96830000Y2620000D03*
%TD*%
D13*
X0Y70000000D02*
X100000000Y70000000D01*
X0Y0D02*
X0Y70000000D01*
X100000000Y0D02*
X0Y0D01*
X100000000Y70000000D02*
X100000000Y0D01*
M02*
