%TF.GenerationSoftware,KiCad,Pcbnew,7.0.10*%
%TF.CreationDate,2025-02-13T15:15:04-06:00*%
%TF.ProjectId,IR2IP,49523249-502e-46b6-9963-61645f706362,rev?*%
%TF.SameCoordinates,PX55fe290PY8062360*%
%TF.FileFunction,AssemblyDrawing,Bot*%
%FSLAX46Y46*%
G04 Gerber Fmt 4.6, Leading zero omitted, Abs format (unit mm)*
G04 Created by KiCad (PCBNEW 7.0.10) date 2025-02-13 15:15:04*
%MOMM*%
%LPD*%
G01*
G04 APERTURE LIST*
%ADD10C,0.150000*%
%TA.AperFunction,Profile*%
%ADD11C,0.150000*%
%TD*%
G04 APERTURE END LIST*
D10*
X18996667Y69188991D02*
X19330000Y69188991D01*
X19330000Y68665181D02*
X19330000Y69665181D01*
X19330000Y69665181D02*
X18853810Y69665181D01*
X18472857Y68665181D02*
X18472857Y69331848D01*
X18472857Y69665181D02*
X18520476Y69617562D01*
X18520476Y69617562D02*
X18472857Y69569943D01*
X18472857Y69569943D02*
X18425238Y69617562D01*
X18425238Y69617562D02*
X18472857Y69665181D01*
X18472857Y69665181D02*
X18472857Y69569943D01*
X17568096Y68665181D02*
X17568096Y69665181D01*
X17568096Y68712800D02*
X17663334Y68665181D01*
X17663334Y68665181D02*
X17853810Y68665181D01*
X17853810Y68665181D02*
X17949048Y68712800D01*
X17949048Y68712800D02*
X17996667Y68760420D01*
X17996667Y68760420D02*
X18044286Y68855658D01*
X18044286Y68855658D02*
X18044286Y69141372D01*
X18044286Y69141372D02*
X17996667Y69236610D01*
X17996667Y69236610D02*
X17949048Y69284229D01*
X17949048Y69284229D02*
X17853810Y69331848D01*
X17853810Y69331848D02*
X17663334Y69331848D01*
X17663334Y69331848D02*
X17568096Y69284229D01*
X16663334Y69331848D02*
X16663334Y68665181D01*
X17091905Y69331848D02*
X17091905Y68808039D01*
X17091905Y68808039D02*
X17044286Y68712800D01*
X17044286Y68712800D02*
X16949048Y68665181D01*
X16949048Y68665181D02*
X16806191Y68665181D01*
X16806191Y68665181D02*
X16710953Y68712800D01*
X16710953Y68712800D02*
X16663334Y68760420D01*
X15758572Y68712800D02*
X15853810Y68665181D01*
X15853810Y68665181D02*
X16044286Y68665181D01*
X16044286Y68665181D02*
X16139524Y68712800D01*
X16139524Y68712800D02*
X16187143Y68760420D01*
X16187143Y68760420D02*
X16234762Y68855658D01*
X16234762Y68855658D02*
X16234762Y69141372D01*
X16234762Y69141372D02*
X16187143Y69236610D01*
X16187143Y69236610D02*
X16139524Y69284229D01*
X16139524Y69284229D02*
X16044286Y69331848D01*
X16044286Y69331848D02*
X15853810Y69331848D01*
X15853810Y69331848D02*
X15758572Y69284229D01*
X15330000Y68665181D02*
X15330000Y69331848D01*
X15330000Y69665181D02*
X15377619Y69617562D01*
X15377619Y69617562D02*
X15330000Y69569943D01*
X15330000Y69569943D02*
X15282381Y69617562D01*
X15282381Y69617562D02*
X15330000Y69665181D01*
X15330000Y69665181D02*
X15330000Y69569943D01*
X14425239Y68665181D02*
X14425239Y69188991D01*
X14425239Y69188991D02*
X14472858Y69284229D01*
X14472858Y69284229D02*
X14568096Y69331848D01*
X14568096Y69331848D02*
X14758572Y69331848D01*
X14758572Y69331848D02*
X14853810Y69284229D01*
X14425239Y68712800D02*
X14520477Y68665181D01*
X14520477Y68665181D02*
X14758572Y68665181D01*
X14758572Y68665181D02*
X14853810Y68712800D01*
X14853810Y68712800D02*
X14901429Y68808039D01*
X14901429Y68808039D02*
X14901429Y68903277D01*
X14901429Y68903277D02*
X14853810Y68998515D01*
X14853810Y68998515D02*
X14758572Y69046134D01*
X14758572Y69046134D02*
X14520477Y69046134D01*
X14520477Y69046134D02*
X14425239Y69093753D01*
X13806191Y68665181D02*
X13901429Y68712800D01*
X13901429Y68712800D02*
X13949048Y68808039D01*
X13949048Y68808039D02*
X13949048Y69665181D01*
X13663334Y68569943D02*
X12901429Y68569943D01*
X12139524Y68665181D02*
X12710952Y68665181D01*
X12425238Y68665181D02*
X12425238Y69665181D01*
X12425238Y69665181D02*
X12520476Y69522324D01*
X12520476Y69522324D02*
X12615714Y69427086D01*
X12615714Y69427086D02*
X12710952Y69379467D01*
X11710952Y68665181D02*
X11710952Y69331848D01*
X11710952Y69236610D02*
X11663333Y69284229D01*
X11663333Y69284229D02*
X11568095Y69331848D01*
X11568095Y69331848D02*
X11425238Y69331848D01*
X11425238Y69331848D02*
X11330000Y69284229D01*
X11330000Y69284229D02*
X11282381Y69188991D01*
X11282381Y69188991D02*
X11282381Y68665181D01*
X11282381Y69188991D02*
X11234762Y69284229D01*
X11234762Y69284229D02*
X11139524Y69331848D01*
X11139524Y69331848D02*
X10996667Y69331848D01*
X10996667Y69331848D02*
X10901428Y69284229D01*
X10901428Y69284229D02*
X10853809Y69188991D01*
X10853809Y69188991D02*
X10853809Y68665181D01*
X10377619Y68665181D02*
X10377619Y69331848D01*
X10377619Y69236610D02*
X10330000Y69284229D01*
X10330000Y69284229D02*
X10234762Y69331848D01*
X10234762Y69331848D02*
X10091905Y69331848D01*
X10091905Y69331848D02*
X9996667Y69284229D01*
X9996667Y69284229D02*
X9949048Y69188991D01*
X9949048Y69188991D02*
X9949048Y68665181D01*
X9949048Y69188991D02*
X9901429Y69284229D01*
X9901429Y69284229D02*
X9806191Y69331848D01*
X9806191Y69331848D02*
X9663334Y69331848D01*
X9663334Y69331848D02*
X9568095Y69284229D01*
X9568095Y69284229D02*
X9520476Y69188991D01*
X9520476Y69188991D02*
X9520476Y68665181D01*
X9282382Y68569943D02*
X8520477Y68569943D01*
X8282381Y68665181D02*
X8282381Y69665181D01*
X8282381Y69665181D02*
X8044286Y69665181D01*
X8044286Y69665181D02*
X7901429Y69617562D01*
X7901429Y69617562D02*
X7806191Y69522324D01*
X7806191Y69522324D02*
X7758572Y69427086D01*
X7758572Y69427086D02*
X7710953Y69236610D01*
X7710953Y69236610D02*
X7710953Y69093753D01*
X7710953Y69093753D02*
X7758572Y68903277D01*
X7758572Y68903277D02*
X7806191Y68808039D01*
X7806191Y68808039D02*
X7901429Y68712800D01*
X7901429Y68712800D02*
X8044286Y68665181D01*
X8044286Y68665181D02*
X8282381Y68665181D01*
X7282381Y68665181D02*
X7282381Y69331848D01*
X7282381Y69665181D02*
X7330000Y69617562D01*
X7330000Y69617562D02*
X7282381Y69569943D01*
X7282381Y69569943D02*
X7234762Y69617562D01*
X7234762Y69617562D02*
X7282381Y69665181D01*
X7282381Y69665181D02*
X7282381Y69569943D01*
X6377620Y68665181D02*
X6377620Y69188991D01*
X6377620Y69188991D02*
X6425239Y69284229D01*
X6425239Y69284229D02*
X6520477Y69331848D01*
X6520477Y69331848D02*
X6710953Y69331848D01*
X6710953Y69331848D02*
X6806191Y69284229D01*
X6377620Y68712800D02*
X6472858Y68665181D01*
X6472858Y68665181D02*
X6710953Y68665181D01*
X6710953Y68665181D02*
X6806191Y68712800D01*
X6806191Y68712800D02*
X6853810Y68808039D01*
X6853810Y68808039D02*
X6853810Y68903277D01*
X6853810Y68903277D02*
X6806191Y68998515D01*
X6806191Y68998515D02*
X6710953Y69046134D01*
X6710953Y69046134D02*
X6472858Y69046134D01*
X6472858Y69046134D02*
X6377620Y69093753D01*
X6139525Y68569943D02*
X5377620Y68569943D01*
X5187143Y69569943D02*
X5139524Y69617562D01*
X5139524Y69617562D02*
X5044286Y69665181D01*
X5044286Y69665181D02*
X4806191Y69665181D01*
X4806191Y69665181D02*
X4710953Y69617562D01*
X4710953Y69617562D02*
X4663334Y69569943D01*
X4663334Y69569943D02*
X4615715Y69474705D01*
X4615715Y69474705D02*
X4615715Y69379467D01*
X4615715Y69379467D02*
X4663334Y69236610D01*
X4663334Y69236610D02*
X5234762Y68665181D01*
X5234762Y68665181D02*
X4615715Y68665181D01*
X4187143Y68760420D02*
X4139524Y68712800D01*
X4139524Y68712800D02*
X4187143Y68665181D01*
X4187143Y68665181D02*
X4234762Y68712800D01*
X4234762Y68712800D02*
X4187143Y68760420D01*
X4187143Y68760420D02*
X4187143Y68665181D01*
X3234763Y69665181D02*
X3710953Y69665181D01*
X3710953Y69665181D02*
X3758572Y69188991D01*
X3758572Y69188991D02*
X3710953Y69236610D01*
X3710953Y69236610D02*
X3615715Y69284229D01*
X3615715Y69284229D02*
X3377620Y69284229D01*
X3377620Y69284229D02*
X3282382Y69236610D01*
X3282382Y69236610D02*
X3234763Y69188991D01*
X3234763Y69188991D02*
X3187144Y69093753D01*
X3187144Y69093753D02*
X3187144Y68855658D01*
X3187144Y68855658D02*
X3234763Y68760420D01*
X3234763Y68760420D02*
X3282382Y68712800D01*
X3282382Y68712800D02*
X3377620Y68665181D01*
X3377620Y68665181D02*
X3615715Y68665181D01*
X3615715Y68665181D02*
X3710953Y68712800D01*
X3710953Y68712800D02*
X3758572Y68760420D01*
X2330001Y69331848D02*
X2330001Y68665181D01*
X2568096Y69712800D02*
X2806191Y68998515D01*
X2806191Y68998515D02*
X2187144Y68998515D01*
X1806191Y68665181D02*
X1806191Y69331848D01*
X1806191Y69236610D02*
X1758572Y69284229D01*
X1758572Y69284229D02*
X1663334Y69331848D01*
X1663334Y69331848D02*
X1520477Y69331848D01*
X1520477Y69331848D02*
X1425239Y69284229D01*
X1425239Y69284229D02*
X1377620Y69188991D01*
X1377620Y69188991D02*
X1377620Y68665181D01*
X1377620Y69188991D02*
X1330001Y69284229D01*
X1330001Y69284229D02*
X1234763Y69331848D01*
X1234763Y69331848D02*
X1091906Y69331848D01*
X1091906Y69331848D02*
X996667Y69284229D01*
X996667Y69284229D02*
X949048Y69188991D01*
X949048Y69188991D02*
X949048Y68665181D01*
X472858Y68665181D02*
X472858Y69331848D01*
X472858Y69236610D02*
X425239Y69284229D01*
X425239Y69284229D02*
X330001Y69331848D01*
X330001Y69331848D02*
X187144Y69331848D01*
X187144Y69331848D02*
X91906Y69284229D01*
X91906Y69284229D02*
X44287Y69188991D01*
X44287Y69188991D02*
X44287Y68665181D01*
X44287Y69188991D02*
X-3332Y69284229D01*
X-3332Y69284229D02*
X-98570Y69331848D01*
X-98570Y69331848D02*
X-241427Y69331848D01*
X-241427Y69331848D02*
X-336666Y69284229D01*
X-336666Y69284229D02*
X-384285Y69188991D01*
X-384285Y69188991D02*
X-384285Y68665181D01*
X-622379Y68569943D02*
X-1384284Y68569943D01*
X-1812856Y69665181D02*
X-2003332Y69665181D01*
X-2003332Y69665181D02*
X-2098570Y69617562D01*
X-2098570Y69617562D02*
X-2193808Y69522324D01*
X-2193808Y69522324D02*
X-2241427Y69331848D01*
X-2241427Y69331848D02*
X-2241427Y68998515D01*
X-2241427Y68998515D02*
X-2193808Y68808039D01*
X-2193808Y68808039D02*
X-2098570Y68712800D01*
X-2098570Y68712800D02*
X-2003332Y68665181D01*
X-2003332Y68665181D02*
X-1812856Y68665181D01*
X-1812856Y68665181D02*
X-1717618Y68712800D01*
X-1717618Y68712800D02*
X-1622380Y68808039D01*
X-1622380Y68808039D02*
X-1574761Y68998515D01*
X-1574761Y68998515D02*
X-1574761Y69331848D01*
X-1574761Y69331848D02*
X-1622380Y69522324D01*
X-1622380Y69522324D02*
X-1717618Y69617562D01*
X-1717618Y69617562D02*
X-1812856Y69665181D01*
X-3098570Y69331848D02*
X-3098570Y68665181D01*
X-2669999Y69331848D02*
X-2669999Y68808039D01*
X-2669999Y68808039D02*
X-2717618Y68712800D01*
X-2717618Y68712800D02*
X-2812856Y68665181D01*
X-2812856Y68665181D02*
X-2955713Y68665181D01*
X-2955713Y68665181D02*
X-3050951Y68712800D01*
X-3050951Y68712800D02*
X-3098570Y68760420D01*
X-3431904Y69331848D02*
X-3812856Y69331848D01*
X-3574761Y69665181D02*
X-3574761Y68808039D01*
X-3574761Y68808039D02*
X-3622380Y68712800D01*
X-3622380Y68712800D02*
X-3717618Y68665181D01*
X-3717618Y68665181D02*
X-3812856Y68665181D01*
X-4527142Y68712800D02*
X-4431904Y68665181D01*
X-4431904Y68665181D02*
X-4241428Y68665181D01*
X-4241428Y68665181D02*
X-4146190Y68712800D01*
X-4146190Y68712800D02*
X-4098571Y68808039D01*
X-4098571Y68808039D02*
X-4098571Y69188991D01*
X-4098571Y69188991D02*
X-4146190Y69284229D01*
X-4146190Y69284229D02*
X-4241428Y69331848D01*
X-4241428Y69331848D02*
X-4431904Y69331848D01*
X-4431904Y69331848D02*
X-4527142Y69284229D01*
X-4527142Y69284229D02*
X-4574761Y69188991D01*
X-4574761Y69188991D02*
X-4574761Y69093753D01*
X-4574761Y69093753D02*
X-4098571Y68998515D01*
X-5003333Y68665181D02*
X-5003333Y69331848D01*
X-5003333Y69141372D02*
X-5050952Y69236610D01*
X-5050952Y69236610D02*
X-5098571Y69284229D01*
X-5098571Y69284229D02*
X-5193809Y69331848D01*
X-5193809Y69331848D02*
X-5289047Y69331848D01*
X-5384285Y68569943D02*
X-6146190Y68569943D01*
X-6955714Y68760420D02*
X-6908095Y68712800D01*
X-6908095Y68712800D02*
X-6765238Y68665181D01*
X-6765238Y68665181D02*
X-6670000Y68665181D01*
X-6670000Y68665181D02*
X-6527143Y68712800D01*
X-6527143Y68712800D02*
X-6431905Y68808039D01*
X-6431905Y68808039D02*
X-6384286Y68903277D01*
X-6384286Y68903277D02*
X-6336667Y69093753D01*
X-6336667Y69093753D02*
X-6336667Y69236610D01*
X-6336667Y69236610D02*
X-6384286Y69427086D01*
X-6384286Y69427086D02*
X-6431905Y69522324D01*
X-6431905Y69522324D02*
X-6527143Y69617562D01*
X-6527143Y69617562D02*
X-6670000Y69665181D01*
X-6670000Y69665181D02*
X-6765238Y69665181D01*
X-6765238Y69665181D02*
X-6908095Y69617562D01*
X-6908095Y69617562D02*
X-6955714Y69569943D01*
X-7527143Y68665181D02*
X-7431905Y68712800D01*
X-7431905Y68712800D02*
X-7384286Y68760420D01*
X-7384286Y68760420D02*
X-7336667Y68855658D01*
X-7336667Y68855658D02*
X-7336667Y69141372D01*
X-7336667Y69141372D02*
X-7384286Y69236610D01*
X-7384286Y69236610D02*
X-7431905Y69284229D01*
X-7431905Y69284229D02*
X-7527143Y69331848D01*
X-7527143Y69331848D02*
X-7670000Y69331848D01*
X-7670000Y69331848D02*
X-7765238Y69284229D01*
X-7765238Y69284229D02*
X-7812857Y69236610D01*
X-7812857Y69236610D02*
X-7860476Y69141372D01*
X-7860476Y69141372D02*
X-7860476Y68855658D01*
X-7860476Y68855658D02*
X-7812857Y68760420D01*
X-7812857Y68760420D02*
X-7765238Y68712800D01*
X-7765238Y68712800D02*
X-7670000Y68665181D01*
X-7670000Y68665181D02*
X-7527143Y68665181D01*
X-8289048Y69331848D02*
X-8289048Y68331848D01*
X-8289048Y69284229D02*
X-8384286Y69331848D01*
X-8384286Y69331848D02*
X-8574762Y69331848D01*
X-8574762Y69331848D02*
X-8670000Y69284229D01*
X-8670000Y69284229D02*
X-8717619Y69236610D01*
X-8717619Y69236610D02*
X-8765238Y69141372D01*
X-8765238Y69141372D02*
X-8765238Y68855658D01*
X-8765238Y68855658D02*
X-8717619Y68760420D01*
X-8717619Y68760420D02*
X-8670000Y68712800D01*
X-8670000Y68712800D02*
X-8574762Y68665181D01*
X-8574762Y68665181D02*
X-8384286Y68665181D01*
X-8384286Y68665181D02*
X-8289048Y68712800D01*
X-9193810Y69331848D02*
X-9193810Y68331848D01*
X-9193810Y69284229D02*
X-9289048Y69331848D01*
X-9289048Y69331848D02*
X-9479524Y69331848D01*
X-9479524Y69331848D02*
X-9574762Y69284229D01*
X-9574762Y69284229D02*
X-9622381Y69236610D01*
X-9622381Y69236610D02*
X-9670000Y69141372D01*
X-9670000Y69141372D02*
X-9670000Y68855658D01*
X-9670000Y68855658D02*
X-9622381Y68760420D01*
X-9622381Y68760420D02*
X-9574762Y68712800D01*
X-9574762Y68712800D02*
X-9479524Y68665181D01*
X-9479524Y68665181D02*
X-9289048Y68665181D01*
X-9289048Y68665181D02*
X-9193810Y68712800D01*
X-10479524Y68712800D02*
X-10384286Y68665181D01*
X-10384286Y68665181D02*
X-10193810Y68665181D01*
X-10193810Y68665181D02*
X-10098572Y68712800D01*
X-10098572Y68712800D02*
X-10050953Y68808039D01*
X-10050953Y68808039D02*
X-10050953Y69188991D01*
X-10050953Y69188991D02*
X-10098572Y69284229D01*
X-10098572Y69284229D02*
X-10193810Y69331848D01*
X-10193810Y69331848D02*
X-10384286Y69331848D01*
X-10384286Y69331848D02*
X-10479524Y69284229D01*
X-10479524Y69284229D02*
X-10527143Y69188991D01*
X-10527143Y69188991D02*
X-10527143Y69093753D01*
X-10527143Y69093753D02*
X-10050953Y68998515D01*
X-10955715Y68665181D02*
X-10955715Y69331848D01*
X-10955715Y69141372D02*
X-11003334Y69236610D01*
X-11003334Y69236610D02*
X-11050953Y69284229D01*
X-11050953Y69284229D02*
X-11146191Y69331848D01*
X-11146191Y69331848D02*
X-11241429Y69331848D01*
X-11431906Y69665181D02*
X-12003334Y69665181D01*
X-11717620Y68665181D02*
X-11717620Y69665181D01*
X-12479525Y68665181D02*
X-12384287Y68712800D01*
X-12384287Y68712800D02*
X-12336668Y68760420D01*
X-12336668Y68760420D02*
X-12289049Y68855658D01*
X-12289049Y68855658D02*
X-12289049Y69141372D01*
X-12289049Y69141372D02*
X-12336668Y69236610D01*
X-12336668Y69236610D02*
X-12384287Y69284229D01*
X-12384287Y69284229D02*
X-12479525Y69331848D01*
X-12479525Y69331848D02*
X-12622382Y69331848D01*
X-12622382Y69331848D02*
X-12717620Y69284229D01*
X-12717620Y69284229D02*
X-12765239Y69236610D01*
X-12765239Y69236610D02*
X-12812858Y69141372D01*
X-12812858Y69141372D02*
X-12812858Y68855658D01*
X-12812858Y68855658D02*
X-12765239Y68760420D01*
X-12765239Y68760420D02*
X-12717620Y68712800D01*
X-12717620Y68712800D02*
X-12622382Y68665181D01*
X-12622382Y68665181D02*
X-12479525Y68665181D01*
X-13241430Y69331848D02*
X-13241430Y68331848D01*
X-13241430Y69284229D02*
X-13336668Y69331848D01*
X-13336668Y69331848D02*
X-13527144Y69331848D01*
X-13527144Y69331848D02*
X-13622382Y69284229D01*
X-13622382Y69284229D02*
X-13670001Y69236610D01*
X-13670001Y69236610D02*
X-13717620Y69141372D01*
X-13717620Y69141372D02*
X-13717620Y68855658D01*
X-13717620Y68855658D02*
X-13670001Y68760420D01*
X-13670001Y68760420D02*
X-13622382Y68712800D01*
X-13622382Y68712800D02*
X-13527144Y68665181D01*
X-13527144Y68665181D02*
X-13336668Y68665181D01*
X-13336668Y68665181D02*
X-13241430Y68712800D01*
X3571428Y64568991D02*
X3904761Y64568991D01*
X3904761Y64045181D02*
X3904761Y65045181D01*
X3904761Y65045181D02*
X3428571Y65045181D01*
X3047618Y64045181D02*
X3047618Y65045181D01*
X2571428Y64045181D02*
X2571428Y65045181D01*
X2571428Y65045181D02*
X2333333Y65045181D01*
X2333333Y65045181D02*
X2190476Y64997562D01*
X2190476Y64997562D02*
X2095238Y64902324D01*
X2095238Y64902324D02*
X2047619Y64807086D01*
X2047619Y64807086D02*
X2000000Y64616610D01*
X2000000Y64616610D02*
X2000000Y64473753D01*
X2000000Y64473753D02*
X2047619Y64283277D01*
X2047619Y64283277D02*
X2095238Y64188039D01*
X2095238Y64188039D02*
X2190476Y64092800D01*
X2190476Y64092800D02*
X2333333Y64045181D01*
X2333333Y64045181D02*
X2571428Y64045181D01*
X1142857Y65045181D02*
X1333333Y65045181D01*
X1333333Y65045181D02*
X1428571Y64997562D01*
X1428571Y64997562D02*
X1476190Y64949943D01*
X1476190Y64949943D02*
X1571428Y64807086D01*
X1571428Y64807086D02*
X1619047Y64616610D01*
X1619047Y64616610D02*
X1619047Y64235658D01*
X1619047Y64235658D02*
X1571428Y64140420D01*
X1571428Y64140420D02*
X1523809Y64092800D01*
X1523809Y64092800D02*
X1428571Y64045181D01*
X1428571Y64045181D02*
X1238095Y64045181D01*
X1238095Y64045181D02*
X1142857Y64092800D01*
X1142857Y64092800D02*
X1095238Y64140420D01*
X1095238Y64140420D02*
X1047619Y64235658D01*
X1047619Y64235658D02*
X1047619Y64473753D01*
X1047619Y64473753D02*
X1095238Y64568991D01*
X1095238Y64568991D02*
X1142857Y64616610D01*
X1142857Y64616610D02*
X1238095Y64664229D01*
X1238095Y64664229D02*
X1428571Y64664229D01*
X1428571Y64664229D02*
X1523809Y64616610D01*
X1523809Y64616610D02*
X1571428Y64568991D01*
X1571428Y64568991D02*
X1619047Y64473753D01*
X112996667Y5188991D02*
X113330000Y5188991D01*
X113330000Y4665181D02*
X113330000Y5665181D01*
X113330000Y5665181D02*
X112853810Y5665181D01*
X112472857Y4665181D02*
X112472857Y5331848D01*
X112472857Y5665181D02*
X112520476Y5617562D01*
X112520476Y5617562D02*
X112472857Y5569943D01*
X112472857Y5569943D02*
X112425238Y5617562D01*
X112425238Y5617562D02*
X112472857Y5665181D01*
X112472857Y5665181D02*
X112472857Y5569943D01*
X111568096Y4665181D02*
X111568096Y5665181D01*
X111568096Y4712800D02*
X111663334Y4665181D01*
X111663334Y4665181D02*
X111853810Y4665181D01*
X111853810Y4665181D02*
X111949048Y4712800D01*
X111949048Y4712800D02*
X111996667Y4760420D01*
X111996667Y4760420D02*
X112044286Y4855658D01*
X112044286Y4855658D02*
X112044286Y5141372D01*
X112044286Y5141372D02*
X111996667Y5236610D01*
X111996667Y5236610D02*
X111949048Y5284229D01*
X111949048Y5284229D02*
X111853810Y5331848D01*
X111853810Y5331848D02*
X111663334Y5331848D01*
X111663334Y5331848D02*
X111568096Y5284229D01*
X110663334Y5331848D02*
X110663334Y4665181D01*
X111091905Y5331848D02*
X111091905Y4808039D01*
X111091905Y4808039D02*
X111044286Y4712800D01*
X111044286Y4712800D02*
X110949048Y4665181D01*
X110949048Y4665181D02*
X110806191Y4665181D01*
X110806191Y4665181D02*
X110710953Y4712800D01*
X110710953Y4712800D02*
X110663334Y4760420D01*
X109758572Y4712800D02*
X109853810Y4665181D01*
X109853810Y4665181D02*
X110044286Y4665181D01*
X110044286Y4665181D02*
X110139524Y4712800D01*
X110139524Y4712800D02*
X110187143Y4760420D01*
X110187143Y4760420D02*
X110234762Y4855658D01*
X110234762Y4855658D02*
X110234762Y5141372D01*
X110234762Y5141372D02*
X110187143Y5236610D01*
X110187143Y5236610D02*
X110139524Y5284229D01*
X110139524Y5284229D02*
X110044286Y5331848D01*
X110044286Y5331848D02*
X109853810Y5331848D01*
X109853810Y5331848D02*
X109758572Y5284229D01*
X109330000Y4665181D02*
X109330000Y5331848D01*
X109330000Y5665181D02*
X109377619Y5617562D01*
X109377619Y5617562D02*
X109330000Y5569943D01*
X109330000Y5569943D02*
X109282381Y5617562D01*
X109282381Y5617562D02*
X109330000Y5665181D01*
X109330000Y5665181D02*
X109330000Y5569943D01*
X108425239Y4665181D02*
X108425239Y5188991D01*
X108425239Y5188991D02*
X108472858Y5284229D01*
X108472858Y5284229D02*
X108568096Y5331848D01*
X108568096Y5331848D02*
X108758572Y5331848D01*
X108758572Y5331848D02*
X108853810Y5284229D01*
X108425239Y4712800D02*
X108520477Y4665181D01*
X108520477Y4665181D02*
X108758572Y4665181D01*
X108758572Y4665181D02*
X108853810Y4712800D01*
X108853810Y4712800D02*
X108901429Y4808039D01*
X108901429Y4808039D02*
X108901429Y4903277D01*
X108901429Y4903277D02*
X108853810Y4998515D01*
X108853810Y4998515D02*
X108758572Y5046134D01*
X108758572Y5046134D02*
X108520477Y5046134D01*
X108520477Y5046134D02*
X108425239Y5093753D01*
X107806191Y4665181D02*
X107901429Y4712800D01*
X107901429Y4712800D02*
X107949048Y4808039D01*
X107949048Y4808039D02*
X107949048Y5665181D01*
X107663334Y4569943D02*
X106901429Y4569943D01*
X106139524Y4665181D02*
X106710952Y4665181D01*
X106425238Y4665181D02*
X106425238Y5665181D01*
X106425238Y5665181D02*
X106520476Y5522324D01*
X106520476Y5522324D02*
X106615714Y5427086D01*
X106615714Y5427086D02*
X106710952Y5379467D01*
X105710952Y4665181D02*
X105710952Y5331848D01*
X105710952Y5236610D02*
X105663333Y5284229D01*
X105663333Y5284229D02*
X105568095Y5331848D01*
X105568095Y5331848D02*
X105425238Y5331848D01*
X105425238Y5331848D02*
X105330000Y5284229D01*
X105330000Y5284229D02*
X105282381Y5188991D01*
X105282381Y5188991D02*
X105282381Y4665181D01*
X105282381Y5188991D02*
X105234762Y5284229D01*
X105234762Y5284229D02*
X105139524Y5331848D01*
X105139524Y5331848D02*
X104996667Y5331848D01*
X104996667Y5331848D02*
X104901428Y5284229D01*
X104901428Y5284229D02*
X104853809Y5188991D01*
X104853809Y5188991D02*
X104853809Y4665181D01*
X104377619Y4665181D02*
X104377619Y5331848D01*
X104377619Y5236610D02*
X104330000Y5284229D01*
X104330000Y5284229D02*
X104234762Y5331848D01*
X104234762Y5331848D02*
X104091905Y5331848D01*
X104091905Y5331848D02*
X103996667Y5284229D01*
X103996667Y5284229D02*
X103949048Y5188991D01*
X103949048Y5188991D02*
X103949048Y4665181D01*
X103949048Y5188991D02*
X103901429Y5284229D01*
X103901429Y5284229D02*
X103806191Y5331848D01*
X103806191Y5331848D02*
X103663334Y5331848D01*
X103663334Y5331848D02*
X103568095Y5284229D01*
X103568095Y5284229D02*
X103520476Y5188991D01*
X103520476Y5188991D02*
X103520476Y4665181D01*
X103282382Y4569943D02*
X102520477Y4569943D01*
X102282381Y4665181D02*
X102282381Y5665181D01*
X102282381Y5665181D02*
X102044286Y5665181D01*
X102044286Y5665181D02*
X101901429Y5617562D01*
X101901429Y5617562D02*
X101806191Y5522324D01*
X101806191Y5522324D02*
X101758572Y5427086D01*
X101758572Y5427086D02*
X101710953Y5236610D01*
X101710953Y5236610D02*
X101710953Y5093753D01*
X101710953Y5093753D02*
X101758572Y4903277D01*
X101758572Y4903277D02*
X101806191Y4808039D01*
X101806191Y4808039D02*
X101901429Y4712800D01*
X101901429Y4712800D02*
X102044286Y4665181D01*
X102044286Y4665181D02*
X102282381Y4665181D01*
X101282381Y4665181D02*
X101282381Y5331848D01*
X101282381Y5665181D02*
X101330000Y5617562D01*
X101330000Y5617562D02*
X101282381Y5569943D01*
X101282381Y5569943D02*
X101234762Y5617562D01*
X101234762Y5617562D02*
X101282381Y5665181D01*
X101282381Y5665181D02*
X101282381Y5569943D01*
X100377620Y4665181D02*
X100377620Y5188991D01*
X100377620Y5188991D02*
X100425239Y5284229D01*
X100425239Y5284229D02*
X100520477Y5331848D01*
X100520477Y5331848D02*
X100710953Y5331848D01*
X100710953Y5331848D02*
X100806191Y5284229D01*
X100377620Y4712800D02*
X100472858Y4665181D01*
X100472858Y4665181D02*
X100710953Y4665181D01*
X100710953Y4665181D02*
X100806191Y4712800D01*
X100806191Y4712800D02*
X100853810Y4808039D01*
X100853810Y4808039D02*
X100853810Y4903277D01*
X100853810Y4903277D02*
X100806191Y4998515D01*
X100806191Y4998515D02*
X100710953Y5046134D01*
X100710953Y5046134D02*
X100472858Y5046134D01*
X100472858Y5046134D02*
X100377620Y5093753D01*
X100139525Y4569943D02*
X99377620Y4569943D01*
X99187143Y5569943D02*
X99139524Y5617562D01*
X99139524Y5617562D02*
X99044286Y5665181D01*
X99044286Y5665181D02*
X98806191Y5665181D01*
X98806191Y5665181D02*
X98710953Y5617562D01*
X98710953Y5617562D02*
X98663334Y5569943D01*
X98663334Y5569943D02*
X98615715Y5474705D01*
X98615715Y5474705D02*
X98615715Y5379467D01*
X98615715Y5379467D02*
X98663334Y5236610D01*
X98663334Y5236610D02*
X99234762Y4665181D01*
X99234762Y4665181D02*
X98615715Y4665181D01*
X98187143Y4760420D02*
X98139524Y4712800D01*
X98139524Y4712800D02*
X98187143Y4665181D01*
X98187143Y4665181D02*
X98234762Y4712800D01*
X98234762Y4712800D02*
X98187143Y4760420D01*
X98187143Y4760420D02*
X98187143Y4665181D01*
X97234763Y5665181D02*
X97710953Y5665181D01*
X97710953Y5665181D02*
X97758572Y5188991D01*
X97758572Y5188991D02*
X97710953Y5236610D01*
X97710953Y5236610D02*
X97615715Y5284229D01*
X97615715Y5284229D02*
X97377620Y5284229D01*
X97377620Y5284229D02*
X97282382Y5236610D01*
X97282382Y5236610D02*
X97234763Y5188991D01*
X97234763Y5188991D02*
X97187144Y5093753D01*
X97187144Y5093753D02*
X97187144Y4855658D01*
X97187144Y4855658D02*
X97234763Y4760420D01*
X97234763Y4760420D02*
X97282382Y4712800D01*
X97282382Y4712800D02*
X97377620Y4665181D01*
X97377620Y4665181D02*
X97615715Y4665181D01*
X97615715Y4665181D02*
X97710953Y4712800D01*
X97710953Y4712800D02*
X97758572Y4760420D01*
X96330001Y5331848D02*
X96330001Y4665181D01*
X96568096Y5712800D02*
X96806191Y4998515D01*
X96806191Y4998515D02*
X96187144Y4998515D01*
X95806191Y4665181D02*
X95806191Y5331848D01*
X95806191Y5236610D02*
X95758572Y5284229D01*
X95758572Y5284229D02*
X95663334Y5331848D01*
X95663334Y5331848D02*
X95520477Y5331848D01*
X95520477Y5331848D02*
X95425239Y5284229D01*
X95425239Y5284229D02*
X95377620Y5188991D01*
X95377620Y5188991D02*
X95377620Y4665181D01*
X95377620Y5188991D02*
X95330001Y5284229D01*
X95330001Y5284229D02*
X95234763Y5331848D01*
X95234763Y5331848D02*
X95091906Y5331848D01*
X95091906Y5331848D02*
X94996667Y5284229D01*
X94996667Y5284229D02*
X94949048Y5188991D01*
X94949048Y5188991D02*
X94949048Y4665181D01*
X94472858Y4665181D02*
X94472858Y5331848D01*
X94472858Y5236610D02*
X94425239Y5284229D01*
X94425239Y5284229D02*
X94330001Y5331848D01*
X94330001Y5331848D02*
X94187144Y5331848D01*
X94187144Y5331848D02*
X94091906Y5284229D01*
X94091906Y5284229D02*
X94044287Y5188991D01*
X94044287Y5188991D02*
X94044287Y4665181D01*
X94044287Y5188991D02*
X93996668Y5284229D01*
X93996668Y5284229D02*
X93901430Y5331848D01*
X93901430Y5331848D02*
X93758573Y5331848D01*
X93758573Y5331848D02*
X93663334Y5284229D01*
X93663334Y5284229D02*
X93615715Y5188991D01*
X93615715Y5188991D02*
X93615715Y4665181D01*
X93377621Y4569943D02*
X92615716Y4569943D01*
X92187144Y5665181D02*
X91996668Y5665181D01*
X91996668Y5665181D02*
X91901430Y5617562D01*
X91901430Y5617562D02*
X91806192Y5522324D01*
X91806192Y5522324D02*
X91758573Y5331848D01*
X91758573Y5331848D02*
X91758573Y4998515D01*
X91758573Y4998515D02*
X91806192Y4808039D01*
X91806192Y4808039D02*
X91901430Y4712800D01*
X91901430Y4712800D02*
X91996668Y4665181D01*
X91996668Y4665181D02*
X92187144Y4665181D01*
X92187144Y4665181D02*
X92282382Y4712800D01*
X92282382Y4712800D02*
X92377620Y4808039D01*
X92377620Y4808039D02*
X92425239Y4998515D01*
X92425239Y4998515D02*
X92425239Y5331848D01*
X92425239Y5331848D02*
X92377620Y5522324D01*
X92377620Y5522324D02*
X92282382Y5617562D01*
X92282382Y5617562D02*
X92187144Y5665181D01*
X90901430Y5331848D02*
X90901430Y4665181D01*
X91330001Y5331848D02*
X91330001Y4808039D01*
X91330001Y4808039D02*
X91282382Y4712800D01*
X91282382Y4712800D02*
X91187144Y4665181D01*
X91187144Y4665181D02*
X91044287Y4665181D01*
X91044287Y4665181D02*
X90949049Y4712800D01*
X90949049Y4712800D02*
X90901430Y4760420D01*
X90568096Y5331848D02*
X90187144Y5331848D01*
X90425239Y5665181D02*
X90425239Y4808039D01*
X90425239Y4808039D02*
X90377620Y4712800D01*
X90377620Y4712800D02*
X90282382Y4665181D01*
X90282382Y4665181D02*
X90187144Y4665181D01*
X89472858Y4712800D02*
X89568096Y4665181D01*
X89568096Y4665181D02*
X89758572Y4665181D01*
X89758572Y4665181D02*
X89853810Y4712800D01*
X89853810Y4712800D02*
X89901429Y4808039D01*
X89901429Y4808039D02*
X89901429Y5188991D01*
X89901429Y5188991D02*
X89853810Y5284229D01*
X89853810Y5284229D02*
X89758572Y5331848D01*
X89758572Y5331848D02*
X89568096Y5331848D01*
X89568096Y5331848D02*
X89472858Y5284229D01*
X89472858Y5284229D02*
X89425239Y5188991D01*
X89425239Y5188991D02*
X89425239Y5093753D01*
X89425239Y5093753D02*
X89901429Y4998515D01*
X88996667Y4665181D02*
X88996667Y5331848D01*
X88996667Y5141372D02*
X88949048Y5236610D01*
X88949048Y5236610D02*
X88901429Y5284229D01*
X88901429Y5284229D02*
X88806191Y5331848D01*
X88806191Y5331848D02*
X88710953Y5331848D01*
X88615715Y4569943D02*
X87853810Y4569943D01*
X87044286Y4760420D02*
X87091905Y4712800D01*
X87091905Y4712800D02*
X87234762Y4665181D01*
X87234762Y4665181D02*
X87330000Y4665181D01*
X87330000Y4665181D02*
X87472857Y4712800D01*
X87472857Y4712800D02*
X87568095Y4808039D01*
X87568095Y4808039D02*
X87615714Y4903277D01*
X87615714Y4903277D02*
X87663333Y5093753D01*
X87663333Y5093753D02*
X87663333Y5236610D01*
X87663333Y5236610D02*
X87615714Y5427086D01*
X87615714Y5427086D02*
X87568095Y5522324D01*
X87568095Y5522324D02*
X87472857Y5617562D01*
X87472857Y5617562D02*
X87330000Y5665181D01*
X87330000Y5665181D02*
X87234762Y5665181D01*
X87234762Y5665181D02*
X87091905Y5617562D01*
X87091905Y5617562D02*
X87044286Y5569943D01*
X86472857Y4665181D02*
X86568095Y4712800D01*
X86568095Y4712800D02*
X86615714Y4760420D01*
X86615714Y4760420D02*
X86663333Y4855658D01*
X86663333Y4855658D02*
X86663333Y5141372D01*
X86663333Y5141372D02*
X86615714Y5236610D01*
X86615714Y5236610D02*
X86568095Y5284229D01*
X86568095Y5284229D02*
X86472857Y5331848D01*
X86472857Y5331848D02*
X86330000Y5331848D01*
X86330000Y5331848D02*
X86234762Y5284229D01*
X86234762Y5284229D02*
X86187143Y5236610D01*
X86187143Y5236610D02*
X86139524Y5141372D01*
X86139524Y5141372D02*
X86139524Y4855658D01*
X86139524Y4855658D02*
X86187143Y4760420D01*
X86187143Y4760420D02*
X86234762Y4712800D01*
X86234762Y4712800D02*
X86330000Y4665181D01*
X86330000Y4665181D02*
X86472857Y4665181D01*
X85710952Y5331848D02*
X85710952Y4331848D01*
X85710952Y5284229D02*
X85615714Y5331848D01*
X85615714Y5331848D02*
X85425238Y5331848D01*
X85425238Y5331848D02*
X85330000Y5284229D01*
X85330000Y5284229D02*
X85282381Y5236610D01*
X85282381Y5236610D02*
X85234762Y5141372D01*
X85234762Y5141372D02*
X85234762Y4855658D01*
X85234762Y4855658D02*
X85282381Y4760420D01*
X85282381Y4760420D02*
X85330000Y4712800D01*
X85330000Y4712800D02*
X85425238Y4665181D01*
X85425238Y4665181D02*
X85615714Y4665181D01*
X85615714Y4665181D02*
X85710952Y4712800D01*
X84806190Y5331848D02*
X84806190Y4331848D01*
X84806190Y5284229D02*
X84710952Y5331848D01*
X84710952Y5331848D02*
X84520476Y5331848D01*
X84520476Y5331848D02*
X84425238Y5284229D01*
X84425238Y5284229D02*
X84377619Y5236610D01*
X84377619Y5236610D02*
X84330000Y5141372D01*
X84330000Y5141372D02*
X84330000Y4855658D01*
X84330000Y4855658D02*
X84377619Y4760420D01*
X84377619Y4760420D02*
X84425238Y4712800D01*
X84425238Y4712800D02*
X84520476Y4665181D01*
X84520476Y4665181D02*
X84710952Y4665181D01*
X84710952Y4665181D02*
X84806190Y4712800D01*
X83520476Y4712800D02*
X83615714Y4665181D01*
X83615714Y4665181D02*
X83806190Y4665181D01*
X83806190Y4665181D02*
X83901428Y4712800D01*
X83901428Y4712800D02*
X83949047Y4808039D01*
X83949047Y4808039D02*
X83949047Y5188991D01*
X83949047Y5188991D02*
X83901428Y5284229D01*
X83901428Y5284229D02*
X83806190Y5331848D01*
X83806190Y5331848D02*
X83615714Y5331848D01*
X83615714Y5331848D02*
X83520476Y5284229D01*
X83520476Y5284229D02*
X83472857Y5188991D01*
X83472857Y5188991D02*
X83472857Y5093753D01*
X83472857Y5093753D02*
X83949047Y4998515D01*
X83044285Y4665181D02*
X83044285Y5331848D01*
X83044285Y5141372D02*
X82996666Y5236610D01*
X82996666Y5236610D02*
X82949047Y5284229D01*
X82949047Y5284229D02*
X82853809Y5331848D01*
X82853809Y5331848D02*
X82758571Y5331848D01*
X82568094Y5665181D02*
X81996666Y5665181D01*
X82282380Y4665181D02*
X82282380Y5665181D01*
X81520475Y4665181D02*
X81615713Y4712800D01*
X81615713Y4712800D02*
X81663332Y4760420D01*
X81663332Y4760420D02*
X81710951Y4855658D01*
X81710951Y4855658D02*
X81710951Y5141372D01*
X81710951Y5141372D02*
X81663332Y5236610D01*
X81663332Y5236610D02*
X81615713Y5284229D01*
X81615713Y5284229D02*
X81520475Y5331848D01*
X81520475Y5331848D02*
X81377618Y5331848D01*
X81377618Y5331848D02*
X81282380Y5284229D01*
X81282380Y5284229D02*
X81234761Y5236610D01*
X81234761Y5236610D02*
X81187142Y5141372D01*
X81187142Y5141372D02*
X81187142Y4855658D01*
X81187142Y4855658D02*
X81234761Y4760420D01*
X81234761Y4760420D02*
X81282380Y4712800D01*
X81282380Y4712800D02*
X81377618Y4665181D01*
X81377618Y4665181D02*
X81520475Y4665181D01*
X80758570Y5331848D02*
X80758570Y4331848D01*
X80758570Y5284229D02*
X80663332Y5331848D01*
X80663332Y5331848D02*
X80472856Y5331848D01*
X80472856Y5331848D02*
X80377618Y5284229D01*
X80377618Y5284229D02*
X80329999Y5236610D01*
X80329999Y5236610D02*
X80282380Y5141372D01*
X80282380Y5141372D02*
X80282380Y4855658D01*
X80282380Y4855658D02*
X80329999Y4760420D01*
X80329999Y4760420D02*
X80377618Y4712800D01*
X80377618Y4712800D02*
X80472856Y4665181D01*
X80472856Y4665181D02*
X80663332Y4665181D01*
X80663332Y4665181D02*
X80758570Y4712800D01*
X94821428Y2318991D02*
X95154761Y2318991D01*
X95154761Y1795181D02*
X95154761Y2795181D01*
X95154761Y2795181D02*
X94678571Y2795181D01*
X94297618Y1795181D02*
X94297618Y2795181D01*
X93821428Y1795181D02*
X93821428Y2795181D01*
X93821428Y2795181D02*
X93583333Y2795181D01*
X93583333Y2795181D02*
X93440476Y2747562D01*
X93440476Y2747562D02*
X93345238Y2652324D01*
X93345238Y2652324D02*
X93297619Y2557086D01*
X93297619Y2557086D02*
X93250000Y2366610D01*
X93250000Y2366610D02*
X93250000Y2223753D01*
X93250000Y2223753D02*
X93297619Y2033277D01*
X93297619Y2033277D02*
X93345238Y1938039D01*
X93345238Y1938039D02*
X93440476Y1842800D01*
X93440476Y1842800D02*
X93583333Y1795181D01*
X93583333Y1795181D02*
X93821428Y1795181D01*
X92345238Y2795181D02*
X92821428Y2795181D01*
X92821428Y2795181D02*
X92869047Y2318991D01*
X92869047Y2318991D02*
X92821428Y2366610D01*
X92821428Y2366610D02*
X92726190Y2414229D01*
X92726190Y2414229D02*
X92488095Y2414229D01*
X92488095Y2414229D02*
X92392857Y2366610D01*
X92392857Y2366610D02*
X92345238Y2318991D01*
X92345238Y2318991D02*
X92297619Y2223753D01*
X92297619Y2223753D02*
X92297619Y1985658D01*
X92297619Y1985658D02*
X92345238Y1890420D01*
X92345238Y1890420D02*
X92392857Y1842800D01*
X92392857Y1842800D02*
X92488095Y1795181D01*
X92488095Y1795181D02*
X92726190Y1795181D01*
X92726190Y1795181D02*
X92821428Y1842800D01*
X92821428Y1842800D02*
X92869047Y1890420D01*
D11*
X0Y70000000D02*
X100000000Y70000000D01*
X0Y0D02*
X0Y70000000D01*
X100000000Y0D02*
X0Y0D01*
X100000000Y70000000D02*
X100000000Y0D01*
M02*
