%TF.GenerationSoftware,KiCad,Pcbnew,7.0.10*%
%TF.CreationDate,2025-02-13T15:15:04-06:00*%
%TF.ProjectId,IR2IP,49523249-502e-46b6-9963-61645f706362,rev?*%
%TF.SameCoordinates,PX55fe290PY8062360*%
%TF.FileFunction,Soldermask,Bot*%
%TF.FilePolarity,Negative*%
%FSLAX46Y46*%
G04 Gerber Fmt 4.6, Leading zero omitted, Abs format (unit mm)*
G04 Created by KiCad (PCBNEW 7.0.10) date 2025-02-13 15:15:04*
%MOMM*%
%LPD*%
G01*
G04 APERTURE LIST*
%TA.AperFunction,Profile*%
%ADD10C,0.150000*%
%TD*%
G04 APERTURE END LIST*
G36*
X97050533Y3870706D02*
G01*
X97264366Y3813410D01*
X97465000Y3719852D01*
X97646340Y3592876D01*
X97802876Y3436340D01*
X97929852Y3255000D01*
X98023410Y3054366D01*
X98080706Y2840533D01*
X98100000Y2620000D01*
X98080706Y2399467D01*
X98023410Y2185634D01*
X97929852Y1985000D01*
X97802876Y1803660D01*
X97646340Y1647124D01*
X97465000Y1520148D01*
X97264366Y1426590D01*
X97050533Y1369294D01*
X96830000Y1350000D01*
X96609467Y1369294D01*
X96395634Y1426590D01*
X96195000Y1520148D01*
X96013660Y1647124D01*
X95857124Y1803660D01*
X95730148Y1985000D01*
X95636590Y2185634D01*
X95579294Y2399467D01*
X95560000Y2620000D01*
X95579294Y2840533D01*
X95636590Y3054366D01*
X95730148Y3255000D01*
X95857124Y3436340D01*
X96013660Y3592876D01*
X96195000Y3719852D01*
X96395634Y3813410D01*
X96609467Y3870706D01*
X96830000Y3890000D01*
X97050533Y3870706D01*
G37*
G36*
X19559566Y5620912D02*
G01*
X19621468Y5620912D01*
X19689111Y5610717D01*
X19754300Y5605586D01*
X19806841Y5592972D01*
X19861702Y5584703D01*
X19933396Y5562589D01*
X20002338Y5546037D01*
X20046910Y5527575D01*
X20093846Y5513097D01*
X20167528Y5477614D01*
X20238007Y5448420D01*
X20274189Y5426248D01*
X20312728Y5407688D01*
X20386032Y5357710D01*
X20455504Y5315138D01*
X20483319Y5291382D01*
X20513457Y5270834D01*
X20583823Y5205543D01*
X20649473Y5149473D01*
X20669410Y5126130D01*
X20691542Y5105594D01*
X20756255Y5024447D01*
X20815138Y4955504D01*
X20828085Y4934376D01*
X20843018Y4915651D01*
X20899329Y4818117D01*
X20948420Y4738007D01*
X20955631Y4720597D01*
X20964486Y4705260D01*
X21009646Y4590193D01*
X21046037Y4502338D01*
X21049046Y4489804D01*
X21053242Y4479113D01*
X21084665Y4341441D01*
X21105586Y4254300D01*
X21106128Y4247405D01*
X21107302Y4242264D01*
X21122609Y4037998D01*
X21125600Y4000000D01*
X21122609Y3962000D01*
X21107302Y3757737D01*
X21106128Y3752597D01*
X21105586Y3745700D01*
X21084660Y3658540D01*
X21053242Y3520888D01*
X21049046Y3510200D01*
X21046037Y3497662D01*
X21009639Y3409790D01*
X20964486Y3294741D01*
X20955633Y3279408D01*
X20948420Y3261993D01*
X20899319Y3181868D01*
X20843018Y3084350D01*
X20828088Y3065629D01*
X20815138Y3044496D01*
X20756243Y2975540D01*
X20691542Y2894407D01*
X20669414Y2873876D01*
X20649473Y2850527D01*
X20583810Y2794446D01*
X20513457Y2729167D01*
X20483325Y2708624D01*
X20455504Y2684862D01*
X20386018Y2642282D01*
X20312728Y2592313D01*
X20274197Y2573758D01*
X20238007Y2551580D01*
X20167513Y2522381D01*
X20093846Y2486904D01*
X20046920Y2472430D01*
X20002338Y2453963D01*
X19933381Y2437408D01*
X19861702Y2415298D01*
X19806850Y2407031D01*
X19754300Y2394414D01*
X19689107Y2389284D01*
X19621468Y2379088D01*
X19559566Y2379088D01*
X19500000Y2374400D01*
X19440434Y2379088D01*
X19378532Y2379088D01*
X19310891Y2389284D01*
X19245700Y2394414D01*
X19193150Y2407031D01*
X19138297Y2415298D01*
X19066613Y2437410D01*
X18997662Y2453963D01*
X18953082Y2472429D01*
X18906153Y2486904D01*
X18832481Y2522383D01*
X18761993Y2551580D01*
X18725803Y2573758D01*
X18687272Y2592313D01*
X18613978Y2642284D01*
X18544496Y2684862D01*
X18516677Y2708621D01*
X18486542Y2729167D01*
X18416177Y2794457D01*
X18350527Y2850527D01*
X18330589Y2873872D01*
X18308457Y2894407D01*
X18243741Y2975558D01*
X18184862Y3044496D01*
X18171915Y3065624D01*
X18156981Y3084350D01*
X18100663Y3181896D01*
X18051580Y3261993D01*
X18044369Y3279402D01*
X18035513Y3294741D01*
X17990341Y3409836D01*
X17953963Y3497662D01*
X17950954Y3510193D01*
X17946757Y3520888D01*
X17915319Y3658625D01*
X17894414Y3745700D01*
X17893871Y3752591D01*
X17892697Y3757737D01*
X17877369Y3962266D01*
X17874400Y4000000D01*
X17877369Y4037732D01*
X17892697Y4242264D01*
X17893871Y4247412D01*
X17894414Y4254300D01*
X17915314Y4341357D01*
X17946757Y4479113D01*
X17950955Y4489811D01*
X17953963Y4502338D01*
X17990334Y4590147D01*
X18035513Y4705260D01*
X18044370Y4720603D01*
X18051580Y4738007D01*
X18100653Y4818089D01*
X18156981Y4915651D01*
X18171917Y4934382D01*
X18184862Y4955504D01*
X18243729Y5024429D01*
X18308457Y5105594D01*
X18330593Y5126134D01*
X18350527Y5149473D01*
X18416163Y5205532D01*
X18486542Y5270834D01*
X18516683Y5291384D01*
X18544496Y5315138D01*
X18613963Y5357708D01*
X18687272Y5407688D01*
X18725810Y5426248D01*
X18761993Y5448420D01*
X18832466Y5477612D01*
X18906153Y5513097D01*
X18953092Y5527576D01*
X18997662Y5546037D01*
X19066599Y5562588D01*
X19138297Y5584703D01*
X19193159Y5592973D01*
X19245700Y5605586D01*
X19310887Y5610717D01*
X19378532Y5620912D01*
X19440434Y5620912D01*
X19500000Y5625600D01*
X19559566Y5620912D01*
G37*
G36*
X3774438Y8844633D02*
G01*
X3944050Y8769117D01*
X4094255Y8659987D01*
X4218488Y8522012D01*
X4311320Y8361223D01*
X4368693Y8184646D01*
X4388100Y8000000D01*
X4368693Y7815354D01*
X4311320Y7638777D01*
X4218488Y7477988D01*
X4094255Y7340013D01*
X3944050Y7230883D01*
X3774438Y7155367D01*
X3592832Y7116765D01*
X3407168Y7116765D01*
X3225562Y7155367D01*
X3055950Y7230883D01*
X2905745Y7340013D01*
X2781512Y7477988D01*
X2688680Y7638777D01*
X2631307Y7815354D01*
X2611900Y8000000D01*
X2631307Y8184646D01*
X2688680Y8361223D01*
X2781512Y8522012D01*
X2905745Y8659987D01*
X3055950Y8769117D01*
X3225562Y8844633D01*
X3407168Y8883235D01*
X3592832Y8883235D01*
X3774438Y8844633D01*
G37*
G36*
X10774438Y8844633D02*
G01*
X10944050Y8769117D01*
X11094255Y8659987D01*
X11218488Y8522012D01*
X11311320Y8361223D01*
X11368693Y8184646D01*
X11388100Y8000000D01*
X11368693Y7815354D01*
X11311320Y7638777D01*
X11218488Y7477988D01*
X11094255Y7340013D01*
X10944050Y7230883D01*
X10774438Y7155367D01*
X10592832Y7116765D01*
X10407168Y7116765D01*
X10225562Y7155367D01*
X10055950Y7230883D01*
X9905745Y7340013D01*
X9781512Y7477988D01*
X9688680Y7638777D01*
X9631307Y7815354D01*
X9611900Y8000000D01*
X9631307Y8184646D01*
X9688680Y8361223D01*
X9781512Y8522012D01*
X9905745Y8659987D01*
X10055950Y8769117D01*
X10225562Y8844633D01*
X10407168Y8883235D01*
X10592832Y8883235D01*
X10774438Y8844633D01*
G37*
G36*
X95809566Y13120912D02*
G01*
X95871468Y13120912D01*
X95939111Y13110717D01*
X96004300Y13105586D01*
X96056841Y13092972D01*
X96111702Y13084703D01*
X96183396Y13062589D01*
X96252338Y13046037D01*
X96296910Y13027575D01*
X96343846Y13013097D01*
X96417528Y12977614D01*
X96488007Y12948420D01*
X96524189Y12926248D01*
X96562728Y12907688D01*
X96636032Y12857710D01*
X96705504Y12815138D01*
X96733319Y12791382D01*
X96763457Y12770834D01*
X96833823Y12705543D01*
X96899473Y12649473D01*
X96919410Y12626130D01*
X96941542Y12605594D01*
X97006255Y12524447D01*
X97065138Y12455504D01*
X97078085Y12434376D01*
X97093018Y12415651D01*
X97149329Y12318117D01*
X97198420Y12238007D01*
X97205631Y12220597D01*
X97214486Y12205260D01*
X97259646Y12090193D01*
X97296037Y12002338D01*
X97299046Y11989804D01*
X97303242Y11979113D01*
X97334665Y11841441D01*
X97355586Y11754300D01*
X97356128Y11747405D01*
X97357302Y11742264D01*
X97372609Y11537998D01*
X97375600Y11500000D01*
X97372609Y11462000D01*
X97357302Y11257737D01*
X97356128Y11252597D01*
X97355586Y11245700D01*
X97334660Y11158540D01*
X97303242Y11020888D01*
X97299046Y11010200D01*
X97296037Y10997662D01*
X97259639Y10909790D01*
X97214486Y10794741D01*
X97205633Y10779408D01*
X97198420Y10761993D01*
X97149319Y10681868D01*
X97093018Y10584350D01*
X97078088Y10565629D01*
X97065138Y10544496D01*
X97006243Y10475540D01*
X96941542Y10394407D01*
X96919414Y10373876D01*
X96899473Y10350527D01*
X96833810Y10294446D01*
X96763457Y10229167D01*
X96733325Y10208624D01*
X96705504Y10184862D01*
X96636018Y10142282D01*
X96562728Y10092313D01*
X96524197Y10073758D01*
X96488007Y10051580D01*
X96417513Y10022381D01*
X96343846Y9986904D01*
X96296920Y9972430D01*
X96252338Y9953963D01*
X96183381Y9937408D01*
X96111702Y9915298D01*
X96056850Y9907031D01*
X96004300Y9894414D01*
X95939107Y9889284D01*
X95871468Y9879088D01*
X95809566Y9879088D01*
X95750000Y9874400D01*
X95690434Y9879088D01*
X95628532Y9879088D01*
X95560891Y9889284D01*
X95495700Y9894414D01*
X95443150Y9907031D01*
X95388297Y9915298D01*
X95316613Y9937410D01*
X95247662Y9953963D01*
X95203082Y9972429D01*
X95156153Y9986904D01*
X95082481Y10022383D01*
X95011993Y10051580D01*
X94975803Y10073758D01*
X94937272Y10092313D01*
X94863978Y10142284D01*
X94794496Y10184862D01*
X94766677Y10208621D01*
X94736542Y10229167D01*
X94666177Y10294457D01*
X94600527Y10350527D01*
X94580589Y10373872D01*
X94558457Y10394407D01*
X94493741Y10475558D01*
X94434862Y10544496D01*
X94421915Y10565624D01*
X94406981Y10584350D01*
X94350663Y10681896D01*
X94301580Y10761993D01*
X94294369Y10779402D01*
X94285513Y10794741D01*
X94240341Y10909836D01*
X94203963Y10997662D01*
X94200954Y11010193D01*
X94196757Y11020888D01*
X94165319Y11158625D01*
X94144414Y11245700D01*
X94143871Y11252591D01*
X94142697Y11257737D01*
X94127369Y11462266D01*
X94124400Y11500000D01*
X94127369Y11537732D01*
X94142697Y11742264D01*
X94143871Y11747412D01*
X94144414Y11754300D01*
X94165314Y11841357D01*
X94196757Y11979113D01*
X94200955Y11989811D01*
X94203963Y12002338D01*
X94240334Y12090147D01*
X94285513Y12205260D01*
X94294370Y12220603D01*
X94301580Y12238007D01*
X94350653Y12318089D01*
X94406981Y12415651D01*
X94421917Y12434382D01*
X94434862Y12455504D01*
X94493729Y12524429D01*
X94558457Y12605594D01*
X94580593Y12626134D01*
X94600527Y12649473D01*
X94666163Y12705532D01*
X94736542Y12770834D01*
X94766683Y12791384D01*
X94794496Y12815138D01*
X94863963Y12857708D01*
X94937272Y12907688D01*
X94975810Y12926248D01*
X95011993Y12948420D01*
X95082466Y12977612D01*
X95156153Y13013097D01*
X95203092Y13027576D01*
X95247662Y13046037D01*
X95316599Y13062588D01*
X95388297Y13084703D01*
X95443159Y13092973D01*
X95495700Y13105586D01*
X95560887Y13110717D01*
X95628532Y13120912D01*
X95690434Y13120912D01*
X95750000Y13125600D01*
X95809566Y13120912D01*
G37*
G36*
X74864580Y13485200D02*
G01*
X74876941Y13476941D01*
X74885200Y13464580D01*
X74888100Y13450000D01*
X74888100Y11750000D01*
X74885200Y11735420D01*
X74876941Y11723059D01*
X74864580Y11714800D01*
X74850000Y11711900D01*
X73150000Y11711900D01*
X73135420Y11714800D01*
X73123059Y11723059D01*
X73114800Y11735420D01*
X73111900Y11750000D01*
X73111900Y13450000D01*
X73114800Y13464580D01*
X73123059Y13476941D01*
X73135420Y13485200D01*
X73150000Y13488100D01*
X74850000Y13488100D01*
X74864580Y13485200D01*
G37*
G36*
X61574438Y13444633D02*
G01*
X61744050Y13369117D01*
X61894255Y13259987D01*
X62018488Y13122012D01*
X62111320Y12961223D01*
X62168693Y12784646D01*
X62188100Y12600000D01*
X62168693Y12415354D01*
X62111320Y12238777D01*
X62018488Y12077988D01*
X61894255Y11940013D01*
X61744050Y11830883D01*
X61574438Y11755367D01*
X61392832Y11716765D01*
X61207168Y11716765D01*
X61025562Y11755367D01*
X60855950Y11830883D01*
X60705745Y11940013D01*
X60581512Y12077988D01*
X60488680Y12238777D01*
X60431307Y12415354D01*
X60411900Y12600000D01*
X60431307Y12784646D01*
X60488680Y12961223D01*
X60581512Y13122012D01*
X60705745Y13259987D01*
X60855950Y13369117D01*
X61025562Y13444633D01*
X61207168Y13483235D01*
X61392832Y13483235D01*
X61574438Y13444633D01*
G37*
G36*
X64114438Y13444633D02*
G01*
X64284050Y13369117D01*
X64434255Y13259987D01*
X64558488Y13122012D01*
X64651320Y12961223D01*
X64708693Y12784646D01*
X64728100Y12600000D01*
X64708693Y12415354D01*
X64651320Y12238777D01*
X64558488Y12077988D01*
X64434255Y11940013D01*
X64284050Y11830883D01*
X64114438Y11755367D01*
X63932832Y11716765D01*
X63747168Y11716765D01*
X63565562Y11755367D01*
X63395950Y11830883D01*
X63245745Y11940013D01*
X63121512Y12077988D01*
X63028680Y12238777D01*
X62971307Y12415354D01*
X62951900Y12600000D01*
X62971307Y12784646D01*
X63028680Y12961223D01*
X63121512Y13122012D01*
X63245745Y13259987D01*
X63395950Y13369117D01*
X63565562Y13444633D01*
X63747168Y13483235D01*
X63932832Y13483235D01*
X64114438Y13444633D01*
G37*
G36*
X66654438Y13444633D02*
G01*
X66824050Y13369117D01*
X66974255Y13259987D01*
X67098488Y13122012D01*
X67191320Y12961223D01*
X67248693Y12784646D01*
X67268100Y12600000D01*
X67248693Y12415354D01*
X67191320Y12238777D01*
X67098488Y12077988D01*
X66974255Y11940013D01*
X66824050Y11830883D01*
X66654438Y11755367D01*
X66472832Y11716765D01*
X66287168Y11716765D01*
X66105562Y11755367D01*
X65935950Y11830883D01*
X65785745Y11940013D01*
X65661512Y12077988D01*
X65568680Y12238777D01*
X65511307Y12415354D01*
X65491900Y12600000D01*
X65511307Y12784646D01*
X65568680Y12961223D01*
X65661512Y13122012D01*
X65785745Y13259987D01*
X65935950Y13369117D01*
X66105562Y13444633D01*
X66287168Y13483235D01*
X66472832Y13483235D01*
X66654438Y13444633D01*
G37*
G36*
X69194438Y13444633D02*
G01*
X69364050Y13369117D01*
X69514255Y13259987D01*
X69638488Y13122012D01*
X69731320Y12961223D01*
X69788693Y12784646D01*
X69808100Y12600000D01*
X69788693Y12415354D01*
X69731320Y12238777D01*
X69638488Y12077988D01*
X69514255Y11940013D01*
X69364050Y11830883D01*
X69194438Y11755367D01*
X69012832Y11716765D01*
X68827168Y11716765D01*
X68645562Y11755367D01*
X68475950Y11830883D01*
X68325745Y11940013D01*
X68201512Y12077988D01*
X68108680Y12238777D01*
X68051307Y12415354D01*
X68031900Y12600000D01*
X68051307Y12784646D01*
X68108680Y12961223D01*
X68201512Y13122012D01*
X68325745Y13259987D01*
X68475950Y13369117D01*
X68645562Y13444633D01*
X68827168Y13483235D01*
X69012832Y13483235D01*
X69194438Y13444633D01*
G37*
G36*
X71734438Y13444633D02*
G01*
X71904050Y13369117D01*
X72054255Y13259987D01*
X72178488Y13122012D01*
X72271320Y12961223D01*
X72328693Y12784646D01*
X72348100Y12600000D01*
X72328693Y12415354D01*
X72271320Y12238777D01*
X72178488Y12077988D01*
X72054255Y11940013D01*
X71904050Y11830883D01*
X71734438Y11755367D01*
X71552832Y11716765D01*
X71367168Y11716765D01*
X71185562Y11755367D01*
X71015950Y11830883D01*
X70865745Y11940013D01*
X70741512Y12077988D01*
X70648680Y12238777D01*
X70591307Y12415354D01*
X70571900Y12600000D01*
X70591307Y12784646D01*
X70648680Y12961223D01*
X70741512Y13122012D01*
X70865745Y13259987D01*
X71015950Y13369117D01*
X71185562Y13444633D01*
X71367168Y13483235D01*
X71552832Y13483235D01*
X71734438Y13444633D01*
G37*
G36*
X3774438Y26844633D02*
G01*
X3944050Y26769117D01*
X4094255Y26659987D01*
X4218488Y26522012D01*
X4311320Y26361223D01*
X4368693Y26184646D01*
X4388100Y26000000D01*
X4368693Y25815354D01*
X4311320Y25638777D01*
X4218488Y25477988D01*
X4094255Y25340013D01*
X3944050Y25230883D01*
X3774438Y25155367D01*
X3592832Y25116765D01*
X3407168Y25116765D01*
X3225562Y25155367D01*
X3055950Y25230883D01*
X2905745Y25340013D01*
X2781512Y25477988D01*
X2688680Y25638777D01*
X2631307Y25815354D01*
X2611900Y26000000D01*
X2631307Y26184646D01*
X2688680Y26361223D01*
X2781512Y26522012D01*
X2905745Y26659987D01*
X3055950Y26769117D01*
X3225562Y26844633D01*
X3407168Y26883235D01*
X3592832Y26883235D01*
X3774438Y26844633D01*
G37*
G36*
X10774438Y26844633D02*
G01*
X10944050Y26769117D01*
X11094255Y26659987D01*
X11218488Y26522012D01*
X11311320Y26361223D01*
X11368693Y26184646D01*
X11388100Y26000000D01*
X11368693Y25815354D01*
X11311320Y25638777D01*
X11218488Y25477988D01*
X11094255Y25340013D01*
X10944050Y25230883D01*
X10774438Y25155367D01*
X10592832Y25116765D01*
X10407168Y25116765D01*
X10225562Y25155367D01*
X10055950Y25230883D01*
X9905745Y25340013D01*
X9781512Y25477988D01*
X9688680Y25638777D01*
X9631307Y25815354D01*
X9611900Y26000000D01*
X9631307Y26184646D01*
X9688680Y26361223D01*
X9781512Y26522012D01*
X9905745Y26659987D01*
X10055950Y26769117D01*
X10225562Y26844633D01*
X10407168Y26883235D01*
X10592832Y26883235D01*
X10774438Y26844633D01*
G37*
G36*
X54320612Y36139163D02*
G01*
X54555299Y36082820D01*
X54778283Y35990457D01*
X54984072Y35864349D01*
X55167601Y35707601D01*
X55324349Y35524072D01*
X55450457Y35318283D01*
X55542820Y35095299D01*
X55599163Y34860612D01*
X55618100Y34620000D01*
X55599163Y34379388D01*
X55542820Y34144701D01*
X55450457Y33921717D01*
X55324349Y33715928D01*
X55167601Y33532399D01*
X54984072Y33375651D01*
X54778283Y33249543D01*
X54555299Y33157180D01*
X54320612Y33100837D01*
X54080000Y33081900D01*
X53839388Y33100837D01*
X53604701Y33157180D01*
X53381717Y33249543D01*
X53175928Y33375651D01*
X52992399Y33532399D01*
X52835651Y33715928D01*
X52709543Y33921717D01*
X52617180Y34144701D01*
X52560837Y34379388D01*
X52541900Y34620000D01*
X52560837Y34860612D01*
X52617180Y35095299D01*
X52709543Y35318283D01*
X52835651Y35524072D01*
X52992399Y35707601D01*
X53175928Y35864349D01*
X53381717Y35990457D01*
X53604701Y36082820D01*
X53839388Y36139163D01*
X54080000Y36158100D01*
X54320612Y36139163D01*
G37*
G36*
X90738092Y40368100D02*
G01*
X90803625Y40368100D01*
X90862801Y40359181D01*
X90924458Y40354771D01*
X90997550Y40338871D01*
X91067890Y40328269D01*
X91119574Y40312327D01*
X91173728Y40300546D01*
X91250046Y40272081D01*
X91323266Y40249495D01*
X91366771Y40228545D01*
X91412752Y40211394D01*
X91490199Y40169105D01*
X91564050Y40133540D01*
X91599123Y40109628D01*
X91636645Y40089139D01*
X91712893Y40032061D01*
X91784862Y39982993D01*
X91811678Y39958111D01*
X91840876Y39936254D01*
X91913438Y39863692D01*
X91980770Y39801217D01*
X91999895Y39777235D01*
X92021253Y39755877D01*
X92087484Y39667402D01*
X92147398Y39592273D01*
X92159781Y39570825D01*
X92174138Y39551646D01*
X92231422Y39446737D01*
X92281022Y39360828D01*
X92287895Y39343316D01*
X92296393Y39327753D01*
X92342129Y39205130D01*
X92378660Y39112052D01*
X92381520Y39099519D01*
X92385545Y39088729D01*
X92417281Y38942840D01*
X92438128Y38851502D01*
X92438641Y38844645D01*
X92439770Y38839459D01*
X92455230Y38623294D01*
X92458100Y38585000D01*
X92455229Y38546703D01*
X92439770Y38330542D01*
X92438641Y38325357D01*
X92438128Y38318498D01*
X92417276Y38227140D01*
X92385545Y38081272D01*
X92381521Y38070484D01*
X92378660Y38057948D01*
X92342121Y37964852D01*
X92296393Y37842248D01*
X92287896Y37826688D01*
X92281022Y37809172D01*
X92231412Y37723246D01*
X92174138Y37618355D01*
X92159783Y37599181D01*
X92147398Y37577727D01*
X92087472Y37502583D01*
X92021253Y37414124D01*
X91999899Y37392771D01*
X91980770Y37368783D01*
X91913424Y37306296D01*
X91840876Y37233747D01*
X91811684Y37211895D01*
X91784862Y37187007D01*
X91712878Y37137930D01*
X91636645Y37080862D01*
X91599130Y37060378D01*
X91564050Y37036460D01*
X91490184Y37000889D01*
X91412752Y36958607D01*
X91366780Y36941461D01*
X91323266Y36920505D01*
X91250030Y36897915D01*
X91173728Y36869455D01*
X91119585Y36857678D01*
X91067890Y36841731D01*
X90997535Y36831127D01*
X90924458Y36815230D01*
X90862813Y36810822D01*
X90803625Y36801900D01*
X90738078Y36801900D01*
X90670000Y36797031D01*
X90601921Y36801900D01*
X90536375Y36801900D01*
X90477186Y36810822D01*
X90415541Y36815230D01*
X90342461Y36831128D01*
X90272110Y36841731D01*
X90220417Y36857677D01*
X90166271Y36869455D01*
X90089963Y36897917D01*
X90016734Y36920505D01*
X89973222Y36941459D01*
X89927247Y36958607D01*
X89849807Y37000893D01*
X89775950Y37036460D01*
X89740873Y37060375D01*
X89703354Y37080862D01*
X89627110Y37137937D01*
X89555138Y37187007D01*
X89528320Y37211891D01*
X89499123Y37233747D01*
X89426561Y37306309D01*
X89359230Y37368783D01*
X89340104Y37392766D01*
X89318746Y37414124D01*
X89252511Y37502604D01*
X89192602Y37577727D01*
X89180219Y37599175D01*
X89165861Y37618355D01*
X89108568Y37723278D01*
X89058978Y37809172D01*
X89052106Y37826682D01*
X89043606Y37842248D01*
X88997857Y37964903D01*
X88961340Y38057948D01*
X88958480Y38070477D01*
X88954454Y38081272D01*
X88922702Y38227234D01*
X88901872Y38318498D01*
X88901358Y38325350D01*
X88900229Y38330542D01*
X88884748Y38546996D01*
X88881900Y38585000D01*
X88884747Y38623002D01*
X88900229Y38839459D01*
X88901358Y38844652D01*
X88901872Y38851502D01*
X88922697Y38942747D01*
X88954454Y39088729D01*
X88958480Y39099526D01*
X88961340Y39112052D01*
X88997850Y39205079D01*
X89043606Y39327753D01*
X89052107Y39343323D01*
X89058978Y39360828D01*
X89108558Y39446705D01*
X89165861Y39551646D01*
X89180222Y39570831D01*
X89192602Y39592273D01*
X89252499Y39667382D01*
X89318746Y39755877D01*
X89340108Y39777240D01*
X89359230Y39801217D01*
X89426547Y39863679D01*
X89499123Y39936254D01*
X89528325Y39958115D01*
X89555138Y39982993D01*
X89627095Y40032053D01*
X89703354Y40089139D01*
X89740880Y40109631D01*
X89775950Y40133540D01*
X89849791Y40169101D01*
X89927247Y40211394D01*
X89973232Y40228546D01*
X90016734Y40249495D01*
X90089948Y40272079D01*
X90166271Y40300546D01*
X90220428Y40312328D01*
X90272110Y40328269D01*
X90342446Y40338871D01*
X90415541Y40354771D01*
X90477199Y40359181D01*
X90536375Y40368100D01*
X90601908Y40368100D01*
X90670000Y40372970D01*
X90738092Y40368100D01*
G37*
G36*
X98062077Y40506591D02*
G01*
X98224050Y40434476D01*
X98367490Y40330261D01*
X98486127Y40198501D01*
X98574778Y40044953D01*
X98629567Y39876330D01*
X98648100Y39700000D01*
X98629567Y39523670D01*
X98574778Y39355047D01*
X98486127Y39201499D01*
X98367490Y39069739D01*
X98224050Y38965524D01*
X98062077Y38893409D01*
X97888651Y38856546D01*
X97711349Y38856546D01*
X97537923Y38893409D01*
X97375950Y38965524D01*
X97232510Y39069739D01*
X97113873Y39201499D01*
X97025222Y39355047D01*
X96970433Y39523670D01*
X96951900Y39700000D01*
X96970433Y39876330D01*
X97025222Y40044953D01*
X97113873Y40198501D01*
X97232510Y40330261D01*
X97375950Y40434476D01*
X97537923Y40506591D01*
X97711349Y40543454D01*
X97888651Y40543454D01*
X98062077Y40506591D01*
G37*
G36*
X94090075Y42236403D02*
G01*
X94327599Y42163136D01*
X94551550Y42055287D01*
X94756926Y41915264D01*
X94939139Y41746195D01*
X95094118Y41551858D01*
X95218401Y41336592D01*
X95309213Y41105207D01*
X95364525Y40862872D01*
X95383100Y40615000D01*
X95364525Y40367128D01*
X95309213Y40124793D01*
X95218401Y39893408D01*
X95094118Y39678142D01*
X94939139Y39483805D01*
X94756926Y39314736D01*
X94551550Y39174713D01*
X94327599Y39066864D01*
X94090075Y38993597D01*
X93844284Y38956550D01*
X93595716Y38956550D01*
X93349925Y38993597D01*
X93112401Y39066864D01*
X92888450Y39174713D01*
X92683074Y39314736D01*
X92500861Y39483805D01*
X92345882Y39678142D01*
X92221599Y39893408D01*
X92130787Y40124793D01*
X92075475Y40367128D01*
X92056900Y40615000D01*
X92075475Y40862872D01*
X92130787Y41105207D01*
X92221599Y41336592D01*
X92345882Y41551858D01*
X92500861Y41746195D01*
X92683074Y41915264D01*
X92888450Y42055287D01*
X93112401Y42163136D01*
X93349925Y42236403D01*
X93595716Y42273450D01*
X93844284Y42273450D01*
X94090075Y42236403D01*
G37*
G36*
X84870791Y41398504D02*
G01*
X84912349Y41398504D01*
X84959226Y41388540D01*
X85005369Y41383341D01*
X85038923Y41371600D01*
X85073450Y41364261D01*
X85123210Y41342107D01*
X85171944Y41325054D01*
X85197306Y41309118D01*
X85223910Y41297273D01*
X85273522Y41261228D01*
X85321372Y41231161D01*
X85338554Y41213979D01*
X85357154Y41200465D01*
X85403135Y41149398D01*
X85446161Y41106372D01*
X85456057Y41090622D01*
X85467361Y41078068D01*
X85506018Y41011111D01*
X85540054Y40956944D01*
X85544304Y40944797D01*
X85549707Y40935439D01*
X85577378Y40850278D01*
X85598341Y40790369D01*
X85599135Y40783316D01*
X85600604Y40778797D01*
X85613918Y40652114D01*
X85618100Y40615000D01*
X85613918Y40577884D01*
X85600604Y40451204D01*
X85599135Y40446686D01*
X85598341Y40439631D01*
X85577373Y40379710D01*
X85549707Y40294562D01*
X85544305Y40285207D01*
X85540054Y40273056D01*
X85506011Y40218879D01*
X85467361Y40151933D01*
X85456060Y40139383D01*
X85446161Y40123628D01*
X85403126Y40080594D01*
X85357154Y40029536D01*
X85338558Y40016026D01*
X85321372Y39998839D01*
X85273512Y39968767D01*
X85223910Y39932728D01*
X85197312Y39920887D01*
X85171944Y39904946D01*
X85123200Y39887890D01*
X85073450Y39865740D01*
X85038929Y39858403D01*
X85005369Y39846659D01*
X84959223Y39841460D01*
X84912349Y39831496D01*
X84870791Y39831496D01*
X84830000Y39826900D01*
X84789209Y39831496D01*
X84747651Y39831496D01*
X84700775Y39841460D01*
X84654631Y39846659D01*
X84621072Y39858402D01*
X84586549Y39865740D01*
X84536795Y39887892D01*
X84488056Y39904946D01*
X84462690Y39920885D01*
X84436089Y39932728D01*
X84386480Y39968771D01*
X84338628Y39998839D01*
X84321444Y40016023D01*
X84302845Y40029536D01*
X84256863Y40080604D01*
X84213839Y40123628D01*
X84203942Y40139379D01*
X84192638Y40151933D01*
X84153976Y40218898D01*
X84119946Y40273056D01*
X84115695Y40285203D01*
X84110292Y40294562D01*
X84082612Y40379750D01*
X84061659Y40439631D01*
X84060864Y40446681D01*
X84059395Y40451204D01*
X84046067Y40578016D01*
X84041900Y40615000D01*
X84046066Y40651982D01*
X84059395Y40778797D01*
X84060864Y40783321D01*
X84061659Y40790369D01*
X84082607Y40850238D01*
X84110292Y40935439D01*
X84115696Y40944801D01*
X84119946Y40956944D01*
X84153969Y41011091D01*
X84192638Y41078068D01*
X84203944Y41090625D01*
X84213839Y41106372D01*
X84256854Y41149388D01*
X84302845Y41200465D01*
X84321447Y41213981D01*
X84338628Y41231161D01*
X84386474Y41261226D01*
X84436090Y41297273D01*
X84462693Y41309118D01*
X84488056Y41325054D01*
X84536786Y41342106D01*
X84586549Y41364261D01*
X84621077Y41371601D01*
X84654631Y41383341D01*
X84700773Y41388540D01*
X84747651Y41398504D01*
X84789209Y41398504D01*
X84830000Y41403100D01*
X84870791Y41398504D01*
G37*
G36*
X87410791Y42668504D02*
G01*
X87452349Y42668504D01*
X87499226Y42658540D01*
X87545369Y42653341D01*
X87578923Y42641600D01*
X87613450Y42634261D01*
X87663210Y42612107D01*
X87711944Y42595054D01*
X87737306Y42579118D01*
X87763910Y42567273D01*
X87813522Y42531228D01*
X87861372Y42501161D01*
X87878554Y42483979D01*
X87897154Y42470465D01*
X87943135Y42419398D01*
X87986161Y42376372D01*
X87996057Y42360622D01*
X88007361Y42348068D01*
X88046018Y42281111D01*
X88080054Y42226944D01*
X88084304Y42214797D01*
X88089707Y42205439D01*
X88117378Y42120278D01*
X88138341Y42060369D01*
X88139135Y42053316D01*
X88140604Y42048797D01*
X88153918Y41922114D01*
X88158100Y41885000D01*
X88153918Y41847884D01*
X88140604Y41721204D01*
X88139135Y41716686D01*
X88138341Y41709631D01*
X88117373Y41649710D01*
X88089707Y41564562D01*
X88084305Y41555207D01*
X88080054Y41543056D01*
X88046011Y41488879D01*
X88007361Y41421933D01*
X87996060Y41409383D01*
X87986161Y41393628D01*
X87943126Y41350594D01*
X87897154Y41299536D01*
X87878558Y41286026D01*
X87861372Y41268839D01*
X87813512Y41238767D01*
X87763910Y41202728D01*
X87737312Y41190887D01*
X87711944Y41174946D01*
X87663200Y41157890D01*
X87613450Y41135740D01*
X87578929Y41128403D01*
X87545369Y41116659D01*
X87499223Y41111460D01*
X87452349Y41101496D01*
X87410791Y41101496D01*
X87370000Y41096900D01*
X87329209Y41101496D01*
X87287651Y41101496D01*
X87240775Y41111460D01*
X87194631Y41116659D01*
X87161072Y41128402D01*
X87126549Y41135740D01*
X87076795Y41157892D01*
X87028056Y41174946D01*
X87002690Y41190885D01*
X86976089Y41202728D01*
X86926480Y41238771D01*
X86878628Y41268839D01*
X86861444Y41286023D01*
X86842845Y41299536D01*
X86796863Y41350604D01*
X86753839Y41393628D01*
X86743942Y41409379D01*
X86732638Y41421933D01*
X86693976Y41488898D01*
X86659946Y41543056D01*
X86655695Y41555203D01*
X86650292Y41564562D01*
X86622612Y41649750D01*
X86601659Y41709631D01*
X86600864Y41716681D01*
X86599395Y41721204D01*
X86586067Y41848016D01*
X86581900Y41885000D01*
X86586066Y41921982D01*
X86599395Y42048797D01*
X86600864Y42053321D01*
X86601659Y42060369D01*
X86622607Y42120238D01*
X86650292Y42205439D01*
X86655696Y42214801D01*
X86659946Y42226944D01*
X86693969Y42281091D01*
X86732638Y42348068D01*
X86743944Y42360625D01*
X86753839Y42376372D01*
X86796854Y42419388D01*
X86842845Y42470465D01*
X86861447Y42483981D01*
X86878628Y42501161D01*
X86926474Y42531226D01*
X86976090Y42567273D01*
X87002693Y42579118D01*
X87028056Y42595054D01*
X87076786Y42612106D01*
X87126549Y42634261D01*
X87161077Y42641601D01*
X87194631Y42653341D01*
X87240773Y42658540D01*
X87287651Y42668504D01*
X87329209Y42668504D01*
X87370000Y42673100D01*
X87410791Y42668504D01*
G37*
G36*
X98062077Y43046591D02*
G01*
X98224050Y42974476D01*
X98367490Y42870261D01*
X98486127Y42738501D01*
X98574778Y42584953D01*
X98629567Y42416330D01*
X98648100Y42240000D01*
X98629567Y42063670D01*
X98574778Y41895047D01*
X98486127Y41741499D01*
X98367490Y41609739D01*
X98224050Y41505524D01*
X98062077Y41433409D01*
X97888651Y41396546D01*
X97711349Y41396546D01*
X97537923Y41433409D01*
X97375950Y41505524D01*
X97232510Y41609739D01*
X97113873Y41741499D01*
X97025222Y41895047D01*
X96970433Y42063670D01*
X96951900Y42240000D01*
X96970433Y42416330D01*
X97025222Y42584953D01*
X97113873Y42738501D01*
X97232510Y42870261D01*
X97375950Y42974476D01*
X97537923Y43046591D01*
X97711349Y43083454D01*
X97888651Y43083454D01*
X98062077Y43046591D01*
G37*
G36*
X84870791Y43938504D02*
G01*
X84912349Y43938504D01*
X84959226Y43928540D01*
X85005369Y43923341D01*
X85038923Y43911600D01*
X85073450Y43904261D01*
X85123210Y43882107D01*
X85171944Y43865054D01*
X85197306Y43849118D01*
X85223910Y43837273D01*
X85273522Y43801228D01*
X85321372Y43771161D01*
X85338554Y43753979D01*
X85357154Y43740465D01*
X85403135Y43689398D01*
X85446161Y43646372D01*
X85456057Y43630622D01*
X85467361Y43618068D01*
X85506018Y43551111D01*
X85540054Y43496944D01*
X85544304Y43484797D01*
X85549707Y43475439D01*
X85577378Y43390278D01*
X85598341Y43330369D01*
X85599135Y43323316D01*
X85600604Y43318797D01*
X85613918Y43192114D01*
X85618100Y43155000D01*
X85613918Y43117884D01*
X85600604Y42991204D01*
X85599135Y42986686D01*
X85598341Y42979631D01*
X85577373Y42919710D01*
X85549707Y42834562D01*
X85544305Y42825207D01*
X85540054Y42813056D01*
X85506011Y42758879D01*
X85467361Y42691933D01*
X85456060Y42679383D01*
X85446161Y42663628D01*
X85403126Y42620594D01*
X85357154Y42569536D01*
X85338558Y42556026D01*
X85321372Y42538839D01*
X85273512Y42508767D01*
X85223910Y42472728D01*
X85197312Y42460887D01*
X85171944Y42444946D01*
X85123200Y42427890D01*
X85073450Y42405740D01*
X85038929Y42398403D01*
X85005369Y42386659D01*
X84959223Y42381460D01*
X84912349Y42371496D01*
X84870791Y42371496D01*
X84830000Y42366900D01*
X84789209Y42371496D01*
X84747651Y42371496D01*
X84700775Y42381460D01*
X84654631Y42386659D01*
X84621072Y42398402D01*
X84586549Y42405740D01*
X84536795Y42427892D01*
X84488056Y42444946D01*
X84462690Y42460885D01*
X84436089Y42472728D01*
X84386480Y42508771D01*
X84338628Y42538839D01*
X84321444Y42556023D01*
X84302845Y42569536D01*
X84256863Y42620604D01*
X84213839Y42663628D01*
X84203942Y42679379D01*
X84192638Y42691933D01*
X84153976Y42758898D01*
X84119946Y42813056D01*
X84115695Y42825203D01*
X84110292Y42834562D01*
X84082612Y42919750D01*
X84061659Y42979631D01*
X84060864Y42986681D01*
X84059395Y42991204D01*
X84046067Y43118016D01*
X84041900Y43155000D01*
X84046066Y43191982D01*
X84059395Y43318797D01*
X84060864Y43323321D01*
X84061659Y43330369D01*
X84082607Y43390238D01*
X84110292Y43475439D01*
X84115696Y43484801D01*
X84119946Y43496944D01*
X84153969Y43551091D01*
X84192638Y43618068D01*
X84203944Y43630625D01*
X84213839Y43646372D01*
X84256854Y43689388D01*
X84302845Y43740465D01*
X84321447Y43753981D01*
X84338628Y43771161D01*
X84386474Y43801226D01*
X84436090Y43837273D01*
X84462693Y43849118D01*
X84488056Y43865054D01*
X84536786Y43882106D01*
X84586549Y43904261D01*
X84621077Y43911601D01*
X84654631Y43923341D01*
X84700773Y43928540D01*
X84747651Y43938504D01*
X84789209Y43938504D01*
X84830000Y43943100D01*
X84870791Y43938504D01*
G37*
G36*
X3774438Y44844633D02*
G01*
X3944050Y44769117D01*
X4094255Y44659987D01*
X4218488Y44522012D01*
X4311320Y44361223D01*
X4368693Y44184646D01*
X4388100Y44000000D01*
X4368693Y43815354D01*
X4311320Y43638777D01*
X4218488Y43477988D01*
X4094255Y43340013D01*
X3944050Y43230883D01*
X3774438Y43155367D01*
X3592832Y43116765D01*
X3407168Y43116765D01*
X3225562Y43155367D01*
X3055950Y43230883D01*
X2905745Y43340013D01*
X2781512Y43477988D01*
X2688680Y43638777D01*
X2631307Y43815354D01*
X2611900Y44000000D01*
X2631307Y44184646D01*
X2688680Y44361223D01*
X2781512Y44522012D01*
X2905745Y44659987D01*
X3055950Y44769117D01*
X3225562Y44844633D01*
X3407168Y44883235D01*
X3592832Y44883235D01*
X3774438Y44844633D01*
G37*
G36*
X10774438Y44844633D02*
G01*
X10944050Y44769117D01*
X11094255Y44659987D01*
X11218488Y44522012D01*
X11311320Y44361223D01*
X11368693Y44184646D01*
X11388100Y44000000D01*
X11368693Y43815354D01*
X11311320Y43638777D01*
X11218488Y43477988D01*
X11094255Y43340013D01*
X10944050Y43230883D01*
X10774438Y43155367D01*
X10592832Y43116765D01*
X10407168Y43116765D01*
X10225562Y43155367D01*
X10055950Y43230883D01*
X9905745Y43340013D01*
X9781512Y43477988D01*
X9688680Y43638777D01*
X9631307Y43815354D01*
X9611900Y44000000D01*
X9631307Y44184646D01*
X9688680Y44361223D01*
X9781512Y44522012D01*
X9905745Y44659987D01*
X10055950Y44769117D01*
X10225562Y44844633D01*
X10407168Y44883235D01*
X10592832Y44883235D01*
X10774438Y44844633D01*
G37*
G36*
X87410791Y45208504D02*
G01*
X87452349Y45208504D01*
X87499226Y45198540D01*
X87545369Y45193341D01*
X87578923Y45181600D01*
X87613450Y45174261D01*
X87663210Y45152107D01*
X87711944Y45135054D01*
X87737306Y45119118D01*
X87763910Y45107273D01*
X87813522Y45071228D01*
X87861372Y45041161D01*
X87878554Y45023979D01*
X87897154Y45010465D01*
X87943135Y44959398D01*
X87986161Y44916372D01*
X87996057Y44900622D01*
X88007361Y44888068D01*
X88046018Y44821111D01*
X88080054Y44766944D01*
X88084304Y44754797D01*
X88089707Y44745439D01*
X88117378Y44660278D01*
X88138341Y44600369D01*
X88139135Y44593316D01*
X88140604Y44588797D01*
X88153918Y44462114D01*
X88158100Y44425000D01*
X88153918Y44387884D01*
X88140604Y44261204D01*
X88139135Y44256686D01*
X88138341Y44249631D01*
X88117373Y44189710D01*
X88089707Y44104562D01*
X88084305Y44095207D01*
X88080054Y44083056D01*
X88046011Y44028879D01*
X88007361Y43961933D01*
X87996060Y43949383D01*
X87986161Y43933628D01*
X87943126Y43890594D01*
X87897154Y43839536D01*
X87878558Y43826026D01*
X87861372Y43808839D01*
X87813512Y43778767D01*
X87763910Y43742728D01*
X87737312Y43730887D01*
X87711944Y43714946D01*
X87663200Y43697890D01*
X87613450Y43675740D01*
X87578929Y43668403D01*
X87545369Y43656659D01*
X87499223Y43651460D01*
X87452349Y43641496D01*
X87410791Y43641496D01*
X87370000Y43636900D01*
X87329209Y43641496D01*
X87287651Y43641496D01*
X87240775Y43651460D01*
X87194631Y43656659D01*
X87161072Y43668402D01*
X87126549Y43675740D01*
X87076795Y43697892D01*
X87028056Y43714946D01*
X87002690Y43730885D01*
X86976089Y43742728D01*
X86926480Y43778771D01*
X86878628Y43808839D01*
X86861444Y43826023D01*
X86842845Y43839536D01*
X86796863Y43890604D01*
X86753839Y43933628D01*
X86743942Y43949379D01*
X86732638Y43961933D01*
X86693976Y44028898D01*
X86659946Y44083056D01*
X86655695Y44095203D01*
X86650292Y44104562D01*
X86622612Y44189750D01*
X86601659Y44249631D01*
X86600864Y44256681D01*
X86599395Y44261204D01*
X86586067Y44388016D01*
X86581900Y44425000D01*
X86586066Y44461982D01*
X86599395Y44588797D01*
X86600864Y44593321D01*
X86601659Y44600369D01*
X86622607Y44660238D01*
X86650292Y44745439D01*
X86655696Y44754801D01*
X86659946Y44766944D01*
X86693969Y44821091D01*
X86732638Y44888068D01*
X86743944Y44900625D01*
X86753839Y44916372D01*
X86796854Y44959388D01*
X86842845Y45010465D01*
X86861447Y45023981D01*
X86878628Y45041161D01*
X86926474Y45071226D01*
X86976090Y45107273D01*
X87002693Y45119118D01*
X87028056Y45135054D01*
X87076786Y45152106D01*
X87126549Y45174261D01*
X87161077Y45181601D01*
X87194631Y45193341D01*
X87240773Y45198540D01*
X87287651Y45208504D01*
X87329209Y45208504D01*
X87370000Y45213100D01*
X87410791Y45208504D01*
G37*
G36*
X84870791Y46478504D02*
G01*
X84912349Y46478504D01*
X84959226Y46468540D01*
X85005369Y46463341D01*
X85038923Y46451600D01*
X85073450Y46444261D01*
X85123210Y46422107D01*
X85171944Y46405054D01*
X85197306Y46389118D01*
X85223910Y46377273D01*
X85273522Y46341228D01*
X85321372Y46311161D01*
X85338554Y46293979D01*
X85357154Y46280465D01*
X85403135Y46229398D01*
X85446161Y46186372D01*
X85456057Y46170622D01*
X85467361Y46158068D01*
X85506018Y46091111D01*
X85540054Y46036944D01*
X85544304Y46024797D01*
X85549707Y46015439D01*
X85577378Y45930278D01*
X85598341Y45870369D01*
X85599135Y45863316D01*
X85600604Y45858797D01*
X85613918Y45732114D01*
X85618100Y45695000D01*
X85613918Y45657884D01*
X85600604Y45531204D01*
X85599135Y45526686D01*
X85598341Y45519631D01*
X85577373Y45459710D01*
X85549707Y45374562D01*
X85544305Y45365207D01*
X85540054Y45353056D01*
X85506011Y45298879D01*
X85467361Y45231933D01*
X85456060Y45219383D01*
X85446161Y45203628D01*
X85403126Y45160594D01*
X85357154Y45109536D01*
X85338558Y45096026D01*
X85321372Y45078839D01*
X85273512Y45048767D01*
X85223910Y45012728D01*
X85197312Y45000887D01*
X85171944Y44984946D01*
X85123200Y44967890D01*
X85073450Y44945740D01*
X85038929Y44938403D01*
X85005369Y44926659D01*
X84959223Y44921460D01*
X84912349Y44911496D01*
X84870791Y44911496D01*
X84830000Y44906900D01*
X84789209Y44911496D01*
X84747651Y44911496D01*
X84700775Y44921460D01*
X84654631Y44926659D01*
X84621072Y44938402D01*
X84586549Y44945740D01*
X84536795Y44967892D01*
X84488056Y44984946D01*
X84462690Y45000885D01*
X84436089Y45012728D01*
X84386480Y45048771D01*
X84338628Y45078839D01*
X84321444Y45096023D01*
X84302845Y45109536D01*
X84256863Y45160604D01*
X84213839Y45203628D01*
X84203942Y45219379D01*
X84192638Y45231933D01*
X84153976Y45298898D01*
X84119946Y45353056D01*
X84115695Y45365203D01*
X84110292Y45374562D01*
X84082612Y45459750D01*
X84061659Y45519631D01*
X84060864Y45526681D01*
X84059395Y45531204D01*
X84046067Y45658016D01*
X84041900Y45695000D01*
X84046066Y45731982D01*
X84059395Y45858797D01*
X84060864Y45863321D01*
X84061659Y45870369D01*
X84082607Y45930238D01*
X84110292Y46015439D01*
X84115696Y46024801D01*
X84119946Y46036944D01*
X84153969Y46091091D01*
X84192638Y46158068D01*
X84203944Y46170625D01*
X84213839Y46186372D01*
X84256854Y46229388D01*
X84302845Y46280465D01*
X84321447Y46293981D01*
X84338628Y46311161D01*
X84386474Y46341226D01*
X84436090Y46377273D01*
X84462693Y46389118D01*
X84488056Y46405054D01*
X84536786Y46422106D01*
X84586549Y46444261D01*
X84621077Y46451601D01*
X84654631Y46463341D01*
X84700773Y46468540D01*
X84747651Y46478504D01*
X84789209Y46478504D01*
X84830000Y46483100D01*
X84870791Y46478504D01*
G37*
G36*
X87410791Y47748504D02*
G01*
X87452349Y47748504D01*
X87499226Y47738540D01*
X87545369Y47733341D01*
X87578923Y47721600D01*
X87613450Y47714261D01*
X87663210Y47692107D01*
X87711944Y47675054D01*
X87737306Y47659118D01*
X87763910Y47647273D01*
X87813522Y47611228D01*
X87861372Y47581161D01*
X87878554Y47563979D01*
X87897154Y47550465D01*
X87943135Y47499398D01*
X87986161Y47456372D01*
X87996057Y47440622D01*
X88007361Y47428068D01*
X88046018Y47361111D01*
X88080054Y47306944D01*
X88084304Y47294797D01*
X88089707Y47285439D01*
X88117378Y47200278D01*
X88138341Y47140369D01*
X88139135Y47133316D01*
X88140604Y47128797D01*
X88153918Y47002114D01*
X88158100Y46965000D01*
X88153918Y46927884D01*
X88140604Y46801204D01*
X88139135Y46796686D01*
X88138341Y46789631D01*
X88117373Y46729710D01*
X88089707Y46644562D01*
X88084305Y46635207D01*
X88080054Y46623056D01*
X88046011Y46568879D01*
X88007361Y46501933D01*
X87996060Y46489383D01*
X87986161Y46473628D01*
X87943126Y46430594D01*
X87897154Y46379536D01*
X87878558Y46366026D01*
X87861372Y46348839D01*
X87813512Y46318767D01*
X87763910Y46282728D01*
X87737312Y46270887D01*
X87711944Y46254946D01*
X87663200Y46237890D01*
X87613450Y46215740D01*
X87578929Y46208403D01*
X87545369Y46196659D01*
X87499223Y46191460D01*
X87452349Y46181496D01*
X87410791Y46181496D01*
X87370000Y46176900D01*
X87329209Y46181496D01*
X87287651Y46181496D01*
X87240775Y46191460D01*
X87194631Y46196659D01*
X87161072Y46208402D01*
X87126549Y46215740D01*
X87076795Y46237892D01*
X87028056Y46254946D01*
X87002690Y46270885D01*
X86976089Y46282728D01*
X86926480Y46318771D01*
X86878628Y46348839D01*
X86861444Y46366023D01*
X86842845Y46379536D01*
X86796863Y46430604D01*
X86753839Y46473628D01*
X86743942Y46489379D01*
X86732638Y46501933D01*
X86693976Y46568898D01*
X86659946Y46623056D01*
X86655695Y46635203D01*
X86650292Y46644562D01*
X86622612Y46729750D01*
X86601659Y46789631D01*
X86600864Y46796681D01*
X86599395Y46801204D01*
X86586067Y46928016D01*
X86581900Y46965000D01*
X86586066Y47001982D01*
X86599395Y47128797D01*
X86600864Y47133321D01*
X86601659Y47140369D01*
X86622607Y47200238D01*
X86650292Y47285439D01*
X86655696Y47294801D01*
X86659946Y47306944D01*
X86693969Y47361091D01*
X86732638Y47428068D01*
X86743944Y47440625D01*
X86753839Y47456372D01*
X86796854Y47499388D01*
X86842845Y47550465D01*
X86861447Y47563981D01*
X86878628Y47581161D01*
X86926474Y47611226D01*
X86976090Y47647273D01*
X87002693Y47659118D01*
X87028056Y47675054D01*
X87076786Y47692106D01*
X87126549Y47714261D01*
X87161077Y47721601D01*
X87194631Y47733341D01*
X87240773Y47738540D01*
X87287651Y47748504D01*
X87329209Y47748504D01*
X87370000Y47753100D01*
X87410791Y47748504D01*
G37*
G36*
X84870791Y49018504D02*
G01*
X84912349Y49018504D01*
X84959226Y49008540D01*
X85005369Y49003341D01*
X85038923Y48991600D01*
X85073450Y48984261D01*
X85123210Y48962107D01*
X85171944Y48945054D01*
X85197306Y48929118D01*
X85223910Y48917273D01*
X85273522Y48881228D01*
X85321372Y48851161D01*
X85338554Y48833979D01*
X85357154Y48820465D01*
X85403135Y48769398D01*
X85446161Y48726372D01*
X85456057Y48710622D01*
X85467361Y48698068D01*
X85506018Y48631111D01*
X85540054Y48576944D01*
X85544304Y48564797D01*
X85549707Y48555439D01*
X85577378Y48470278D01*
X85598341Y48410369D01*
X85599135Y48403316D01*
X85600604Y48398797D01*
X85613918Y48272114D01*
X85618100Y48235000D01*
X85613918Y48197884D01*
X85600604Y48071204D01*
X85599135Y48066686D01*
X85598341Y48059631D01*
X85577373Y47999710D01*
X85549707Y47914562D01*
X85544305Y47905207D01*
X85540054Y47893056D01*
X85506011Y47838879D01*
X85467361Y47771933D01*
X85456060Y47759383D01*
X85446161Y47743628D01*
X85403126Y47700594D01*
X85357154Y47649536D01*
X85338558Y47636026D01*
X85321372Y47618839D01*
X85273512Y47588767D01*
X85223910Y47552728D01*
X85197312Y47540887D01*
X85171944Y47524946D01*
X85123200Y47507890D01*
X85073450Y47485740D01*
X85038929Y47478403D01*
X85005369Y47466659D01*
X84959223Y47461460D01*
X84912349Y47451496D01*
X84870791Y47451496D01*
X84830000Y47446900D01*
X84789209Y47451496D01*
X84747651Y47451496D01*
X84700775Y47461460D01*
X84654631Y47466659D01*
X84621072Y47478402D01*
X84586549Y47485740D01*
X84536795Y47507892D01*
X84488056Y47524946D01*
X84462690Y47540885D01*
X84436089Y47552728D01*
X84386480Y47588771D01*
X84338628Y47618839D01*
X84321444Y47636023D01*
X84302845Y47649536D01*
X84256863Y47700604D01*
X84213839Y47743628D01*
X84203942Y47759379D01*
X84192638Y47771933D01*
X84153976Y47838898D01*
X84119946Y47893056D01*
X84115695Y47905203D01*
X84110292Y47914562D01*
X84082612Y47999750D01*
X84061659Y48059631D01*
X84060864Y48066681D01*
X84059395Y48071204D01*
X84046067Y48198016D01*
X84041900Y48235000D01*
X84046066Y48271982D01*
X84059395Y48398797D01*
X84060864Y48403321D01*
X84061659Y48410369D01*
X84082607Y48470238D01*
X84110292Y48555439D01*
X84115696Y48564801D01*
X84119946Y48576944D01*
X84153969Y48631091D01*
X84192638Y48698068D01*
X84203944Y48710625D01*
X84213839Y48726372D01*
X84256854Y48769388D01*
X84302845Y48820465D01*
X84321447Y48833981D01*
X84338628Y48851161D01*
X84386474Y48881226D01*
X84436090Y48917273D01*
X84462693Y48929118D01*
X84488056Y48945054D01*
X84536786Y48962106D01*
X84586549Y48984261D01*
X84621077Y48991601D01*
X84654631Y49003341D01*
X84700773Y49008540D01*
X84747651Y49018504D01*
X84789209Y49018504D01*
X84830000Y49023100D01*
X84870791Y49018504D01*
G37*
G36*
X87410791Y50288504D02*
G01*
X87452349Y50288504D01*
X87499226Y50278540D01*
X87545369Y50273341D01*
X87578923Y50261600D01*
X87613450Y50254261D01*
X87663210Y50232107D01*
X87711944Y50215054D01*
X87737306Y50199118D01*
X87763910Y50187273D01*
X87813522Y50151228D01*
X87861372Y50121161D01*
X87878554Y50103979D01*
X87897154Y50090465D01*
X87943135Y50039398D01*
X87986161Y49996372D01*
X87996057Y49980622D01*
X88007361Y49968068D01*
X88046018Y49901111D01*
X88080054Y49846944D01*
X88084304Y49834797D01*
X88089707Y49825439D01*
X88117378Y49740278D01*
X88138341Y49680369D01*
X88139135Y49673316D01*
X88140604Y49668797D01*
X88153918Y49542114D01*
X88158100Y49505000D01*
X88153918Y49467884D01*
X88140604Y49341204D01*
X88139135Y49336686D01*
X88138341Y49329631D01*
X88117373Y49269710D01*
X88089707Y49184562D01*
X88084305Y49175207D01*
X88080054Y49163056D01*
X88046011Y49108879D01*
X88007361Y49041933D01*
X87996060Y49029383D01*
X87986161Y49013628D01*
X87943126Y48970594D01*
X87897154Y48919536D01*
X87878558Y48906026D01*
X87861372Y48888839D01*
X87813512Y48858767D01*
X87763910Y48822728D01*
X87737312Y48810887D01*
X87711944Y48794946D01*
X87663200Y48777890D01*
X87613450Y48755740D01*
X87578929Y48748403D01*
X87545369Y48736659D01*
X87499223Y48731460D01*
X87452349Y48721496D01*
X87410791Y48721496D01*
X87370000Y48716900D01*
X87329209Y48721496D01*
X87287651Y48721496D01*
X87240775Y48731460D01*
X87194631Y48736659D01*
X87161072Y48748402D01*
X87126549Y48755740D01*
X87076795Y48777892D01*
X87028056Y48794946D01*
X87002690Y48810885D01*
X86976089Y48822728D01*
X86926480Y48858771D01*
X86878628Y48888839D01*
X86861444Y48906023D01*
X86842845Y48919536D01*
X86796863Y48970604D01*
X86753839Y49013628D01*
X86743942Y49029379D01*
X86732638Y49041933D01*
X86693976Y49108898D01*
X86659946Y49163056D01*
X86655695Y49175203D01*
X86650292Y49184562D01*
X86622612Y49269750D01*
X86601659Y49329631D01*
X86600864Y49336681D01*
X86599395Y49341204D01*
X86586067Y49468016D01*
X86581900Y49505000D01*
X86586066Y49541982D01*
X86599395Y49668797D01*
X86600864Y49673321D01*
X86601659Y49680369D01*
X86622607Y49740238D01*
X86650292Y49825439D01*
X86655696Y49834801D01*
X86659946Y49846944D01*
X86693969Y49901091D01*
X86732638Y49968068D01*
X86743944Y49980625D01*
X86753839Y49996372D01*
X86796854Y50039388D01*
X86842845Y50090465D01*
X86861447Y50103981D01*
X86878628Y50121161D01*
X86926474Y50151226D01*
X86976090Y50187273D01*
X87002693Y50199118D01*
X87028056Y50215054D01*
X87076786Y50232106D01*
X87126549Y50254261D01*
X87161077Y50261601D01*
X87194631Y50273341D01*
X87240773Y50278540D01*
X87287651Y50288504D01*
X87329209Y50288504D01*
X87370000Y50293100D01*
X87410791Y50288504D01*
G37*
G36*
X98062077Y51226591D02*
G01*
X98224050Y51154476D01*
X98367490Y51050261D01*
X98486127Y50918501D01*
X98574778Y50764953D01*
X98629567Y50596330D01*
X98648100Y50420000D01*
X98629567Y50243670D01*
X98574778Y50075047D01*
X98486127Y49921499D01*
X98367490Y49789739D01*
X98224050Y49685524D01*
X98062077Y49613409D01*
X97888651Y49576546D01*
X97711349Y49576546D01*
X97537923Y49613409D01*
X97375950Y49685524D01*
X97232510Y49789739D01*
X97113873Y49921499D01*
X97025222Y50075047D01*
X96970433Y50243670D01*
X96951900Y50420000D01*
X96970433Y50596330D01*
X97025222Y50764953D01*
X97113873Y50918501D01*
X97232510Y51050261D01*
X97375950Y51154476D01*
X97537923Y51226591D01*
X97711349Y51263454D01*
X97888651Y51263454D01*
X98062077Y51226591D01*
G37*
G36*
X84870791Y51558504D02*
G01*
X84912349Y51558504D01*
X84959226Y51548540D01*
X85005369Y51543341D01*
X85038923Y51531600D01*
X85073450Y51524261D01*
X85123210Y51502107D01*
X85171944Y51485054D01*
X85197306Y51469118D01*
X85223910Y51457273D01*
X85273522Y51421228D01*
X85321372Y51391161D01*
X85338554Y51373979D01*
X85357154Y51360465D01*
X85403135Y51309398D01*
X85446161Y51266372D01*
X85456057Y51250622D01*
X85467361Y51238068D01*
X85506018Y51171111D01*
X85540054Y51116944D01*
X85544304Y51104797D01*
X85549707Y51095439D01*
X85577378Y51010278D01*
X85598341Y50950369D01*
X85599135Y50943316D01*
X85600604Y50938797D01*
X85613918Y50812114D01*
X85618100Y50775000D01*
X85613918Y50737884D01*
X85600604Y50611204D01*
X85599135Y50606686D01*
X85598341Y50599631D01*
X85577373Y50539710D01*
X85549707Y50454562D01*
X85544305Y50445207D01*
X85540054Y50433056D01*
X85506011Y50378879D01*
X85467361Y50311933D01*
X85456060Y50299383D01*
X85446161Y50283628D01*
X85403126Y50240594D01*
X85357154Y50189536D01*
X85338558Y50176026D01*
X85321372Y50158839D01*
X85273512Y50128767D01*
X85223910Y50092728D01*
X85197312Y50080887D01*
X85171944Y50064946D01*
X85123200Y50047890D01*
X85073450Y50025740D01*
X85038929Y50018403D01*
X85005369Y50006659D01*
X84959223Y50001460D01*
X84912349Y49991496D01*
X84870791Y49991496D01*
X84830000Y49986900D01*
X84789209Y49991496D01*
X84747651Y49991496D01*
X84700775Y50001460D01*
X84654631Y50006659D01*
X84621072Y50018402D01*
X84586549Y50025740D01*
X84536795Y50047892D01*
X84488056Y50064946D01*
X84462690Y50080885D01*
X84436089Y50092728D01*
X84386480Y50128771D01*
X84338628Y50158839D01*
X84321444Y50176023D01*
X84302845Y50189536D01*
X84256863Y50240604D01*
X84213839Y50283628D01*
X84203942Y50299379D01*
X84192638Y50311933D01*
X84153976Y50378898D01*
X84119946Y50433056D01*
X84115695Y50445203D01*
X84110292Y50454562D01*
X84082612Y50539750D01*
X84061659Y50599631D01*
X84060864Y50606681D01*
X84059395Y50611204D01*
X84046067Y50738016D01*
X84041900Y50775000D01*
X84046066Y50811982D01*
X84059395Y50938797D01*
X84060864Y50943321D01*
X84061659Y50950369D01*
X84082607Y51010238D01*
X84110292Y51095439D01*
X84115696Y51104801D01*
X84119946Y51116944D01*
X84153969Y51171091D01*
X84192638Y51238068D01*
X84203944Y51250625D01*
X84213839Y51266372D01*
X84256854Y51309388D01*
X84302845Y51360465D01*
X84321447Y51373981D01*
X84338628Y51391161D01*
X84386474Y51421226D01*
X84436090Y51457273D01*
X84462693Y51469118D01*
X84488056Y51485054D01*
X84536786Y51502106D01*
X84586549Y51524261D01*
X84621077Y51531601D01*
X84654631Y51543341D01*
X84700773Y51548540D01*
X84747651Y51558504D01*
X84789209Y51558504D01*
X84830000Y51563100D01*
X84870791Y51558504D01*
G37*
G36*
X94090075Y53666403D02*
G01*
X94327599Y53593136D01*
X94551550Y53485287D01*
X94756926Y53345264D01*
X94939139Y53176195D01*
X95094118Y52981858D01*
X95218401Y52766592D01*
X95309213Y52535207D01*
X95364525Y52292872D01*
X95383100Y52045000D01*
X95364525Y51797128D01*
X95309213Y51554793D01*
X95218401Y51323408D01*
X95094118Y51108142D01*
X94939139Y50913805D01*
X94756926Y50744736D01*
X94551550Y50604713D01*
X94327599Y50496864D01*
X94090075Y50423597D01*
X93844284Y50386550D01*
X93595716Y50386550D01*
X93349925Y50423597D01*
X93112401Y50496864D01*
X92888450Y50604713D01*
X92683074Y50744736D01*
X92500861Y50913805D01*
X92345882Y51108142D01*
X92221599Y51323408D01*
X92130787Y51554793D01*
X92075475Y51797128D01*
X92056900Y52045000D01*
X92075475Y52292872D01*
X92130787Y52535207D01*
X92221599Y52766592D01*
X92345882Y52981858D01*
X92500861Y53176195D01*
X92683074Y53345264D01*
X92888450Y53485287D01*
X93112401Y53593136D01*
X93349925Y53666403D01*
X93595716Y53703450D01*
X93844284Y53703450D01*
X94090075Y53666403D01*
G37*
G36*
X87410791Y52828504D02*
G01*
X87452349Y52828504D01*
X87499226Y52818540D01*
X87545369Y52813341D01*
X87578923Y52801600D01*
X87613450Y52794261D01*
X87663210Y52772107D01*
X87711944Y52755054D01*
X87737306Y52739118D01*
X87763910Y52727273D01*
X87813522Y52691228D01*
X87861372Y52661161D01*
X87878554Y52643979D01*
X87897154Y52630465D01*
X87943135Y52579398D01*
X87986161Y52536372D01*
X87996057Y52520622D01*
X88007361Y52508068D01*
X88046018Y52441111D01*
X88080054Y52386944D01*
X88084304Y52374797D01*
X88089707Y52365439D01*
X88117378Y52280278D01*
X88138341Y52220369D01*
X88139135Y52213316D01*
X88140604Y52208797D01*
X88153918Y52082114D01*
X88158100Y52045000D01*
X88153918Y52007884D01*
X88140604Y51881204D01*
X88139135Y51876686D01*
X88138341Y51869631D01*
X88117373Y51809710D01*
X88089707Y51724562D01*
X88084305Y51715207D01*
X88080054Y51703056D01*
X88046011Y51648879D01*
X88007361Y51581933D01*
X87996060Y51569383D01*
X87986161Y51553628D01*
X87943126Y51510594D01*
X87897154Y51459536D01*
X87878558Y51446026D01*
X87861372Y51428839D01*
X87813512Y51398767D01*
X87763910Y51362728D01*
X87737312Y51350887D01*
X87711944Y51334946D01*
X87663200Y51317890D01*
X87613450Y51295740D01*
X87578929Y51288403D01*
X87545369Y51276659D01*
X87499223Y51271460D01*
X87452349Y51261496D01*
X87410791Y51261496D01*
X87370000Y51256900D01*
X87329209Y51261496D01*
X87287651Y51261496D01*
X87240775Y51271460D01*
X87194631Y51276659D01*
X87161072Y51288402D01*
X87126549Y51295740D01*
X87076795Y51317892D01*
X87028056Y51334946D01*
X87002690Y51350885D01*
X86976089Y51362728D01*
X86926480Y51398771D01*
X86878628Y51428839D01*
X86861444Y51446023D01*
X86842845Y51459536D01*
X86796863Y51510604D01*
X86753839Y51553628D01*
X86743942Y51569379D01*
X86732638Y51581933D01*
X86693976Y51648898D01*
X86659946Y51703056D01*
X86655695Y51715203D01*
X86650292Y51724562D01*
X86622612Y51809750D01*
X86601659Y51869631D01*
X86600864Y51876681D01*
X86599395Y51881204D01*
X86586067Y52008016D01*
X86581900Y52045000D01*
X86586066Y52081982D01*
X86599395Y52208797D01*
X86600864Y52213321D01*
X86601659Y52220369D01*
X86622607Y52280238D01*
X86650292Y52365439D01*
X86655696Y52374801D01*
X86659946Y52386944D01*
X86693969Y52441091D01*
X86732638Y52508068D01*
X86743944Y52520625D01*
X86753839Y52536372D01*
X86796854Y52579388D01*
X86842845Y52630465D01*
X86861447Y52643981D01*
X86878628Y52661161D01*
X86926474Y52691226D01*
X86976090Y52727273D01*
X87002693Y52739118D01*
X87028056Y52755054D01*
X87076786Y52772106D01*
X87126549Y52794261D01*
X87161077Y52801601D01*
X87194631Y52813341D01*
X87240773Y52818540D01*
X87287651Y52828504D01*
X87329209Y52828504D01*
X87370000Y52833100D01*
X87410791Y52828504D01*
G37*
G36*
X98062077Y53766591D02*
G01*
X98224050Y53694476D01*
X98367490Y53590261D01*
X98486127Y53458501D01*
X98574778Y53304953D01*
X98629567Y53136330D01*
X98648100Y52960000D01*
X98629567Y52783670D01*
X98574778Y52615047D01*
X98486127Y52461499D01*
X98367490Y52329739D01*
X98224050Y52225524D01*
X98062077Y52153409D01*
X97888651Y52116546D01*
X97711349Y52116546D01*
X97537923Y52153409D01*
X97375950Y52225524D01*
X97232510Y52329739D01*
X97113873Y52461499D01*
X97025222Y52615047D01*
X96970433Y52783670D01*
X96951900Y52960000D01*
X96970433Y53136330D01*
X97025222Y53304953D01*
X97113873Y53458501D01*
X97232510Y53590261D01*
X97375950Y53694476D01*
X97537923Y53766591D01*
X97711349Y53803454D01*
X97888651Y53803454D01*
X98062077Y53766591D01*
G37*
G36*
X90738092Y55858100D02*
G01*
X90803625Y55858100D01*
X90862801Y55849181D01*
X90924458Y55844771D01*
X90997550Y55828871D01*
X91067890Y55818269D01*
X91119574Y55802327D01*
X91173728Y55790546D01*
X91250046Y55762081D01*
X91323266Y55739495D01*
X91366771Y55718545D01*
X91412752Y55701394D01*
X91490199Y55659105D01*
X91564050Y55623540D01*
X91599123Y55599628D01*
X91636645Y55579139D01*
X91712893Y55522061D01*
X91784862Y55472993D01*
X91811678Y55448111D01*
X91840876Y55426254D01*
X91913438Y55353692D01*
X91980770Y55291217D01*
X91999895Y55267235D01*
X92021253Y55245877D01*
X92087484Y55157402D01*
X92147398Y55082273D01*
X92159781Y55060825D01*
X92174138Y55041646D01*
X92231422Y54936737D01*
X92281022Y54850828D01*
X92287895Y54833316D01*
X92296393Y54817753D01*
X92342129Y54695130D01*
X92378660Y54602052D01*
X92381520Y54589519D01*
X92385545Y54578729D01*
X92417281Y54432840D01*
X92438128Y54341502D01*
X92438641Y54334645D01*
X92439770Y54329459D01*
X92455230Y54113294D01*
X92458100Y54075000D01*
X92455229Y54036703D01*
X92439770Y53820542D01*
X92438641Y53815357D01*
X92438128Y53808498D01*
X92417276Y53717140D01*
X92385545Y53571272D01*
X92381521Y53560484D01*
X92378660Y53547948D01*
X92342121Y53454852D01*
X92296393Y53332248D01*
X92287896Y53316688D01*
X92281022Y53299172D01*
X92231412Y53213246D01*
X92174138Y53108355D01*
X92159783Y53089181D01*
X92147398Y53067727D01*
X92087472Y52992583D01*
X92021253Y52904124D01*
X91999899Y52882771D01*
X91980770Y52858783D01*
X91913424Y52796296D01*
X91840876Y52723747D01*
X91811684Y52701895D01*
X91784862Y52677007D01*
X91712878Y52627930D01*
X91636645Y52570862D01*
X91599130Y52550378D01*
X91564050Y52526460D01*
X91490184Y52490889D01*
X91412752Y52448607D01*
X91366780Y52431461D01*
X91323266Y52410505D01*
X91250030Y52387915D01*
X91173728Y52359455D01*
X91119585Y52347678D01*
X91067890Y52331731D01*
X90997535Y52321127D01*
X90924458Y52305230D01*
X90862813Y52300822D01*
X90803625Y52291900D01*
X90738078Y52291900D01*
X90670000Y52287031D01*
X90601921Y52291900D01*
X90536375Y52291900D01*
X90477186Y52300822D01*
X90415541Y52305230D01*
X90342461Y52321128D01*
X90272110Y52331731D01*
X90220417Y52347677D01*
X90166271Y52359455D01*
X90089963Y52387917D01*
X90016734Y52410505D01*
X89973222Y52431459D01*
X89927247Y52448607D01*
X89849807Y52490893D01*
X89775950Y52526460D01*
X89740873Y52550375D01*
X89703354Y52570862D01*
X89627110Y52627937D01*
X89555138Y52677007D01*
X89528320Y52701891D01*
X89499123Y52723747D01*
X89426561Y52796309D01*
X89359230Y52858783D01*
X89340104Y52882766D01*
X89318746Y52904124D01*
X89252511Y52992604D01*
X89192602Y53067727D01*
X89180219Y53089175D01*
X89165861Y53108355D01*
X89108568Y53213278D01*
X89058978Y53299172D01*
X89052106Y53316682D01*
X89043606Y53332248D01*
X88997857Y53454903D01*
X88961340Y53547948D01*
X88958480Y53560477D01*
X88954454Y53571272D01*
X88922702Y53717234D01*
X88901872Y53808498D01*
X88901358Y53815350D01*
X88900229Y53820542D01*
X88884748Y54036996D01*
X88881900Y54075000D01*
X88884747Y54113002D01*
X88900229Y54329459D01*
X88901358Y54334652D01*
X88901872Y54341502D01*
X88922697Y54432747D01*
X88954454Y54578729D01*
X88958480Y54589526D01*
X88961340Y54602052D01*
X88997850Y54695079D01*
X89043606Y54817753D01*
X89052107Y54833323D01*
X89058978Y54850828D01*
X89108558Y54936705D01*
X89165861Y55041646D01*
X89180222Y55060831D01*
X89192602Y55082273D01*
X89252499Y55157382D01*
X89318746Y55245877D01*
X89340108Y55267240D01*
X89359230Y55291217D01*
X89426547Y55353679D01*
X89499123Y55426254D01*
X89528325Y55448115D01*
X89555138Y55472993D01*
X89627095Y55522053D01*
X89703354Y55579139D01*
X89740880Y55599631D01*
X89775950Y55623540D01*
X89849791Y55659101D01*
X89927247Y55701394D01*
X89973232Y55718546D01*
X90016734Y55739495D01*
X90089948Y55762079D01*
X90166271Y55790546D01*
X90220428Y55802328D01*
X90272110Y55818269D01*
X90342446Y55828871D01*
X90415541Y55844771D01*
X90477199Y55849181D01*
X90536375Y55858100D01*
X90601908Y55858100D01*
X90670000Y55862970D01*
X90738092Y55858100D01*
G37*
G36*
X96059566Y62620912D02*
G01*
X96121468Y62620912D01*
X96189111Y62610717D01*
X96254300Y62605586D01*
X96306841Y62592972D01*
X96361702Y62584703D01*
X96433396Y62562589D01*
X96502338Y62546037D01*
X96546910Y62527575D01*
X96593846Y62513097D01*
X96667528Y62477614D01*
X96738007Y62448420D01*
X96774189Y62426248D01*
X96812728Y62407688D01*
X96886032Y62357710D01*
X96955504Y62315138D01*
X96983319Y62291382D01*
X97013457Y62270834D01*
X97083823Y62205543D01*
X97149473Y62149473D01*
X97169410Y62126130D01*
X97191542Y62105594D01*
X97256255Y62024447D01*
X97315138Y61955504D01*
X97328085Y61934376D01*
X97343018Y61915651D01*
X97399329Y61818117D01*
X97448420Y61738007D01*
X97455631Y61720597D01*
X97464486Y61705260D01*
X97509646Y61590193D01*
X97546037Y61502338D01*
X97549046Y61489804D01*
X97553242Y61479113D01*
X97584665Y61341441D01*
X97605586Y61254300D01*
X97606128Y61247405D01*
X97607302Y61242264D01*
X97622609Y61037998D01*
X97625600Y61000000D01*
X97622609Y60962000D01*
X97607302Y60757737D01*
X97606128Y60752597D01*
X97605586Y60745700D01*
X97584660Y60658540D01*
X97553242Y60520888D01*
X97549046Y60510200D01*
X97546037Y60497662D01*
X97509639Y60409790D01*
X97464486Y60294741D01*
X97455633Y60279408D01*
X97448420Y60261993D01*
X97399319Y60181868D01*
X97343018Y60084350D01*
X97328088Y60065629D01*
X97315138Y60044496D01*
X97256243Y59975540D01*
X97191542Y59894407D01*
X97169414Y59873876D01*
X97149473Y59850527D01*
X97083810Y59794446D01*
X97013457Y59729167D01*
X96983325Y59708624D01*
X96955504Y59684862D01*
X96886018Y59642282D01*
X96812728Y59592313D01*
X96774197Y59573758D01*
X96738007Y59551580D01*
X96667513Y59522381D01*
X96593846Y59486904D01*
X96546920Y59472430D01*
X96502338Y59453963D01*
X96433381Y59437408D01*
X96361702Y59415298D01*
X96306850Y59407031D01*
X96254300Y59394414D01*
X96189107Y59389284D01*
X96121468Y59379088D01*
X96059566Y59379088D01*
X96000000Y59374400D01*
X95940434Y59379088D01*
X95878532Y59379088D01*
X95810891Y59389284D01*
X95745700Y59394414D01*
X95693150Y59407031D01*
X95638297Y59415298D01*
X95566613Y59437410D01*
X95497662Y59453963D01*
X95453082Y59472429D01*
X95406153Y59486904D01*
X95332481Y59522383D01*
X95261993Y59551580D01*
X95225803Y59573758D01*
X95187272Y59592313D01*
X95113978Y59642284D01*
X95044496Y59684862D01*
X95016677Y59708621D01*
X94986542Y59729167D01*
X94916177Y59794457D01*
X94850527Y59850527D01*
X94830589Y59873872D01*
X94808457Y59894407D01*
X94743741Y59975558D01*
X94684862Y60044496D01*
X94671915Y60065624D01*
X94656981Y60084350D01*
X94600663Y60181896D01*
X94551580Y60261993D01*
X94544369Y60279402D01*
X94535513Y60294741D01*
X94490341Y60409836D01*
X94453963Y60497662D01*
X94450954Y60510193D01*
X94446757Y60520888D01*
X94415319Y60658625D01*
X94394414Y60745700D01*
X94393871Y60752591D01*
X94392697Y60757737D01*
X94377369Y60962266D01*
X94374400Y61000000D01*
X94377369Y61037732D01*
X94392697Y61242264D01*
X94393871Y61247412D01*
X94394414Y61254300D01*
X94415314Y61341357D01*
X94446757Y61479113D01*
X94450955Y61489811D01*
X94453963Y61502338D01*
X94490334Y61590147D01*
X94535513Y61705260D01*
X94544370Y61720603D01*
X94551580Y61738007D01*
X94600653Y61818089D01*
X94656981Y61915651D01*
X94671917Y61934382D01*
X94684862Y61955504D01*
X94743729Y62024429D01*
X94808457Y62105594D01*
X94830593Y62126134D01*
X94850527Y62149473D01*
X94916163Y62205532D01*
X94986542Y62270834D01*
X95016683Y62291384D01*
X95044496Y62315138D01*
X95113963Y62357708D01*
X95187272Y62407688D01*
X95225810Y62426248D01*
X95261993Y62448420D01*
X95332466Y62477612D01*
X95406153Y62513097D01*
X95453092Y62527576D01*
X95497662Y62546037D01*
X95566599Y62562588D01*
X95638297Y62584703D01*
X95693159Y62592973D01*
X95745700Y62605586D01*
X95810887Y62610717D01*
X95878532Y62620912D01*
X95940434Y62620912D01*
X96000000Y62625600D01*
X96059566Y62620912D01*
G37*
G36*
X3774438Y62844633D02*
G01*
X3944050Y62769117D01*
X4094255Y62659987D01*
X4218488Y62522012D01*
X4311320Y62361223D01*
X4368693Y62184646D01*
X4388100Y62000000D01*
X4368693Y61815354D01*
X4311320Y61638777D01*
X4218488Y61477988D01*
X4094255Y61340013D01*
X3944050Y61230883D01*
X3774438Y61155367D01*
X3592832Y61116765D01*
X3407168Y61116765D01*
X3225562Y61155367D01*
X3055950Y61230883D01*
X2905745Y61340013D01*
X2781512Y61477988D01*
X2688680Y61638777D01*
X2631307Y61815354D01*
X2611900Y62000000D01*
X2631307Y62184646D01*
X2688680Y62361223D01*
X2781512Y62522012D01*
X2905745Y62659987D01*
X3055950Y62769117D01*
X3225562Y62844633D01*
X3407168Y62883235D01*
X3592832Y62883235D01*
X3774438Y62844633D01*
G37*
G36*
X10774438Y62844633D02*
G01*
X10944050Y62769117D01*
X11094255Y62659987D01*
X11218488Y62522012D01*
X11311320Y62361223D01*
X11368693Y62184646D01*
X11388100Y62000000D01*
X11368693Y61815354D01*
X11311320Y61638777D01*
X11218488Y61477988D01*
X11094255Y61340013D01*
X10944050Y61230883D01*
X10774438Y61155367D01*
X10592832Y61116765D01*
X10407168Y61116765D01*
X10225562Y61155367D01*
X10055950Y61230883D01*
X9905745Y61340013D01*
X9781512Y61477988D01*
X9688680Y61638777D01*
X9631307Y61815354D01*
X9611900Y62000000D01*
X9631307Y62184646D01*
X9688680Y62361223D01*
X9781512Y62522012D01*
X9905745Y62659987D01*
X10055950Y62769117D01*
X10225562Y62844633D01*
X10407168Y62883235D01*
X10592832Y62883235D01*
X10774438Y62844633D01*
G37*
G36*
X21309566Y65120912D02*
G01*
X21371468Y65120912D01*
X21439111Y65110717D01*
X21504300Y65105586D01*
X21556841Y65092972D01*
X21611702Y65084703D01*
X21683396Y65062589D01*
X21752338Y65046037D01*
X21796910Y65027575D01*
X21843846Y65013097D01*
X21917528Y64977614D01*
X21988007Y64948420D01*
X22024189Y64926248D01*
X22062728Y64907688D01*
X22136032Y64857710D01*
X22205504Y64815138D01*
X22233319Y64791382D01*
X22263457Y64770834D01*
X22333823Y64705543D01*
X22399473Y64649473D01*
X22419410Y64626130D01*
X22441542Y64605594D01*
X22506255Y64524447D01*
X22565138Y64455504D01*
X22578085Y64434376D01*
X22593018Y64415651D01*
X22649329Y64318117D01*
X22698420Y64238007D01*
X22705631Y64220597D01*
X22714486Y64205260D01*
X22759646Y64090193D01*
X22796037Y64002338D01*
X22799046Y63989804D01*
X22803242Y63979113D01*
X22834665Y63841441D01*
X22855586Y63754300D01*
X22856128Y63747405D01*
X22857302Y63742264D01*
X22872609Y63537998D01*
X22875600Y63500000D01*
X22872609Y63462000D01*
X22857302Y63257737D01*
X22856128Y63252597D01*
X22855586Y63245700D01*
X22834660Y63158540D01*
X22803242Y63020888D01*
X22799046Y63010200D01*
X22796037Y62997662D01*
X22759639Y62909790D01*
X22714486Y62794741D01*
X22705633Y62779408D01*
X22698420Y62761993D01*
X22649319Y62681868D01*
X22593018Y62584350D01*
X22578088Y62565629D01*
X22565138Y62544496D01*
X22506243Y62475540D01*
X22441542Y62394407D01*
X22419414Y62373876D01*
X22399473Y62350527D01*
X22333810Y62294446D01*
X22263457Y62229167D01*
X22233325Y62208624D01*
X22205504Y62184862D01*
X22136018Y62142282D01*
X22062728Y62092313D01*
X22024197Y62073758D01*
X21988007Y62051580D01*
X21917513Y62022381D01*
X21843846Y61986904D01*
X21796920Y61972430D01*
X21752338Y61953963D01*
X21683381Y61937408D01*
X21611702Y61915298D01*
X21556850Y61907031D01*
X21504300Y61894414D01*
X21439107Y61889284D01*
X21371468Y61879088D01*
X21309566Y61879088D01*
X21250000Y61874400D01*
X21190434Y61879088D01*
X21128532Y61879088D01*
X21060891Y61889284D01*
X20995700Y61894414D01*
X20943150Y61907031D01*
X20888297Y61915298D01*
X20816613Y61937410D01*
X20747662Y61953963D01*
X20703082Y61972429D01*
X20656153Y61986904D01*
X20582481Y62022383D01*
X20511993Y62051580D01*
X20475803Y62073758D01*
X20437272Y62092313D01*
X20363978Y62142284D01*
X20294496Y62184862D01*
X20266677Y62208621D01*
X20236542Y62229167D01*
X20166177Y62294457D01*
X20100527Y62350527D01*
X20080589Y62373872D01*
X20058457Y62394407D01*
X19993741Y62475558D01*
X19934862Y62544496D01*
X19921915Y62565624D01*
X19906981Y62584350D01*
X19850663Y62681896D01*
X19801580Y62761993D01*
X19794369Y62779402D01*
X19785513Y62794741D01*
X19740341Y62909836D01*
X19703963Y62997662D01*
X19700954Y63010193D01*
X19696757Y63020888D01*
X19665319Y63158625D01*
X19644414Y63245700D01*
X19643871Y63252591D01*
X19642697Y63257737D01*
X19627369Y63462266D01*
X19624400Y63500000D01*
X19627369Y63537732D01*
X19642697Y63742264D01*
X19643871Y63747412D01*
X19644414Y63754300D01*
X19665314Y63841357D01*
X19696757Y63979113D01*
X19700955Y63989811D01*
X19703963Y64002338D01*
X19740334Y64090147D01*
X19785513Y64205260D01*
X19794370Y64220603D01*
X19801580Y64238007D01*
X19850653Y64318089D01*
X19906981Y64415651D01*
X19921917Y64434382D01*
X19934862Y64455504D01*
X19993729Y64524429D01*
X20058457Y64605594D01*
X20080593Y64626134D01*
X20100527Y64649473D01*
X20166163Y64705532D01*
X20236542Y64770834D01*
X20266683Y64791384D01*
X20294496Y64815138D01*
X20363963Y64857708D01*
X20437272Y64907688D01*
X20475810Y64926248D01*
X20511993Y64948420D01*
X20582466Y64977612D01*
X20656153Y65013097D01*
X20703092Y65027576D01*
X20747662Y65046037D01*
X20816599Y65062588D01*
X20888297Y65084703D01*
X20943159Y65092973D01*
X20995700Y65105586D01*
X21060887Y65110717D01*
X21128532Y65120912D01*
X21190434Y65120912D01*
X21250000Y65125600D01*
X21309566Y65120912D01*
G37*
G36*
X3050533Y67870706D02*
G01*
X3264366Y67813410D01*
X3465000Y67719852D01*
X3646340Y67592876D01*
X3802876Y67436340D01*
X3929852Y67255000D01*
X4023410Y67054366D01*
X4080706Y66840533D01*
X4100000Y66620000D01*
X4080706Y66399467D01*
X4023410Y66185634D01*
X3929852Y65985000D01*
X3802876Y65803660D01*
X3646340Y65647124D01*
X3465000Y65520148D01*
X3264366Y65426590D01*
X3050533Y65369294D01*
X2830000Y65350000D01*
X2609467Y65369294D01*
X2395634Y65426590D01*
X2195000Y65520148D01*
X2013660Y65647124D01*
X1857124Y65803660D01*
X1730148Y65985000D01*
X1636590Y66185634D01*
X1579294Y66399467D01*
X1560000Y66620000D01*
X1579294Y66840533D01*
X1636590Y67054366D01*
X1730148Y67255000D01*
X1857124Y67436340D01*
X2013660Y67592876D01*
X2195000Y67719852D01*
X2395634Y67813410D01*
X2609467Y67870706D01*
X2830000Y67890000D01*
X3050533Y67870706D01*
G37*
D10*
X0Y70000000D02*
X100000000Y70000000D01*
X0Y0D02*
X0Y70000000D01*
X100000000Y0D02*
X0Y0D01*
X100000000Y70000000D02*
X100000000Y0D01*
M02*
