%TF.GenerationSoftware,KiCad,Pcbnew,(6.0.9)*%
%TF.CreationDate,2022-11-17T17:06:12-06:00*%
%TF.ProjectId,IR2IP,49523249-502e-46b6-9963-61645f706362,rev?*%
%TF.SameCoordinates,PX55fe290PY8062360*%
%TF.FileFunction,Legend,Bot*%
%TF.FilePolarity,Positive*%
%FSLAX46Y46*%
G04 Gerber Fmt 4.6, Leading zero omitted, Abs format (unit mm)*
G04 Created by KiCad (PCBNEW (6.0.9)) date 2022-11-17 17:06:12*
%MOMM*%
%LPD*%
G01*
G04 APERTURE LIST*
%ADD10C,0.150000*%
G04 APERTURE END LIST*
D10*
%TO.C,J1*%
X97342380Y37630477D02*
X97342380Y38201905D01*
X97342380Y37916191D02*
X96342380Y37916191D01*
X96485238Y38011429D01*
X96580476Y38106667D01*
X96628095Y38201905D01*
X97342380Y36678096D02*
X97342380Y37249524D01*
X97342380Y36963810D02*
X96342380Y36963810D01*
X96485238Y37059048D01*
X96580476Y37154286D01*
X96628095Y37249524D01*
X83372380Y39694286D02*
X83372380Y40265715D01*
X83372380Y39980000D02*
X82372380Y39980000D01*
X82515238Y40075239D01*
X82610476Y40170477D01*
X82658095Y40265715D01*
X88817619Y42805715D02*
X88770000Y42758096D01*
X88722380Y42662858D01*
X88722380Y42424762D01*
X88770000Y42329524D01*
X88817619Y42281905D01*
X88912857Y42234286D01*
X89008095Y42234286D01*
X89150952Y42281905D01*
X89722380Y42853334D01*
X89722380Y42234286D01*
%TO.C,FID6*%
X3901428Y64191429D02*
X4234761Y64191429D01*
X4234761Y63667620D02*
X4234761Y64667620D01*
X3758571Y64667620D01*
X3377619Y63667620D02*
X3377619Y64667620D01*
X2901428Y63667620D02*
X2901428Y64667620D01*
X2663333Y64667620D01*
X2520476Y64620000D01*
X2425238Y64524762D01*
X2377619Y64429524D01*
X2330000Y64239048D01*
X2330000Y64096191D01*
X2377619Y63905715D01*
X2425238Y63810477D01*
X2520476Y63715239D01*
X2663333Y63667620D01*
X2901428Y63667620D01*
X1472857Y64667620D02*
X1663333Y64667620D01*
X1758571Y64620000D01*
X1806190Y64572381D01*
X1901428Y64429524D01*
X1949047Y64239048D01*
X1949047Y63858096D01*
X1901428Y63762858D01*
X1853809Y63715239D01*
X1758571Y63667620D01*
X1568095Y63667620D01*
X1472857Y63715239D01*
X1425238Y63762858D01*
X1377619Y63858096D01*
X1377619Y64096191D01*
X1425238Y64191429D01*
X1472857Y64239048D01*
X1568095Y64286667D01*
X1758571Y64286667D01*
X1853809Y64239048D01*
X1901428Y64191429D01*
X1949047Y64096191D01*
%TO.C,FID5*%
X93901428Y2691429D02*
X94234761Y2691429D01*
X94234761Y2167620D02*
X94234761Y3167620D01*
X93758571Y3167620D01*
X93377619Y2167620D02*
X93377619Y3167620D01*
X92901428Y2167620D02*
X92901428Y3167620D01*
X92663333Y3167620D01*
X92520476Y3120000D01*
X92425238Y3024762D01*
X92377619Y2929524D01*
X92330000Y2739048D01*
X92330000Y2596191D01*
X92377619Y2405715D01*
X92425238Y2310477D01*
X92520476Y2215239D01*
X92663333Y2167620D01*
X92901428Y2167620D01*
X91425238Y3167620D02*
X91901428Y3167620D01*
X91949047Y2691429D01*
X91901428Y2739048D01*
X91806190Y2786667D01*
X91568095Y2786667D01*
X91472857Y2739048D01*
X91425238Y2691429D01*
X91377619Y2596191D01*
X91377619Y2358096D01*
X91425238Y2262858D01*
X91472857Y2215239D01*
X91568095Y2167620D01*
X91806190Y2167620D01*
X91901428Y2215239D01*
X91949047Y2262858D01*
%TD*%
M02*
