%TF.GenerationSoftware,KiCad,Pcbnew,(6.0.9)*%
%TF.CreationDate,2022-11-15T16:19:03-06:00*%
%TF.ProjectId,IR2IP,49523249-502e-46b6-9963-61645f706362,rev?*%
%TF.SameCoordinates,PX55fe290PY8062360*%
%TF.FileFunction,Component,L1,Top*%
%TF.FilePolarity,Positive*%
%FSLAX46Y46*%
G04 Gerber Fmt 4.6, Leading zero omitted, Abs format (unit mm)*
G04 Created by KiCad (PCBNEW (6.0.9)) date 2022-11-15 16:19:03*
%MOMM*%
%LPD*%
G01*
G04 APERTURE LIST*
%TA.AperFunction,ComponentMain*%
%ADD10C,0.300000*%
%TD*%
%TA.AperFunction,ComponentOutline,Courtyard*%
%ADD11C,0.100000*%
%TD*%
%TA.AperFunction,ComponentPin*%
%ADD12C,0.000000*%
%TD*%
%TA.AperFunction,ComponentPin*%
%ADD13P,0.360000X4X0.000000*%
%TD*%
%TA.AperFunction,ComponentOutline,Footprint*%
%ADD14C,0.100000*%
%TD*%
G04 APERTURE END LIST*
D10*
%TO.C,"D1"*%
%TO.CFtp,"DO-214AC"*%
%TO.CVal,"SMAJ58A"*%
%TO.CLbN,"digikey-footprints"*%
%TO.CMnt,SMD*%
%TO.CRot,0*%
X87830000Y63100000D03*
D11*
X91329999Y61550001D02*
X84330001Y61550001D01*
X84330001Y64649999D01*
X91329999Y64649999D01*
X91329999Y61550001D01*
D12*
%TO.P,"D1","A"*%
X89830000Y63100000D03*
%TO.P,"D1","K"*%
X85830000Y63100000D03*
%TD*%
D10*
%TO.C,"R7"*%
%TO.CFtp,"R_0603_1608Metric"*%
%TO.CVal,"6.8k"*%
%TO.CLbN,"Resistor_SMD"*%
%TO.CMnt,SMD*%
%TO.CRot,-90*%
X49330000Y55120000D03*
D11*
X50059999Y53640001D02*
X48600001Y53640001D01*
X48600001Y56599999D01*
X50059999Y56599999D01*
X50059999Y53640001D01*
D13*
%TO.P,"R7","1"*%
X49330000Y55907500D03*
D12*
%TO.P,"R7","2"*%
X49330000Y54332500D03*
%TD*%
D10*
%TO.C,"C13"*%
%TO.CFtp,"C_0603_1608Metric"*%
%TO.CVal,"33pF"*%
%TO.CLbN,"Capacitor_SMD"*%
%TO.CMnt,SMD*%
%TO.CRot,0*%
X85852000Y8128000D03*
D11*
X87331999Y7398001D02*
X84372001Y7398001D01*
X84372001Y8857999D01*
X87331999Y8857999D01*
X87331999Y7398001D01*
D13*
%TO.P,"C13","1"*%
X85064500Y8128000D03*
D12*
%TO.P,"C13","2"*%
X86639500Y8128000D03*
%TD*%
D10*
%TO.C,"C15"*%
%TO.CFtp,"C_0603_1608Metric"*%
%TO.CVal,"0.1uF"*%
%TO.CLbN,"Capacitor_SMD"*%
%TO.CMnt,SMD*%
%TO.CRot,-90*%
X78200000Y16588000D03*
D11*
X78929999Y15108001D02*
X77470001Y15108001D01*
X77470001Y18067999D01*
X78929999Y18067999D01*
X78929999Y15108001D01*
D13*
%TO.P,"C15","1"*%
X78200000Y17375500D03*
D12*
%TO.P,"C15","2"*%
X78200000Y15800500D03*
%TD*%
D10*
%TO.C,"C16"*%
%TO.CFtp,"C_0603_1608Metric"*%
%TO.CVal,"0.01uF"*%
%TO.CLbN,"Capacitor_SMD"*%
%TO.CMnt,SMD*%
%TO.CRot,180*%
X72200000Y27100000D03*
D11*
X73679999Y26370001D02*
X70720001Y26370001D01*
X70720001Y27829999D01*
X73679999Y27829999D01*
X73679999Y26370001D01*
D13*
%TO.P,"C16","1"*%
X72987500Y27100000D03*
D12*
%TO.P,"C16","2"*%
X71412500Y27100000D03*
%TD*%
D10*
%TO.C,"C18"*%
%TO.CFtp,"C_0603_1608Metric"*%
%TO.CVal,"0.01uF"*%
%TO.CLbN,"Capacitor_SMD"*%
%TO.CMnt,SMD*%
%TO.CRot,180*%
X75700000Y20300000D03*
D11*
X77179999Y19570001D02*
X74220001Y19570001D01*
X74220001Y21029999D01*
X77179999Y21029999D01*
X77179999Y19570001D01*
D13*
%TO.P,"C18","1"*%
X76487500Y20300000D03*
D12*
%TO.P,"C18","2"*%
X74912500Y20300000D03*
%TD*%
D10*
%TO.C,"C20"*%
%TO.CFtp,"C_0603_1608Metric"*%
%TO.CVal,"0.1uF"*%
%TO.CLbN,"Capacitor_SMD"*%
%TO.CMnt,SMD*%
%TO.CRot,180*%
X75700000Y23700000D03*
D11*
X77179999Y22970001D02*
X74220001Y22970001D01*
X74220001Y24429999D01*
X77179999Y24429999D01*
X77179999Y22970001D01*
D13*
%TO.P,"C20","1"*%
X76487500Y23700000D03*
D12*
%TO.P,"C20","2"*%
X74912500Y23700000D03*
%TD*%
D10*
%TO.C,"C21"*%
%TO.CFtp,"C_0603_1608Metric"*%
%TO.CVal,"0.1uF"*%
%TO.CLbN,"Capacitor_SMD"*%
%TO.CMnt,SMD*%
%TO.CRot,180*%
X75700000Y25400000D03*
D11*
X77179999Y24670001D02*
X74220001Y24670001D01*
X74220001Y26129999D01*
X77179999Y26129999D01*
X77179999Y24670001D01*
D13*
%TO.P,"C21","1"*%
X76487500Y25400000D03*
D12*
%TO.P,"C21","2"*%
X74912500Y25400000D03*
%TD*%
D10*
%TO.C,"FB1"*%
%TO.CFtp,"L_0805_2012Metric"*%
%TO.CVal,"Ferrite_Bead"*%
%TO.CLbN,"Inductor_SMD"*%
%TO.CMnt,SMD*%
%TO.CRot,180*%
X75300000Y29200000D03*
D11*
X76979999Y28250001D02*
X73620001Y28250001D01*
X73620001Y30149999D01*
X76979999Y30149999D01*
X76979999Y28250001D01*
D13*
%TO.P,"FB1","1"*%
X76237500Y29200000D03*
D12*
%TO.P,"FB1","2"*%
X74362500Y29200000D03*
%TD*%
D10*
%TO.C,"J1"*%
%TO.CFtp,"7499210121A"*%
%TO.CVal,"WE-RJ45LAN"*%
%TO.CLbN,"luken-footprints"*%
%TO.CMnt,TH*%
%TO.CRot,-90*%
X100070000Y46330000D03*
D14*
X98610000Y55825000D02*
X84080000Y55825000D01*
X84080000Y36835000D01*
X98610000Y36835000D01*
X98610000Y55825000D01*
D13*
%TO.P,"J1","1"*%
X84830000Y40615000D03*
D12*
%TO.P,"J1",*%
X93720000Y52045000D03*
X93720000Y40615000D03*
%TO.P,"J1","2"*%
X87370000Y41885000D03*
%TO.P,"J1","3"*%
X84830000Y43155000D03*
%TO.P,"J1","4"*%
X87370000Y44425000D03*
%TO.P,"J1","5"*%
X84830000Y45695000D03*
%TO.P,"J1","6"*%
X87370000Y46965000D03*
%TO.P,"J1","7"*%
X84830000Y48235000D03*
%TO.P,"J1","8"*%
X87370000Y49505000D03*
%TO.P,"J1","9"*%
X84830000Y50775000D03*
%TO.P,"J1","10"*%
X87370000Y52045000D03*
%TO.P,"J1","11"*%
X97800000Y39700000D03*
%TO.P,"J1","12"*%
X97800000Y42240000D03*
%TO.P,"J1","13"*%
X97800000Y50420000D03*
%TO.P,"J1","14"*%
X97800000Y52960000D03*
%TO.P,"J1","SH1"*%
X90670000Y54075000D03*
%TO.P,"J1","SH2"*%
X90670000Y38585000D03*
%TD*%
D10*
%TO.C,"R15"*%
%TO.CFtp,"R_0603_1608Metric"*%
%TO.CVal,"1M"*%
%TO.CLbN,"Resistor_SMD"*%
%TO.CMnt,SMD*%
%TO.CRot,180*%
X84100000Y15300000D03*
D11*
X85579999Y14570001D02*
X82620001Y14570001D01*
X82620001Y16029999D01*
X85579999Y16029999D01*
X85579999Y14570001D01*
D13*
%TO.P,"R15","1"*%
X84887500Y15300000D03*
D12*
%TO.P,"R15","2"*%
X83312500Y15300000D03*
%TD*%
D10*
%TO.C,"C17"*%
%TO.CFtp,"C_0603_1608Metric"*%
%TO.CVal,"0.01uF"*%
%TO.CLbN,"Capacitor_SMD"*%
%TO.CMnt,SMD*%
%TO.CRot,0*%
X89612000Y27400000D03*
D11*
X91091999Y26670001D02*
X88132001Y26670001D01*
X88132001Y28129999D01*
X91091999Y28129999D01*
X91091999Y26670001D01*
D13*
%TO.P,"C17","1"*%
X88824500Y27400000D03*
D12*
%TO.P,"C17","2"*%
X90399500Y27400000D03*
%TD*%
D10*
%TO.C,"C12"*%
%TO.CFtp,"C_0603_1608Metric"*%
%TO.CVal,"33pF"*%
%TO.CLbN,"Capacitor_SMD"*%
%TO.CMnt,SMD*%
%TO.CRot,180*%
X82296000Y8128000D03*
D11*
X83775999Y7398001D02*
X80816001Y7398001D01*
X80816001Y8857999D01*
X83775999Y8857999D01*
X83775999Y7398001D01*
D13*
%TO.P,"C12","1"*%
X83083500Y8128000D03*
D12*
%TO.P,"C12","2"*%
X81508500Y8128000D03*
%TD*%
D10*
%TO.C,"C26"*%
%TO.CFtp,"C_0603_1608Metric"*%
%TO.CVal,"0.1uF"*%
%TO.CLbN,"Capacitor_SMD"*%
%TO.CMnt,SMD*%
%TO.CRot,90*%
X85598000Y30226000D03*
D11*
X86327999Y28746001D02*
X84868001Y28746001D01*
X84868001Y31705999D01*
X86327999Y31705999D01*
X86327999Y28746001D01*
D13*
%TO.P,"C26","1"*%
X85598000Y29438500D03*
D12*
%TO.P,"C26","2"*%
X85598000Y31013500D03*
%TD*%
D10*
%TO.C,"C27"*%
%TO.CFtp,"C_0603_1608Metric"*%
%TO.CVal,"0.1uF"*%
%TO.CLbN,"Capacitor_SMD"*%
%TO.CMnt,SMD*%
%TO.CRot,-90*%
X88900000Y30300000D03*
D11*
X89629999Y28820001D02*
X88170001Y28820001D01*
X88170001Y31779999D01*
X89629999Y31779999D01*
X89629999Y28820001D01*
D13*
%TO.P,"C27","1"*%
X88900000Y31087500D03*
D12*
%TO.P,"C27","2"*%
X88900000Y29512500D03*
%TD*%
D10*
%TO.C,"C28"*%
%TO.CFtp,"C_0603_1608Metric"*%
%TO.CVal,"0.022uF"*%
%TO.CLbN,"Capacitor_SMD"*%
%TO.CMnt,SMD*%
%TO.CRot,0*%
X79000000Y43300000D03*
D11*
X80479999Y42570001D02*
X77520001Y42570001D01*
X77520001Y44029999D01*
X80479999Y44029999D01*
X80479999Y42570001D01*
D13*
%TO.P,"C28","1"*%
X78212500Y43300000D03*
D12*
%TO.P,"C28","2"*%
X79787500Y43300000D03*
%TD*%
D10*
%TO.C,"R21"*%
%TO.CFtp,"R_0805_2012Metric"*%
%TO.CVal,"330"*%
%TO.CLbN,"Resistor_SMD"*%
%TO.CMnt,SMD*%
%TO.CRot,-90*%
X96100000Y33700000D03*
D11*
X97049999Y32020001D02*
X95150001Y32020001D01*
X95150001Y35379999D01*
X97049999Y35379999D01*
X97049999Y32020001D01*
D13*
%TO.P,"R21","1"*%
X96100000Y34637500D03*
D12*
%TO.P,"R21","2"*%
X96100000Y32762500D03*
%TD*%
D10*
%TO.C,"R22"*%
%TO.CFtp,"R_0805_2012Metric"*%
%TO.CVal,"330"*%
%TO.CLbN,"Resistor_SMD"*%
%TO.CMnt,SMD*%
%TO.CRot,-90*%
X92800000Y33662000D03*
D11*
X93749999Y31982001D02*
X91850001Y31982001D01*
X91850001Y35341999D01*
X93749999Y35341999D01*
X93749999Y31982001D01*
D13*
%TO.P,"R22","1"*%
X92800000Y34599500D03*
D12*
%TO.P,"R22","2"*%
X92800000Y32724500D03*
%TD*%
D10*
%TO.C,"Y1"*%
%TO.CFtp,"Crystal_SMD_TXC_7A-2Pin_5x3.2mm"*%
%TO.CVal,"25MHz"*%
%TO.CLbN,"Crystal"*%
%TO.CMnt,SMD*%
%TO.CRot,0*%
X84100000Y12400000D03*
D11*
X87049999Y10550001D02*
X81150001Y10550001D01*
X81150001Y14249999D01*
X87049999Y14249999D01*
X87049999Y10550001D01*
D13*
%TO.P,"Y1","1"*%
X82250000Y12400000D03*
D12*
%TO.P,"Y1","2"*%
X85950000Y12400000D03*
%TD*%
D10*
%TO.C,"C25"*%
%TO.CFtp,"C_0603_1608Metric"*%
%TO.CVal,"0.1uF"*%
%TO.CLbN,"Capacitor_SMD"*%
%TO.CMnt,SMD*%
%TO.CRot,180*%
X81534000Y29100000D03*
D11*
X83013999Y28370001D02*
X80054001Y28370001D01*
X80054001Y29829999D01*
X83013999Y29829999D01*
X83013999Y28370001D01*
D13*
%TO.P,"C25","1"*%
X82321500Y29100000D03*
D12*
%TO.P,"C25","2"*%
X80746500Y29100000D03*
%TD*%
D10*
%TO.C,"R23"*%
%TO.CFtp,"R_0603_1608Metric"*%
%TO.CVal,"10"*%
%TO.CLbN,"Resistor_SMD"*%
%TO.CMnt,SMD*%
%TO.CRot,180*%
X79000000Y41000000D03*
D11*
X80479999Y40270001D02*
X77520001Y40270001D01*
X77520001Y41729999D01*
X80479999Y41729999D01*
X80479999Y40270001D01*
D13*
%TO.P,"R23","1"*%
X79787500Y41000000D03*
D12*
%TO.P,"R23","2"*%
X78212500Y41000000D03*
%TD*%
D10*
%TO.C,"C19"*%
%TO.CFtp,"C_0603_1608Metric"*%
%TO.CVal,"0.01uF"*%
%TO.CLbN,"Capacitor_SMD"*%
%TO.CMnt,SMD*%
%TO.CRot,90*%
X76000000Y34500000D03*
D11*
X76729999Y33020001D02*
X75270001Y33020001D01*
X75270001Y35979999D01*
X76729999Y35979999D01*
X76729999Y33020001D01*
D13*
%TO.P,"C19","1"*%
X76000000Y33712500D03*
D12*
%TO.P,"C19","2"*%
X76000000Y35287500D03*
%TD*%
D10*
%TO.C,"U4"*%
%TO.CFtp,"LQFP-48_7x7mm_P0.5mm"*%
%TO.CVal,"W5500"*%
%TO.CLbN,"Package_QFP"*%
%TO.CMnt,SMD*%
%TO.CRot,-90*%
X84100000Y22800000D03*
D11*
X87229999Y26550000D02*
X87230000Y26549999D01*
X87849999Y26549999D01*
X87849999Y25930000D01*
X87850000Y25929999D01*
X89349999Y25929999D01*
X89349999Y19670001D01*
X87850000Y19670001D01*
X87849999Y19670000D01*
X87849999Y19050001D01*
X87230000Y19050001D01*
X87229999Y19050000D01*
X87229999Y17550001D01*
X80970001Y17550001D01*
X80970001Y19050000D01*
X80970000Y19050001D01*
X80350001Y19050001D01*
X80350001Y19670000D01*
X80350000Y19670001D01*
X78850001Y19670001D01*
X78850001Y25929999D01*
X80350000Y25929999D01*
X80350001Y25930000D01*
X80350001Y26549999D01*
X80970000Y26549999D01*
X80970001Y26550000D01*
X80970001Y28049999D01*
X87229999Y28049999D01*
X87229999Y26550000D01*
D13*
%TO.P,"U4","1"*%
X86850000Y27150000D03*
D12*
%TO.P,"U4","2"*%
X86350000Y27150000D03*
%TO.P,"U4","3"*%
X85850000Y27150000D03*
%TO.P,"U4","4"*%
X85350000Y27150000D03*
%TO.P,"U4","5"*%
X84850000Y27150000D03*
%TO.P,"U4","6"*%
X84350000Y27150000D03*
%TO.P,"U4","7"*%
X83850000Y27150000D03*
%TO.P,"U4","8"*%
X83350000Y27150000D03*
%TO.P,"U4","9"*%
X82850000Y27150000D03*
%TO.P,"U4","10"*%
X82350000Y27150000D03*
%TO.P,"U4","11"*%
X81850000Y27150000D03*
%TO.P,"U4","12"*%
X81350000Y27150000D03*
%TO.P,"U4","13"*%
X79750000Y25550000D03*
%TO.P,"U4","14"*%
X79750000Y25050000D03*
%TO.P,"U4","15"*%
X79750000Y24550000D03*
%TO.P,"U4","16"*%
X79750000Y24050000D03*
%TO.P,"U4","17"*%
X79750000Y23550000D03*
%TO.P,"U4","18"*%
X79750000Y23050000D03*
%TO.P,"U4","19"*%
X79750000Y22550000D03*
%TO.P,"U4","20"*%
X79750000Y22050000D03*
%TO.P,"U4","21"*%
X79750000Y21550000D03*
%TO.P,"U4","22"*%
X79750000Y21050000D03*
%TO.P,"U4","23"*%
X79750000Y20550000D03*
%TO.P,"U4","24"*%
X79750000Y20050000D03*
%TO.P,"U4","25"*%
X81350000Y18450000D03*
%TO.P,"U4","26"*%
X81850000Y18450000D03*
%TO.P,"U4","27"*%
X82350000Y18450000D03*
%TO.P,"U4","28"*%
X82850000Y18450000D03*
%TO.P,"U4","29"*%
X83350000Y18450000D03*
%TO.P,"U4","30"*%
X83850000Y18450000D03*
%TO.P,"U4","31"*%
X84350000Y18450000D03*
%TO.P,"U4","32"*%
X84850000Y18450000D03*
%TO.P,"U4","33"*%
X85350000Y18450000D03*
%TO.P,"U4","34"*%
X85850000Y18450000D03*
%TO.P,"U4","35"*%
X86350000Y18450000D03*
%TO.P,"U4","36"*%
X86850000Y18450000D03*
%TO.P,"U4","37"*%
X88450000Y20050000D03*
%TO.P,"U4","38"*%
X88450000Y20550000D03*
%TO.P,"U4","39"*%
X88450000Y21050000D03*
%TO.P,"U4","40"*%
X88450000Y21550000D03*
%TO.P,"U4","41"*%
X88450000Y22050000D03*
%TO.P,"U4","42"*%
X88450000Y22550000D03*
%TO.P,"U4","43"*%
X88450000Y23050000D03*
%TO.P,"U4","44"*%
X88450000Y23550000D03*
%TO.P,"U4","45"*%
X88450000Y24050000D03*
%TO.P,"U4","46"*%
X88450000Y24550000D03*
%TO.P,"U4","47"*%
X88450000Y25050000D03*
%TO.P,"U4","48"*%
X88450000Y25550000D03*
%TD*%
D10*
%TO.C,"R18"*%
%TO.CFtp,"R_0603_1608Metric"*%
%TO.CVal,"49.9"*%
%TO.CLbN,"Resistor_SMD"*%
%TO.CMnt,SMD*%
%TO.CRot,180*%
X88500000Y34600000D03*
D11*
X89979999Y33870001D02*
X87020001Y33870001D01*
X87020001Y35329999D01*
X89979999Y35329999D01*
X89979999Y33870001D01*
D13*
%TO.P,"R18","1"*%
X89287500Y34600000D03*
D12*
%TO.P,"R18","2"*%
X87712500Y34600000D03*
%TD*%
D10*
%TO.C,"R19"*%
%TO.CFtp,"R_0603_1608Metric"*%
%TO.CVal,"49.9"*%
%TO.CLbN,"Resistor_SMD"*%
%TO.CMnt,SMD*%
%TO.CRot,180*%
X78300000Y31600000D03*
D11*
X79779999Y30870001D02*
X76820001Y30870001D01*
X76820001Y32329999D01*
X79779999Y32329999D01*
X79779999Y30870001D01*
D13*
%TO.P,"R19","1"*%
X79087500Y31600000D03*
D12*
%TO.P,"R19","2"*%
X77512500Y31600000D03*
%TD*%
D10*
%TO.C,"C24"*%
%TO.CFtp,"C_0603_1608Metric"*%
%TO.CVal,"6800pF"*%
%TO.CLbN,"Capacitor_SMD"*%
%TO.CMnt,SMD*%
%TO.CRot,-90*%
X81000000Y34600000D03*
D11*
X81729999Y33120001D02*
X80270001Y33120001D01*
X80270001Y36079999D01*
X81729999Y36079999D01*
X81729999Y33120001D01*
D13*
%TO.P,"C24","1"*%
X81000000Y35387500D03*
D12*
%TO.P,"C24","2"*%
X81000000Y33812500D03*
%TD*%
D10*
%TO.C,"R20"*%
%TO.CFtp,"R_0603_1608Metric"*%
%TO.CVal,"49.9"*%
%TO.CLbN,"Resistor_SMD"*%
%TO.CMnt,SMD*%
%TO.CRot,0*%
X84700000Y34600000D03*
D11*
X86179999Y33870001D02*
X83220001Y33870001D01*
X83220001Y35329999D01*
X86179999Y35329999D01*
X86179999Y33870001D01*
D13*
%TO.P,"R20","1"*%
X83912500Y34600000D03*
D12*
%TO.P,"R20","2"*%
X85487500Y34600000D03*
%TD*%
D10*
%TO.C,"R17"*%
%TO.CFtp,"R_0603_1608Metric"*%
%TO.CVal,"49.9"*%
%TO.CLbN,"Resistor_SMD"*%
%TO.CMnt,SMD*%
%TO.CRot,0*%
X81800000Y31600000D03*
D11*
X83279999Y30870001D02*
X80320001Y30870001D01*
X80320001Y32329999D01*
X83279999Y32329999D01*
X83279999Y30870001D01*
D13*
%TO.P,"R17","1"*%
X81012500Y31600000D03*
D12*
%TO.P,"R17","2"*%
X82587500Y31600000D03*
%TD*%
D10*
%TO.C,"C23"*%
%TO.CFtp,"C_0603_1608Metric"*%
%TO.CVal,"6800pF"*%
%TO.CLbN,"Capacitor_SMD"*%
%TO.CMnt,SMD*%
%TO.CRot,-90*%
X79100000Y34600000D03*
D11*
X79829999Y33120001D02*
X78370001Y33120001D01*
X78370001Y36079999D01*
X79829999Y36079999D01*
X79829999Y33120001D01*
D13*
%TO.P,"C23","1"*%
X79100000Y35387500D03*
D12*
%TO.P,"C23","2"*%
X79100000Y33812500D03*
%TD*%
D10*
%TO.C,"C14"*%
%TO.CFtp,"C_0603_1608Metric"*%
%TO.CVal,"4.7uF"*%
%TO.CLbN,"Capacitor_SMD"*%
%TO.CMnt,SMD*%
%TO.CRot,180*%
X75700000Y22000000D03*
D11*
X77179999Y21270001D02*
X74220001Y21270001D01*
X74220001Y22729999D01*
X77179999Y22729999D01*
X77179999Y21270001D01*
D13*
%TO.P,"C14","1"*%
X76487500Y22000000D03*
D12*
%TO.P,"C14","2"*%
X74912500Y22000000D03*
%TD*%
D10*
%TO.C,"R16"*%
%TO.CFtp,"R_0603_1608Metric"*%
%TO.CVal,"12.4k"*%
%TO.CLbN,"Resistor_SMD"*%
%TO.CMnt,SMD*%
%TO.CRot,180*%
X79100000Y27500000D03*
D11*
X80579999Y26770001D02*
X77620001Y26770001D01*
X77620001Y28229999D01*
X80579999Y28229999D01*
X80579999Y26770001D01*
D13*
%TO.P,"R16","1"*%
X79887500Y27500000D03*
D12*
%TO.P,"R16","2"*%
X78312500Y27500000D03*
%TD*%
D10*
%TO.C,"C22"*%
%TO.CFtp,"C_0603_1608Metric"*%
%TO.CVal,"0.1uF"*%
%TO.CLbN,"Capacitor_SMD"*%
%TO.CMnt,SMD*%
%TO.CRot,0*%
X79000000Y38800000D03*
D11*
X80479999Y38070001D02*
X77520001Y38070001D01*
X77520001Y39529999D01*
X80479999Y39529999D01*
X80479999Y38070001D01*
D13*
%TO.P,"C22","1"*%
X78212500Y38800000D03*
D12*
%TO.P,"C22","2"*%
X79787500Y38800000D03*
%TD*%
D10*
%TO.C,"D2"*%
%TO.CFtp,"D_SOD-123"*%
%TO.CVal,"1N4148W"*%
%TO.CLbN,"Diode_SMD"*%
%TO.CMnt,SMD*%
%TO.CRot,180*%
X48100000Y66400000D03*
D11*
X50449999Y65250001D02*
X45750001Y65250001D01*
X45750001Y67549999D01*
X50449999Y67549999D01*
X50449999Y65250001D01*
D13*
%TO.P,"D2","1"*%
X49750000Y66400000D03*
D12*
%TO.P,"D2","2"*%
X46450000Y66400000D03*
%TD*%
D10*
%TO.C,"C1"*%
%TO.CFtp,"C_0805_2012Metric"*%
%TO.CVal,"0.1uF"*%
%TO.CLbN,"Capacitor_SMD"*%
%TO.CMnt,SMD*%
%TO.CRot,0*%
X86400000Y57600000D03*
D11*
X88079999Y56650001D02*
X84720001Y56650001D01*
X84720001Y58549999D01*
X88079999Y58549999D01*
X88079999Y56650001D01*
D13*
%TO.P,"C1","1"*%
X85462500Y57600000D03*
D12*
%TO.P,"C1","2"*%
X87337500Y57600000D03*
%TD*%
D10*
%TO.C,"C2"*%
%TO.CFtp,"C_1812_4532Metric"*%
%TO.CVal,"1uF"*%
%TO.CLbN,"Capacitor_SMD"*%
%TO.CMnt,SMD*%
%TO.CRot,90*%
X81830000Y64370000D03*
D11*
X83779999Y61420001D02*
X79880001Y61420001D01*
X79880001Y67319999D01*
X83779999Y67319999D01*
X83779999Y61420001D01*
D13*
%TO.P,"C2","1"*%
X81830000Y62232500D03*
D12*
%TO.P,"C2","2"*%
X81830000Y66507500D03*
%TD*%
D10*
%TO.C,"C4"*%
%TO.CFtp,"C_0603_1608Metric"*%
%TO.CVal,"0.1uF"*%
%TO.CLbN,"Capacitor_SMD"*%
%TO.CMnt,SMD*%
%TO.CRot,-90*%
X51110000Y55262500D03*
D11*
X51839999Y53782501D02*
X50380001Y53782501D01*
X50380001Y56742499D01*
X51839999Y56742499D01*
X51839999Y53782501D01*
D13*
%TO.P,"C4","1"*%
X51110000Y56050000D03*
D12*
%TO.P,"C4","2"*%
X51110000Y54475000D03*
%TD*%
D10*
%TO.C,"C5"*%
%TO.CFtp,"C_0805_2012Metric"*%
%TO.CVal,"4.7uF"*%
%TO.CLbN,"Capacitor_SMD"*%
%TO.CMnt,SMD*%
%TO.CRot,0*%
X54588000Y53510000D03*
D11*
X56267999Y52560001D02*
X52908001Y52560001D01*
X52908001Y54459999D01*
X56267999Y54459999D01*
X56267999Y52560001D01*
D13*
%TO.P,"C5","1"*%
X53650500Y53510000D03*
D12*
%TO.P,"C5","2"*%
X55525500Y53510000D03*
%TD*%
D10*
%TO.C,"C6"*%
%TO.CFtp,"C_0603_1608Metric"*%
%TO.CVal,"150pF"*%
%TO.CLbN,"Capacitor_SMD"*%
%TO.CMnt,SMD*%
%TO.CRot,-90*%
X72080000Y54370000D03*
D11*
X72809999Y52890001D02*
X71350001Y52890001D01*
X71350001Y55849999D01*
X72809999Y55849999D01*
X72809999Y52890001D01*
D13*
%TO.P,"C6","1"*%
X72080000Y55157500D03*
D12*
%TO.P,"C6","2"*%
X72080000Y53582500D03*
%TD*%
D10*
%TO.C,"C8"*%
%TO.CFtp,"C_0603_1608Metric"*%
%TO.CVal,"33nF"*%
%TO.CLbN,"Capacitor_SMD"*%
%TO.CMnt,SMD*%
%TO.CRot,-90*%
X54650000Y46097500D03*
D11*
X55379999Y44617501D02*
X53920001Y44617501D01*
X53920001Y47577499D01*
X55379999Y47577499D01*
X55379999Y44617501D01*
D13*
%TO.P,"C8","1"*%
X54650000Y46885000D03*
D12*
%TO.P,"C8","2"*%
X54650000Y45310000D03*
%TD*%
D10*
%TO.C,"C9"*%
%TO.CFtp,"C_0603_1608Metric"*%
%TO.CVal,"470pF"*%
%TO.CLbN,"Capacitor_SMD"*%
%TO.CMnt,SMD*%
%TO.CRot,180*%
X71580000Y36120000D03*
D11*
X73059999Y35390001D02*
X70100001Y35390001D01*
X70100001Y36849999D01*
X73059999Y36849999D01*
X73059999Y35390001D01*
D13*
%TO.P,"C9","1"*%
X72367500Y36120000D03*
D12*
%TO.P,"C9","2"*%
X70792500Y36120000D03*
%TD*%
D10*
%TO.C,"C10"*%
%TO.CFtp,"C_1210_3225Metric"*%
%TO.CVal,"100uF"*%
%TO.CLbN,"Capacitor_SMD"*%
%TO.CMnt,SMD*%
%TO.CRot,0*%
X45700000Y42000000D03*
D11*
X47979999Y40420001D02*
X43420001Y40420001D01*
X43420001Y43579999D01*
X47979999Y43579999D01*
X47979999Y40420001D01*
D13*
%TO.P,"C10","1"*%
X44300000Y42000000D03*
D12*
%TO.P,"C10","2"*%
X47100000Y42000000D03*
%TD*%
D10*
%TO.C,"D3"*%
%TO.CFtp,"D_SOD-123"*%
%TO.CVal,"1N4148W"*%
%TO.CLbN,"Diode_SMD"*%
%TO.CMnt,SMD*%
%TO.CRot,-90*%
X38580000Y54120000D03*
D11*
X39729999Y51770001D02*
X37430001Y51770001D01*
X37430001Y56469999D01*
X39729999Y56469999D01*
X39729999Y51770001D01*
D13*
%TO.P,"D3","1"*%
X38580000Y55770000D03*
D12*
%TO.P,"D3","2"*%
X38580000Y52470000D03*
%TD*%
D10*
%TO.C,"D4"*%
%TO.CFtp,"D_SOD-523"*%
%TO.CVal,"BAS516"*%
%TO.CLbN,"Diode_SMD"*%
%TO.CMnt,SMD*%
%TO.CRot,90*%
X45330000Y61620000D03*
D11*
X46029999Y60370001D02*
X44630001Y60370001D01*
X44630001Y62869999D01*
X46029999Y62869999D01*
X46029999Y60370001D01*
D13*
%TO.P,"D4","1"*%
X45330000Y60920000D03*
D12*
%TO.P,"D4","2"*%
X45330000Y62320000D03*
%TD*%
D10*
%TO.C,"D5"*%
%TO.CFtp,"D_SOD-523"*%
%TO.CVal,"BAS516"*%
%TO.CLbN,"Diode_SMD"*%
%TO.CMnt,SMD*%
%TO.CRot,90*%
X46330000Y54870000D03*
D11*
X47029999Y53620001D02*
X45630001Y53620001D01*
X45630001Y56119999D01*
X47029999Y56119999D01*
X47029999Y53620001D01*
D13*
%TO.P,"D5","1"*%
X46330000Y54170000D03*
D12*
%TO.P,"D5","2"*%
X46330000Y55570000D03*
%TD*%
D10*
%TO.C,"D6"*%
%TO.CFtp,"D_SOD-523"*%
%TO.CVal,"BAS516"*%
%TO.CLbN,"Diode_SMD"*%
%TO.CMnt,SMD*%
%TO.CRot,0*%
X54920000Y56050000D03*
D11*
X56169999Y55350001D02*
X53670001Y55350001D01*
X53670001Y56749999D01*
X56169999Y56749999D01*
X56169999Y55350001D01*
D13*
%TO.P,"D6","1"*%
X54220000Y56050000D03*
D12*
%TO.P,"D6","2"*%
X55620000Y56050000D03*
%TD*%
D10*
%TO.C,"Q1"*%
%TO.CFtp,"SOT-23-3"*%
%TO.CVal,"MMBTA42LT1G"*%
%TO.CLbN,"digikey-footprints"*%
%TO.CMnt,SMD*%
%TO.CRot,0*%
X43090000Y65350000D03*
D11*
X44914999Y63400001D02*
X41265001Y63400001D01*
X41265001Y67299999D01*
X44914999Y67299999D01*
X44914999Y63400001D01*
D13*
%TO.P,"Q1","1"*%
X42040000Y66300000D03*
D12*
%TO.P,"Q1","2"*%
X42040000Y64400000D03*
%TO.P,"Q1","3"*%
X44140000Y65350000D03*
%TD*%
D10*
%TO.C,"R1"*%
%TO.CFtp,"R_0603_1608Metric"*%
%TO.CVal,"45.3"*%
%TO.CLbN,"Resistor_SMD"*%
%TO.CMnt,SMD*%
%TO.CRot,-90*%
X45330000Y58370000D03*
D11*
X46059999Y56890001D02*
X44600001Y56890001D01*
X44600001Y59849999D01*
X46059999Y59849999D01*
X46059999Y56890001D01*
D13*
%TO.P,"R1","1"*%
X45330000Y59157500D03*
D12*
%TO.P,"R1","2"*%
X45330000Y57582500D03*
%TD*%
D10*
%TO.C,"R2"*%
%TO.CFtp,"R_0603_1608Metric"*%
%TO.CVal,"220k"*%
%TO.CLbN,"Resistor_SMD"*%
%TO.CMnt,SMD*%
%TO.CRot,90*%
X39830000Y65370000D03*
D11*
X40559999Y63890001D02*
X39100001Y63890001D01*
X39100001Y66849999D01*
X40559999Y66849999D01*
X40559999Y63890001D01*
D13*
%TO.P,"R2","1"*%
X39830000Y64582500D03*
D12*
%TO.P,"R2","2"*%
X39830000Y66157500D03*
%TD*%
D10*
%TO.C,"R3"*%
%TO.CFtp,"R_0603_1608Metric"*%
%TO.CVal,"100k"*%
%TO.CLbN,"Resistor_SMD"*%
%TO.CMnt,SMD*%
%TO.CRot,90*%
X54920000Y61130000D03*
D11*
X55649999Y59650001D02*
X54190001Y59650001D01*
X54190001Y62609999D01*
X55649999Y62609999D01*
X55649999Y59650001D01*
D13*
%TO.P,"R3","1"*%
X54920000Y60342500D03*
D12*
%TO.P,"R3","2"*%
X54920000Y61917500D03*
%TD*%
D10*
%TO.C,"R4"*%
%TO.CFtp,"R_0603_1608Metric"*%
%TO.CVal,"10k"*%
%TO.CLbN,"Resistor_SMD"*%
%TO.CMnt,SMD*%
%TO.CRot,-90*%
X42330000Y60120000D03*
D11*
X43059999Y58640001D02*
X41600001Y58640001D01*
X41600001Y61599999D01*
X43059999Y61599999D01*
X43059999Y58640001D01*
D13*
%TO.P,"R4","1"*%
X42330000Y60907500D03*
D12*
%TO.P,"R4","2"*%
X42330000Y59332500D03*
%TD*%
D10*
%TO.C,"R5"*%
%TO.CFtp,"R_0603_1608Metric"*%
%TO.CVal,"10k"*%
%TO.CLbN,"Resistor_SMD"*%
%TO.CMnt,SMD*%
%TO.CRot,90*%
X59330000Y63120000D03*
D11*
X60059999Y61640001D02*
X58600001Y61640001D01*
X58600001Y64599999D01*
X60059999Y64599999D01*
X60059999Y61640001D01*
D13*
%TO.P,"R5","1"*%
X59330000Y62332500D03*
D12*
%TO.P,"R5","2"*%
X59330000Y63907500D03*
%TD*%
D10*
%TO.C,"R6"*%
%TO.CFtp,"R_0603_1608Metric"*%
%TO.CVal,"220k"*%
%TO.CLbN,"Resistor_SMD"*%
%TO.CMnt,SMD*%
%TO.CRot,-90*%
X57460000Y64940000D03*
D11*
X58189999Y63460001D02*
X56730001Y63460001D01*
X56730001Y66419999D01*
X58189999Y66419999D01*
X58189999Y63460001D01*
D13*
%TO.P,"R6","1"*%
X57460000Y65727500D03*
D12*
%TO.P,"R6","2"*%
X57460000Y64152500D03*
%TD*%
D10*
%TO.C,"R13"*%
%TO.CFtp,"R_0603_1608Metric"*%
%TO.CVal,"100k"*%
%TO.CLbN,"Resistor_SMD"*%
%TO.CMnt,SMD*%
%TO.CRot,90*%
X54650000Y41982500D03*
D11*
X55379999Y40502501D02*
X53920001Y40502501D01*
X53920001Y43462499D01*
X55379999Y43462499D01*
X55379999Y40502501D01*
D13*
%TO.P,"R13","1"*%
X54650000Y41195000D03*
D12*
%TO.P,"R13","2"*%
X54650000Y42770000D03*
%TD*%
D10*
%TO.C,"R14"*%
%TO.CFtp,"R_0603_1608Metric"*%
%TO.CVal,"60.4k"*%
%TO.CLbN,"Resistor_SMD"*%
%TO.CMnt,SMD*%
%TO.CRot,0*%
X52700000Y39100000D03*
D11*
X54179999Y38370001D02*
X51220001Y38370001D01*
X51220001Y39829999D01*
X54179999Y39829999D01*
X54179999Y38370001D01*
D13*
%TO.P,"R14","1"*%
X51912500Y39100000D03*
D12*
%TO.P,"R14","2"*%
X53487500Y39100000D03*
%TD*%
D10*
%TO.C,"U1"*%
%TO.CFtp,"SSOP-16_3.9x4.9mm_P0.635mm"*%
%TO.CVal,"LTC4267XGN"*%
%TO.CLbN,"Package_SO"*%
%TO.CMnt,SMD*%
%TO.CRot,90*%
X49840000Y61130000D03*
D11*
X52639999Y57680001D02*
X46990001Y57680001D01*
X46990001Y64579999D01*
X52639999Y64579999D01*
X52639999Y57680001D01*
D13*
%TO.P,"U1","1"*%
X47617500Y58530000D03*
D12*
%TO.P,"U1","2"*%
X48252500Y58530000D03*
%TO.P,"U1","3"*%
X48887500Y58530000D03*
%TO.P,"U1","4"*%
X49522500Y58530000D03*
%TO.P,"U1","5"*%
X50157500Y58530000D03*
%TO.P,"U1","6"*%
X50792500Y58530000D03*
%TO.P,"U1","7"*%
X51427500Y58530000D03*
%TO.P,"U1","8"*%
X52062500Y58530000D03*
%TO.P,"U1","9"*%
X52062500Y63730000D03*
%TO.P,"U1","10"*%
X51427500Y63730000D03*
%TO.P,"U1","11"*%
X50792500Y63730000D03*
%TO.P,"U1","12"*%
X50157500Y63730000D03*
%TO.P,"U1","13"*%
X49522500Y63730000D03*
%TO.P,"U1","14"*%
X48887500Y63730000D03*
%TO.P,"U1","15"*%
X48252500Y63730000D03*
%TO.P,"U1","16"*%
X47617500Y63730000D03*
%TD*%
D10*
%TO.C,"Z1"*%
%TO.CFtp,"SOD-123"*%
%TO.CVal,"9.1V"*%
%TO.CLbN,"digikey-footprints"*%
%TO.CMnt,SMD*%
%TO.CRot,-90*%
X38580000Y60120000D03*
D11*
X39729999Y56945001D02*
X37430001Y56945001D01*
X37430001Y63294999D01*
X39729999Y63294999D01*
X39729999Y56945001D01*
D12*
%TO.P,"Z1","A"*%
X38580000Y57645000D03*
%TO.P,"Z1","K"*%
X38580000Y62595000D03*
%TD*%
D10*
%TO.C,"Q2"*%
%TO.CFtp,"SOT-23-3"*%
%TO.CVal,"2N7002"*%
%TO.CLbN,"digikey-footprints"*%
%TO.CMnt,SMD*%
%TO.CRot,0*%
X42080000Y54870000D03*
D11*
X43904999Y52920001D02*
X40255001Y52920001D01*
X40255001Y56819999D01*
X43904999Y56819999D01*
X43904999Y52920001D01*
D13*
%TO.P,"Q2","1"*%
X41030000Y55820000D03*
D12*
%TO.P,"Q2","2"*%
X41030000Y53920000D03*
%TO.P,"Q2","3"*%
X43130000Y54870000D03*
%TD*%
D10*
%TO.C,"R9"*%
%TO.CFtp,"R_1206_3216Metric"*%
%TO.CVal,"0.068"*%
%TO.CLbN,"Resistor_SMD"*%
%TO.CMnt,SMD*%
%TO.CRot,-90*%
X73330000Y64620000D03*
D11*
X74449999Y62340001D02*
X72210001Y62340001D01*
X72210001Y66899999D01*
X74449999Y66899999D01*
X74449999Y62340001D01*
D13*
%TO.P,"R9","1"*%
X73330000Y66020000D03*
D12*
%TO.P,"R9","2"*%
X73330000Y63220000D03*
%TD*%
D10*
%TO.C,"C29"*%
%TO.CFtp,"C_0603_1608Metric"*%
%TO.CVal,"0.01uF"*%
%TO.CLbN,"Capacitor_SMD"*%
%TO.CMnt,SMD*%
%TO.CRot,0*%
X69850000Y17018000D03*
D11*
X71329999Y16288001D02*
X68370001Y16288001D01*
X68370001Y17747999D01*
X71329999Y17747999D01*
X71329999Y16288001D01*
D13*
%TO.P,"C29","1"*%
X69062500Y17018000D03*
D12*
%TO.P,"C29","2"*%
X70637500Y17018000D03*
%TD*%
D10*
%TO.C,"C32"*%
%TO.CFtp,"C_0603_1608Metric"*%
%TO.CVal,"0.1uF"*%
%TO.CLbN,"Capacitor_SMD"*%
%TO.CMnt,SMD*%
%TO.CRot,90*%
X48600000Y32500000D03*
D11*
X49329999Y31020001D02*
X47870001Y31020001D01*
X47870001Y33979999D01*
X49329999Y33979999D01*
X49329999Y31020001D01*
D13*
%TO.P,"C32","1"*%
X48600000Y31712500D03*
D12*
%TO.P,"C32","2"*%
X48600000Y33287500D03*
%TD*%
D10*
%TO.C,"C34"*%
%TO.CFtp,"C_0603_1608Metric"*%
%TO.CVal,"0.1uF"*%
%TO.CLbN,"Capacitor_SMD"*%
%TO.CMnt,SMD*%
%TO.CRot,180*%
X28680000Y24220000D03*
D11*
X30159999Y23490001D02*
X27200001Y23490001D01*
X27200001Y24949999D01*
X30159999Y24949999D01*
X30159999Y23490001D01*
D13*
%TO.P,"C34","1"*%
X29467500Y24220000D03*
D12*
%TO.P,"C34","2"*%
X27892500Y24220000D03*
%TD*%
D10*
%TO.C,"C37"*%
%TO.CFtp,"C_0603_1608Metric"*%
%TO.CVal,"0.1uF"*%
%TO.CLbN,"Capacitor_SMD"*%
%TO.CMnt,SMD*%
%TO.CRot,0*%
X39600000Y32100000D03*
D11*
X41079999Y31370001D02*
X38120001Y31370001D01*
X38120001Y32829999D01*
X41079999Y32829999D01*
X41079999Y31370001D01*
D13*
%TO.P,"C37","1"*%
X38812500Y32100000D03*
D12*
%TO.P,"C37","2"*%
X40387500Y32100000D03*
%TD*%
D10*
%TO.C,"C39"*%
%TO.CFtp,"C_0603_1608Metric"*%
%TO.CVal,"0.1uF"*%
%TO.CLbN,"Capacitor_SMD"*%
%TO.CMnt,SMD*%
%TO.CRot,0*%
X57658000Y16002000D03*
D11*
X59137999Y15272001D02*
X56178001Y15272001D01*
X56178001Y16731999D01*
X59137999Y16731999D01*
X59137999Y15272001D01*
D13*
%TO.P,"C39","1"*%
X56870500Y16002000D03*
D12*
%TO.P,"C39","2"*%
X58445500Y16002000D03*
%TD*%
D10*
%TO.C,"C40"*%
%TO.CFtp,"C_0603_1608Metric"*%
%TO.CVal,"0.01uF"*%
%TO.CLbN,"Capacitor_SMD"*%
%TO.CMnt,SMD*%
%TO.CRot,180*%
X35900000Y35100000D03*
D11*
X37379999Y34370001D02*
X34420001Y34370001D01*
X34420001Y35829999D01*
X37379999Y35829999D01*
X37379999Y34370001D01*
D13*
%TO.P,"C40","1"*%
X36687500Y35100000D03*
D12*
%TO.P,"C40","2"*%
X35112500Y35100000D03*
%TD*%
D10*
%TO.C,"C43"*%
%TO.CFtp,"C_0603_1608Metric"*%
%TO.CVal,"0.1uF"*%
%TO.CLbN,"Capacitor_SMD"*%
%TO.CMnt,SMD*%
%TO.CRot,-90*%
X48500000Y3600000D03*
D11*
X49229999Y2120001D02*
X47770001Y2120001D01*
X47770001Y5079999D01*
X49229999Y5079999D01*
X49229999Y2120001D01*
D13*
%TO.P,"C43","1"*%
X48500000Y4387500D03*
D12*
%TO.P,"C43","2"*%
X48500000Y2812500D03*
%TD*%
D10*
%TO.C,"C44"*%
%TO.CFtp,"C_0603_1608Metric"*%
%TO.CVal,"0.01uF"*%
%TO.CLbN,"Capacitor_SMD"*%
%TO.CMnt,SMD*%
%TO.CRot,-90*%
X42800000Y32500000D03*
D11*
X43529999Y31020001D02*
X42070001Y31020001D01*
X42070001Y33979999D01*
X43529999Y33979999D01*
X43529999Y31020001D01*
D13*
%TO.P,"C44","1"*%
X42800000Y33287500D03*
D12*
%TO.P,"C44","2"*%
X42800000Y31712500D03*
%TD*%
D10*
%TO.C,"C46"*%
%TO.CFtp,"C_0603_1608Metric"*%
%TO.CVal,"4.7uF"*%
%TO.CLbN,"Capacitor_SMD"*%
%TO.CMnt,SMD*%
%TO.CRot,180*%
X28702000Y16510000D03*
D11*
X30181999Y15780001D02*
X27222001Y15780001D01*
X27222001Y17239999D01*
X30181999Y17239999D01*
X30181999Y15780001D01*
D13*
%TO.P,"C46","1"*%
X29489500Y16510000D03*
D12*
%TO.P,"C46","2"*%
X27914500Y16510000D03*
%TD*%
D10*
%TO.C,"C47"*%
%TO.CFtp,"C_0603_1608Metric"*%
%TO.CVal,"0.1uF"*%
%TO.CLbN,"Capacitor_SMD"*%
%TO.CMnt,SMD*%
%TO.CRot,-90*%
X51300000Y3600000D03*
D11*
X52029999Y2120001D02*
X50570001Y2120001D01*
X50570001Y5079999D01*
X52029999Y5079999D01*
X52029999Y2120001D01*
D13*
%TO.P,"C47","1"*%
X51300000Y4387500D03*
D12*
%TO.P,"C47","2"*%
X51300000Y2812500D03*
%TD*%
D10*
%TO.C,"C48"*%
%TO.CFtp,"C_0603_1608Metric"*%
%TO.CVal,"0.1uF"*%
%TO.CLbN,"Capacitor_SMD"*%
%TO.CMnt,SMD*%
%TO.CRot,0*%
X57600000Y17600000D03*
D11*
X59079999Y16870001D02*
X56120001Y16870001D01*
X56120001Y18329999D01*
X59079999Y18329999D01*
X59079999Y16870001D01*
D13*
%TO.P,"C48","1"*%
X56812500Y17600000D03*
D12*
%TO.P,"C48","2"*%
X58387500Y17600000D03*
%TD*%
D10*
%TO.C,"C49"*%
%TO.CFtp,"C_0603_1608Metric"*%
%TO.CVal,"0.1uF"*%
%TO.CLbN,"Capacitor_SMD"*%
%TO.CMnt,SMD*%
%TO.CRot,180*%
X22380000Y16020000D03*
D11*
X23859999Y15290001D02*
X20900001Y15290001D01*
X20900001Y16749999D01*
X23859999Y16749999D01*
X23859999Y15290001D01*
D13*
%TO.P,"C49","1"*%
X23167500Y16020000D03*
D12*
%TO.P,"C49","2"*%
X21592500Y16020000D03*
%TD*%
D10*
%TO.C,"C50"*%
%TO.CFtp,"C_0603_1608Metric"*%
%TO.CVal,"8pF"*%
%TO.CLbN,"Capacitor_SMD"*%
%TO.CMnt,SMD*%
%TO.CRot,0*%
X35900000Y32100000D03*
D11*
X37379999Y31370001D02*
X34420001Y31370001D01*
X34420001Y32829999D01*
X37379999Y32829999D01*
X37379999Y31370001D01*
D13*
%TO.P,"C50","1"*%
X35112500Y32100000D03*
D12*
%TO.P,"C50","2"*%
X36687500Y32100000D03*
%TD*%
D10*
%TO.C,"C52"*%
%TO.CFtp,"C_0603_1608Metric"*%
%TO.CVal,"18pF"*%
%TO.CLbN,"Capacitor_SMD"*%
%TO.CMnt,SMD*%
%TO.CRot,180*%
X25400000Y20320000D03*
D11*
X26879999Y19590001D02*
X23920001Y19590001D01*
X23920001Y21049999D01*
X26879999Y21049999D01*
X26879999Y19590001D01*
D13*
%TO.P,"C52","1"*%
X26187500Y20320000D03*
D12*
%TO.P,"C52","2"*%
X24612500Y20320000D03*
%TD*%
D10*
%TO.C,"C53"*%
%TO.CFtp,"C_0603_1608Metric"*%
%TO.CVal,"18pF"*%
%TO.CLbN,"Capacitor_SMD"*%
%TO.CMnt,SMD*%
%TO.CRot,180*%
X25400000Y22098000D03*
D11*
X26879999Y21368001D02*
X23920001Y21368001D01*
X23920001Y22827999D01*
X26879999Y22827999D01*
X26879999Y21368001D01*
D13*
%TO.P,"C53","1"*%
X26187500Y22098000D03*
D12*
%TO.P,"C53","2"*%
X24612500Y22098000D03*
%TD*%
D10*
%TO.C,"C54"*%
%TO.CFtp,"C_1210_3225Metric"*%
%TO.CVal,"100uF"*%
%TO.CLbN,"Capacitor_SMD"*%
%TO.CMnt,SMD*%
%TO.CRot,-90*%
X17780000Y53340000D03*
D11*
X19359999Y51060001D02*
X16200001Y51060001D01*
X16200001Y55619999D01*
X19359999Y55619999D01*
X19359999Y51060001D01*
D13*
%TO.P,"C54","1"*%
X17780000Y54740000D03*
D12*
%TO.P,"C54","2"*%
X17780000Y51940000D03*
%TD*%
D10*
%TO.C,"C55"*%
%TO.CFtp,"C_1210_3225Metric"*%
%TO.CVal,"100uF"*%
%TO.CLbN,"Capacitor_SMD"*%
%TO.CMnt,SMD*%
%TO.CRot,-90*%
X17780000Y35560000D03*
D11*
X19359999Y33280001D02*
X16200001Y33280001D01*
X16200001Y37839999D01*
X19359999Y37839999D01*
X19359999Y33280001D01*
D13*
%TO.P,"C55","1"*%
X17780000Y36960000D03*
D12*
%TO.P,"C55","2"*%
X17780000Y34160000D03*
%TD*%
D10*
%TO.C,"C56"*%
%TO.CFtp,"C_1210_3225Metric"*%
%TO.CVal,"100uF"*%
%TO.CLbN,"Capacitor_SMD"*%
%TO.CMnt,SMD*%
%TO.CRot,-90*%
X17780000Y17780000D03*
D11*
X19359999Y15500001D02*
X16200001Y15500001D01*
X16200001Y20059999D01*
X19359999Y20059999D01*
X19359999Y15500001D01*
D13*
%TO.P,"C56","1"*%
X17780000Y19180000D03*
D12*
%TO.P,"C56","2"*%
X17780000Y16380000D03*
%TD*%
D10*
%TO.C,"FB2"*%
%TO.CFtp,"L_0805_2012Metric"*%
%TO.CVal,"Ferrite_Bead"*%
%TO.CLbN,"Inductor_SMD"*%
%TO.CMnt,SMD*%
%TO.CRot,180*%
X39700000Y35400000D03*
D11*
X41379999Y34450001D02*
X38020001Y34450001D01*
X38020001Y36349999D01*
X41379999Y36349999D01*
X41379999Y34450001D01*
D13*
%TO.P,"FB2","1"*%
X40637500Y35400000D03*
D12*
%TO.P,"FB2","2"*%
X38762500Y35400000D03*
%TD*%
D10*
%TO.C,"J2"*%
%TO.CFtp,"PinHeader_1x06_P2.54mm_Horizontal"*%
%TO.CVal,"Conn_01x06_Male"*%
%TO.CLbN,"Connector_PinHeader_2.54mm"*%
%TO.CMnt,TH*%
%TO.CRot,-90*%
X74000000Y12600000D03*
D11*
X75799999Y2050001D02*
X59500001Y2050001D01*
X59500001Y14399999D01*
X75799999Y14399999D01*
X75799999Y2050001D01*
D13*
%TO.P,"J2","1"*%
X74000000Y12600000D03*
D12*
%TO.P,"J2","2"*%
X71460000Y12600000D03*
%TO.P,"J2","3"*%
X68920000Y12600000D03*
%TO.P,"J2","4"*%
X66380000Y12600000D03*
%TO.P,"J2","5"*%
X63840000Y12600000D03*
%TO.P,"J2","6"*%
X61300000Y12600000D03*
%TD*%
D10*
%TO.C,"J3"*%
%TO.CFtp,"SJ-3524-SMT"*%
%TO.CVal,"SJ-3524"*%
%TO.CLbN,"luken-footprints"*%
%TO.CMnt,SMD*%
%TO.CRot,90*%
X9250000Y62000000D03*
D14*
X1300000Y56900000D02*
X17100000Y56900000D01*
X17100000Y67100000D01*
X1300000Y67100000D01*
X1300000Y56900000D01*
D13*
%TO.P,"J3","1"*%
X2400000Y58300000D03*
D12*
%TO.P,"J3",*%
X10500000Y62000000D03*
X3500000Y62000000D03*
%TO.P,"J3","2"*%
X11800000Y58300000D03*
%TO.P,"J3","3"*%
X4400000Y65700000D03*
%TO.P,"J3","4"*%
X15800000Y62750000D03*
%TD*%
D10*
%TO.C,"J4"*%
%TO.CFtp,"SJ-3524-SMT"*%
%TO.CVal,"SJ-3524"*%
%TO.CLbN,"luken-footprints"*%
%TO.CMnt,SMD*%
%TO.CRot,90*%
X9250000Y44000000D03*
D14*
X1300000Y38900000D02*
X17100000Y38900000D01*
X17100000Y49100000D01*
X1300000Y49100000D01*
X1300000Y38900000D01*
D13*
%TO.P,"J4","1"*%
X2400000Y40300000D03*
D12*
%TO.P,"J4",*%
X3500000Y44000000D03*
X10500000Y44000000D03*
%TO.P,"J4","2"*%
X11800000Y40300000D03*
%TO.P,"J4","3"*%
X4400000Y47700000D03*
%TO.P,"J4","4"*%
X15800000Y44750000D03*
%TD*%
D10*
%TO.C,"J5"*%
%TO.CFtp,"SJ-3524-SMT"*%
%TO.CVal,"SJ-3524"*%
%TO.CLbN,"luken-footprints"*%
%TO.CMnt,SMD*%
%TO.CRot,90*%
X9250000Y26000000D03*
D14*
X1300000Y20900000D02*
X17100000Y20900000D01*
X17100000Y31100000D01*
X1300000Y31100000D01*
X1300000Y20900000D01*
D13*
%TO.P,"J5","1"*%
X2400000Y22300000D03*
D12*
%TO.P,"J5",*%
X3500000Y26000000D03*
X10500000Y26000000D03*
%TO.P,"J5","2"*%
X11800000Y22300000D03*
%TO.P,"J5","3"*%
X4400000Y29700000D03*
%TO.P,"J5","4"*%
X15800000Y26750000D03*
%TD*%
D10*
%TO.C,"J6"*%
%TO.CFtp,"SJ-3524-SMT"*%
%TO.CVal,"SJ-3524"*%
%TO.CLbN,"luken-footprints"*%
%TO.CMnt,SMD*%
%TO.CRot,90*%
X9250000Y8000000D03*
D14*
X1300000Y2900000D02*
X17100000Y2900000D01*
X17100000Y13100000D01*
X1300000Y13100000D01*
X1300000Y2900000D01*
D13*
%TO.P,"J6","1"*%
X2400000Y4300000D03*
D12*
%TO.P,"J6",*%
X3500000Y8000000D03*
X10500000Y8000000D03*
%TO.P,"J6","2"*%
X11800000Y4300000D03*
%TO.P,"J6","3"*%
X4400000Y11700000D03*
%TO.P,"J6","4"*%
X15800000Y8750000D03*
%TD*%
D10*
%TO.C,"Q4"*%
%TO.CFtp,"SOT-23"*%
%TO.CVal,"BC857BLT1G"*%
%TO.CLbN,"Package_TO_SOT_SMD"*%
%TO.CMnt,SMD*%
%TO.CRot,180*%
X59220000Y21774000D03*
D11*
X60919999Y20024001D02*
X57520001Y20024001D01*
X57520001Y23523999D01*
X60919999Y23523999D01*
X60919999Y20024001D01*
D13*
%TO.P,"Q4","1"*%
X60220000Y20824000D03*
D12*
%TO.P,"Q4","2"*%
X60220000Y22724000D03*
%TO.P,"Q4","3"*%
X58220000Y21774000D03*
%TD*%
D10*
%TO.C,"Q8"*%
%TO.CFtp,"SOT-23"*%
%TO.CVal,"MMSS8050-H-TP"*%
%TO.CLbN,"Package_TO_SOT_SMD"*%
%TO.CMnt,SMD*%
%TO.CRot,90*%
X3800000Y53340000D03*
D11*
X5549999Y51640001D02*
X2050001Y51640001D01*
X2050001Y55039999D01*
X5549999Y55039999D01*
X5549999Y51640001D01*
D13*
%TO.P,"Q8","1"*%
X2850000Y52340000D03*
D12*
%TO.P,"Q8","2"*%
X4750000Y52340000D03*
%TO.P,"Q8","3"*%
X3800000Y54340000D03*
%TD*%
D10*
%TO.C,"Q9"*%
%TO.CFtp,"SOT-23"*%
%TO.CVal,"MMSS8050-H-TP"*%
%TO.CLbN,"Package_TO_SOT_SMD"*%
%TO.CMnt,SMD*%
%TO.CRot,90*%
X3750000Y35560000D03*
D11*
X5499999Y33860001D02*
X2000001Y33860001D01*
X2000001Y37259999D01*
X5499999Y37259999D01*
X5499999Y33860001D01*
D13*
%TO.P,"Q9","1"*%
X2800000Y34560000D03*
D12*
%TO.P,"Q9","2"*%
X4700000Y34560000D03*
%TO.P,"Q9","3"*%
X3750000Y36560000D03*
%TD*%
D10*
%TO.C,"Q10"*%
%TO.CFtp,"SOT-23"*%
%TO.CVal,"MMSS8050-H-TP"*%
%TO.CLbN,"Package_TO_SOT_SMD"*%
%TO.CMnt,SMD*%
%TO.CRot,90*%
X3810000Y17780000D03*
D11*
X5559999Y16080001D02*
X2060001Y16080001D01*
X2060001Y19479999D01*
X5559999Y19479999D01*
X5559999Y16080001D01*
D13*
%TO.P,"Q10","1"*%
X2860000Y16780000D03*
D12*
%TO.P,"Q10","2"*%
X4760000Y16780000D03*
%TO.P,"Q10","3"*%
X3810000Y18780000D03*
%TD*%
D10*
%TO.C,"R24"*%
%TO.CFtp,"R_0603_1608Metric"*%
%TO.CVal,"100k"*%
%TO.CLbN,"Resistor_SMD"*%
%TO.CMnt,SMD*%
%TO.CRot,0*%
X22352000Y19050000D03*
D11*
X23831999Y18320001D02*
X20872001Y18320001D01*
X20872001Y19779999D01*
X23831999Y19779999D01*
X23831999Y18320001D01*
D13*
%TO.P,"R24","1"*%
X21564500Y19050000D03*
D12*
%TO.P,"R24","2"*%
X23139500Y19050000D03*
%TD*%
D10*
%TO.C,"R26"*%
%TO.CFtp,"R_0603_1608Metric"*%
%TO.CVal,"39"*%
%TO.CLbN,"Resistor_SMD"*%
%TO.CMnt,SMD*%
%TO.CRot,180*%
X23100000Y30800000D03*
D11*
X24579999Y30070001D02*
X21620001Y30070001D01*
X21620001Y31529999D01*
X24579999Y31529999D01*
X24579999Y30070001D01*
D13*
%TO.P,"R26","1"*%
X23887500Y30800000D03*
D12*
%TO.P,"R26","2"*%
X22312500Y30800000D03*
%TD*%
D10*
%TO.C,"R27"*%
%TO.CFtp,"R_0603_1608Metric"*%
%TO.CVal,"39"*%
%TO.CLbN,"Resistor_SMD"*%
%TO.CMnt,SMD*%
%TO.CRot,180*%
X23100000Y27700000D03*
D11*
X24579999Y26970001D02*
X21620001Y26970001D01*
X21620001Y28429999D01*
X24579999Y28429999D01*
X24579999Y26970001D01*
D13*
%TO.P,"R27","1"*%
X23887500Y27700000D03*
D12*
%TO.P,"R27","2"*%
X22312500Y27700000D03*
%TD*%
D10*
%TO.C,"R28"*%
%TO.CFtp,"R_0603_1608Metric"*%
%TO.CVal,"0"*%
%TO.CLbN,"Resistor_SMD"*%
%TO.CMnt,SMD*%
%TO.CRot,90*%
X66802000Y16256000D03*
D11*
X67531999Y14776001D02*
X66072001Y14776001D01*
X66072001Y17735999D01*
X67531999Y17735999D01*
X67531999Y14776001D01*
D13*
%TO.P,"R28","1"*%
X66802000Y15468500D03*
D12*
%TO.P,"R28","2"*%
X66802000Y17043500D03*
%TD*%
D10*
%TO.C,"R29"*%
%TO.CFtp,"R_0603_1608Metric"*%
%TO.CVal,"1k"*%
%TO.CLbN,"Resistor_SMD"*%
%TO.CMnt,SMD*%
%TO.CRot,-90*%
X74000000Y16300000D03*
D11*
X74729999Y14820001D02*
X73270001Y14820001D01*
X73270001Y17779999D01*
X74729999Y17779999D01*
X74729999Y14820001D01*
D13*
%TO.P,"R29","1"*%
X74000000Y17087500D03*
D12*
%TO.P,"R29","2"*%
X74000000Y15512500D03*
%TD*%
D10*
%TO.C,"R30"*%
%TO.CFtp,"R_0603_1608Metric"*%
%TO.CVal,"10k"*%
%TO.CLbN,"Resistor_SMD"*%
%TO.CMnt,SMD*%
%TO.CRot,-90*%
X63800000Y16288000D03*
D11*
X64529999Y14808001D02*
X63070001Y14808001D01*
X63070001Y17767999D01*
X64529999Y17767999D01*
X64529999Y14808001D01*
D13*
%TO.P,"R30","1"*%
X63800000Y17075500D03*
D12*
%TO.P,"R30","2"*%
X63800000Y15500500D03*
%TD*%
D10*
%TO.C,"R31"*%
%TO.CFtp,"R_0603_1608Metric"*%
%TO.CVal,"10k"*%
%TO.CLbN,"Resistor_SMD"*%
%TO.CMnt,SMD*%
%TO.CRot,90*%
X63800000Y19700000D03*
D11*
X64529999Y18220001D02*
X63070001Y18220001D01*
X63070001Y21179999D01*
X64529999Y21179999D01*
X64529999Y18220001D01*
D13*
%TO.P,"R31","1"*%
X63800000Y18912500D03*
D12*
%TO.P,"R31","2"*%
X63800000Y20487500D03*
%TD*%
D10*
%TO.C,"R32"*%
%TO.CFtp,"R_0603_1608Metric"*%
%TO.CVal,"10k"*%
%TO.CLbN,"Resistor_SMD"*%
%TO.CMnt,SMD*%
%TO.CRot,180*%
X13970000Y50800000D03*
D11*
X15449999Y50070001D02*
X12490001Y50070001D01*
X12490001Y51529999D01*
X15449999Y51529999D01*
X15449999Y50070001D01*
D13*
%TO.P,"R32","1"*%
X14757500Y50800000D03*
D12*
%TO.P,"R32","2"*%
X13182500Y50800000D03*
%TD*%
D10*
%TO.C,"R33"*%
%TO.CFtp,"R_0603_1608Metric"*%
%TO.CVal,"10k"*%
%TO.CLbN,"Resistor_SMD"*%
%TO.CMnt,SMD*%
%TO.CRot,180*%
X13970000Y33020000D03*
D11*
X15449999Y32290001D02*
X12490001Y32290001D01*
X12490001Y33749999D01*
X15449999Y33749999D01*
X15449999Y32290001D01*
D13*
%TO.P,"R33","1"*%
X14757500Y33020000D03*
D12*
%TO.P,"R33","2"*%
X13182500Y33020000D03*
%TD*%
D10*
%TO.C,"R34"*%
%TO.CFtp,"R_0603_1608Metric"*%
%TO.CVal,"10k"*%
%TO.CLbN,"Resistor_SMD"*%
%TO.CMnt,SMD*%
%TO.CRot,180*%
X13970000Y15240000D03*
D11*
X15449999Y14510001D02*
X12490001Y14510001D01*
X12490001Y15969999D01*
X15449999Y15969999D01*
X15449999Y14510001D01*
D13*
%TO.P,"R34","1"*%
X14757500Y15240000D03*
D12*
%TO.P,"R34","2"*%
X13182500Y15240000D03*
%TD*%
D10*
%TO.C,"R35"*%
%TO.CFtp,"R_0603_1608Metric"*%
%TO.CVal,"10k"*%
%TO.CLbN,"Resistor_SMD"*%
%TO.CMnt,SMD*%
%TO.CRot,180*%
X13970000Y54610000D03*
D11*
X15449999Y53880001D02*
X12490001Y53880001D01*
X12490001Y55339999D01*
X15449999Y55339999D01*
X15449999Y53880001D01*
D13*
%TO.P,"R35","1"*%
X14757500Y54610000D03*
D12*
%TO.P,"R35","2"*%
X13182500Y54610000D03*
%TD*%
D10*
%TO.C,"R36"*%
%TO.CFtp,"R_0603_1608Metric"*%
%TO.CVal,"10k"*%
%TO.CLbN,"Resistor_SMD"*%
%TO.CMnt,SMD*%
%TO.CRot,180*%
X13970000Y36830000D03*
D11*
X15449999Y36100001D02*
X12490001Y36100001D01*
X12490001Y37559999D01*
X15449999Y37559999D01*
X15449999Y36100001D01*
D13*
%TO.P,"R36","1"*%
X14757500Y36830000D03*
D12*
%TO.P,"R36","2"*%
X13182500Y36830000D03*
%TD*%
D10*
%TO.C,"R37"*%
%TO.CFtp,"R_0603_1608Metric"*%
%TO.CVal,"10k"*%
%TO.CLbN,"Resistor_SMD"*%
%TO.CMnt,SMD*%
%TO.CRot,180*%
X13970000Y19050000D03*
D11*
X15449999Y18320001D02*
X12490001Y18320001D01*
X12490001Y19779999D01*
X15449999Y19779999D01*
X15449999Y18320001D01*
D13*
%TO.P,"R37","1"*%
X14757500Y19050000D03*
D12*
%TO.P,"R37","2"*%
X13182500Y19050000D03*
%TD*%
D10*
%TO.C,"R38"*%
%TO.CFtp,"R_0805_2012Metric"*%
%TO.CVal,"33.0"*%
%TO.CLbN,"Resistor_SMD"*%
%TO.CMnt,SMD*%
%TO.CRot,90*%
X19050000Y58420000D03*
D11*
X19999999Y56740001D02*
X18100001Y56740001D01*
X18100001Y60099999D01*
X19999999Y60099999D01*
X19999999Y56740001D01*
D13*
%TO.P,"R38","1"*%
X19050000Y57482500D03*
D12*
%TO.P,"R38","2"*%
X19050000Y59357500D03*
%TD*%
D10*
%TO.C,"R40"*%
%TO.CFtp,"R_0805_2012Metric"*%
%TO.CVal,"33.0"*%
%TO.CLbN,"Resistor_SMD"*%
%TO.CMnt,SMD*%
%TO.CRot,90*%
X19050000Y22860000D03*
D11*
X19999999Y21180001D02*
X18100001Y21180001D01*
X18100001Y24539999D01*
X19999999Y24539999D01*
X19999999Y21180001D01*
D13*
%TO.P,"R40","1"*%
X19050000Y21922500D03*
D12*
%TO.P,"R40","2"*%
X19050000Y23797500D03*
%TD*%
D10*
%TO.C,"R41"*%
%TO.CFtp,"R_0603_1608Metric"*%
%TO.CVal,"1k"*%
%TO.CLbN,"Resistor_SMD"*%
%TO.CMnt,SMD*%
%TO.CRot,-90*%
X19050000Y12500000D03*
D11*
X19779999Y11020001D02*
X18320001Y11020001D01*
X18320001Y13979999D01*
X19779999Y13979999D01*
X19779999Y11020001D01*
D13*
%TO.P,"R41","1"*%
X19050000Y13287500D03*
D12*
%TO.P,"R41","2"*%
X19050000Y11712500D03*
%TD*%
D10*
%TO.C,"U5"*%
%TO.CFtp,"LQFP-144_20x20mm_P0.5mm"*%
%TO.CVal,"ATSAM3X8EA-AU"*%
%TO.CLbN,"Package_QFP"*%
%TO.CMnt,SMD*%
%TO.CRot,-90*%
X42900000Y18300000D03*
D11*
X54649999Y6550001D02*
X31150001Y6550001D01*
X31150001Y30049999D01*
X54649999Y30049999D01*
X54649999Y6550001D01*
D13*
%TO.P,"U5","1"*%
X51650000Y29000000D03*
D12*
%TO.P,"U5","2"*%
X51150000Y29000000D03*
%TO.P,"U5","3"*%
X50650000Y29000000D03*
%TO.P,"U5","4"*%
X50150000Y29000000D03*
%TO.P,"U5","5"*%
X49650000Y29000000D03*
%TO.P,"U5","6"*%
X49150000Y29000000D03*
%TO.P,"U5","7"*%
X48650000Y29000000D03*
%TO.P,"U5","8"*%
X48150000Y29000000D03*
%TO.P,"U5","9"*%
X47650000Y29000000D03*
%TO.P,"U5","10"*%
X47150000Y29000000D03*
%TO.P,"U5","11"*%
X46650000Y29000000D03*
%TO.P,"U5","12"*%
X46150000Y29000000D03*
%TO.P,"U5","13"*%
X45650000Y29000000D03*
%TO.P,"U5","14"*%
X45150000Y29000000D03*
%TO.P,"U5","15"*%
X44650000Y29000000D03*
%TO.P,"U5","16"*%
X44150000Y29000000D03*
%TO.P,"U5","17"*%
X43650000Y29000000D03*
%TO.P,"U5","18"*%
X43150000Y29000000D03*
%TO.P,"U5","19"*%
X42650000Y29000000D03*
%TO.P,"U5","20"*%
X42150000Y29000000D03*
%TO.P,"U5","21"*%
X41650000Y29000000D03*
%TO.P,"U5","22"*%
X41150000Y29000000D03*
%TO.P,"U5","23"*%
X40650000Y29000000D03*
%TO.P,"U5","24"*%
X40150000Y29000000D03*
%TO.P,"U5","25"*%
X39650000Y29000000D03*
%TO.P,"U5","26"*%
X39150000Y29000000D03*
%TO.P,"U5","27"*%
X38650000Y29000000D03*
%TO.P,"U5","28"*%
X38150000Y29000000D03*
%TO.P,"U5","29"*%
X37650000Y29000000D03*
%TO.P,"U5","30"*%
X37150000Y29000000D03*
%TO.P,"U5","31"*%
X36650000Y29000000D03*
%TO.P,"U5","32"*%
X36150000Y29000000D03*
%TO.P,"U5","33"*%
X35650000Y29000000D03*
%TO.P,"U5","34"*%
X35150000Y29000000D03*
%TO.P,"U5","35"*%
X34650000Y29000000D03*
%TO.P,"U5","36"*%
X34150000Y29000000D03*
%TO.P,"U5","37"*%
X32200000Y27050000D03*
%TO.P,"U5","38"*%
X32200000Y26550000D03*
%TO.P,"U5","39"*%
X32200000Y26050000D03*
%TO.P,"U5","40"*%
X32200000Y25550000D03*
%TO.P,"U5","41"*%
X32200000Y25050000D03*
%TO.P,"U5","42"*%
X32200000Y24550000D03*
%TO.P,"U5","43"*%
X32200000Y24050000D03*
%TO.P,"U5","44"*%
X32200000Y23550000D03*
%TO.P,"U5","45"*%
X32200000Y23050000D03*
%TO.P,"U5","46"*%
X32200000Y22550000D03*
%TO.P,"U5","47"*%
X32200000Y22050000D03*
%TO.P,"U5","48"*%
X32200000Y21550000D03*
%TO.P,"U5","49"*%
X32200000Y21050000D03*
%TO.P,"U5","50"*%
X32200000Y20550000D03*
%TO.P,"U5","51"*%
X32200000Y20050000D03*
%TO.P,"U5","52"*%
X32200000Y19550000D03*
%TO.P,"U5","53"*%
X32200000Y19050000D03*
%TO.P,"U5","54"*%
X32200000Y18550000D03*
%TO.P,"U5","55"*%
X32200000Y18050000D03*
%TO.P,"U5","56"*%
X32200000Y17550000D03*
%TO.P,"U5","57"*%
X32200000Y17050000D03*
%TO.P,"U5","58"*%
X32200000Y16550000D03*
%TO.P,"U5","59"*%
X32200000Y16050000D03*
%TO.P,"U5","60"*%
X32200000Y15550000D03*
%TO.P,"U5","61"*%
X32200000Y15050000D03*
%TO.P,"U5","62"*%
X32200000Y14550000D03*
%TO.P,"U5","63"*%
X32200000Y14050000D03*
%TO.P,"U5","64"*%
X32200000Y13550000D03*
%TO.P,"U5","65"*%
X32200000Y13050000D03*
%TO.P,"U5","66"*%
X32200000Y12550000D03*
%TO.P,"U5","67"*%
X32200000Y12050000D03*
%TO.P,"U5","68"*%
X32200000Y11550000D03*
%TO.P,"U5","69"*%
X32200000Y11050000D03*
%TO.P,"U5","70"*%
X32200000Y10550000D03*
%TO.P,"U5","71"*%
X32200000Y10050000D03*
%TO.P,"U5","72"*%
X32200000Y9550000D03*
%TO.P,"U5","73"*%
X34150000Y7600000D03*
%TO.P,"U5","74"*%
X34650000Y7600000D03*
%TO.P,"U5","75"*%
X35150000Y7600000D03*
%TO.P,"U5","76"*%
X35650000Y7600000D03*
%TO.P,"U5","77"*%
X36150000Y7600000D03*
%TO.P,"U5","78"*%
X36650000Y7600000D03*
%TO.P,"U5","79"*%
X37150000Y7600000D03*
%TO.P,"U5","80"*%
X37650000Y7600000D03*
%TO.P,"U5","81"*%
X38150000Y7600000D03*
%TO.P,"U5","82"*%
X38650000Y7600000D03*
%TO.P,"U5","83"*%
X39150000Y7600000D03*
%TO.P,"U5","84"*%
X39650000Y7600000D03*
%TO.P,"U5","85"*%
X40150000Y7600000D03*
%TO.P,"U5","86"*%
X40650000Y7600000D03*
%TO.P,"U5","87"*%
X41150000Y7600000D03*
%TO.P,"U5","88"*%
X41650000Y7600000D03*
%TO.P,"U5","89"*%
X42150000Y7600000D03*
%TO.P,"U5","90"*%
X42650000Y7600000D03*
%TO.P,"U5","91"*%
X43150000Y7600000D03*
%TO.P,"U5","92"*%
X43650000Y7600000D03*
%TO.P,"U5","93"*%
X44150000Y7600000D03*
%TO.P,"U5","94"*%
X44650000Y7600000D03*
%TO.P,"U5","95"*%
X45150000Y7600000D03*
%TO.P,"U5","96"*%
X45650000Y7600000D03*
%TO.P,"U5","97"*%
X46150000Y7600000D03*
%TO.P,"U5","98"*%
X46650000Y7600000D03*
%TO.P,"U5","99"*%
X47150000Y7600000D03*
%TO.P,"U5","100"*%
X47650000Y7600000D03*
%TO.P,"U5","101"*%
X48150000Y7600000D03*
%TO.P,"U5","102"*%
X48650000Y7600000D03*
%TO.P,"U5","103"*%
X49150000Y7600000D03*
%TO.P,"U5","104"*%
X49650000Y7600000D03*
%TO.P,"U5","105"*%
X50150000Y7600000D03*
%TO.P,"U5","106"*%
X50650000Y7600000D03*
%TO.P,"U5","107"*%
X51150000Y7600000D03*
%TO.P,"U5","108"*%
X51650000Y7600000D03*
%TO.P,"U5","109"*%
X53600000Y9550000D03*
%TO.P,"U5","110"*%
X53600000Y10050000D03*
%TO.P,"U5","111"*%
X53600000Y10550000D03*
%TO.P,"U5","112"*%
X53600000Y11050000D03*
%TO.P,"U5","113"*%
X53600000Y11550000D03*
%TO.P,"U5","114"*%
X53600000Y12050000D03*
%TO.P,"U5","115"*%
X53600000Y12550000D03*
%TO.P,"U5","116"*%
X53600000Y13050000D03*
%TO.P,"U5","117"*%
X53600000Y13550000D03*
%TO.P,"U5","118"*%
X53600000Y14050000D03*
%TO.P,"U5","119"*%
X53600000Y14550000D03*
%TO.P,"U5","120"*%
X53600000Y15050000D03*
%TO.P,"U5","121"*%
X53600000Y15550000D03*
%TO.P,"U5","122"*%
X53600000Y16050000D03*
%TO.P,"U5","123"*%
X53600000Y16550000D03*
%TO.P,"U5","124"*%
X53600000Y17050000D03*
%TO.P,"U5","125"*%
X53600000Y17550000D03*
%TO.P,"U5","126"*%
X53600000Y18050000D03*
%TO.P,"U5","127"*%
X53600000Y18550000D03*
%TO.P,"U5","128"*%
X53600000Y19050000D03*
%TO.P,"U5","129"*%
X53600000Y19550000D03*
%TO.P,"U5","130"*%
X53600000Y20050000D03*
%TO.P,"U5","131"*%
X53600000Y20550000D03*
%TO.P,"U5","132"*%
X53600000Y21050000D03*
%TO.P,"U5","133"*%
X53600000Y21550000D03*
%TO.P,"U5","134"*%
X53600000Y22050000D03*
%TO.P,"U5","135"*%
X53600000Y22550000D03*
%TO.P,"U5","136"*%
X53600000Y23050000D03*
%TO.P,"U5","137"*%
X53600000Y23550000D03*
%TO.P,"U5","138"*%
X53600000Y24050000D03*
%TO.P,"U5","139"*%
X53600000Y24550000D03*
%TO.P,"U5","140"*%
X53600000Y25050000D03*
%TO.P,"U5","141"*%
X53600000Y25550000D03*
%TO.P,"U5","142"*%
X53600000Y26050000D03*
%TO.P,"U5","143"*%
X53600000Y26550000D03*
%TO.P,"U5","144"*%
X53600000Y27050000D03*
%TD*%
D10*
%TO.C,"Y2"*%
%TO.CFtp,"Crystal_SMD_7050-4Pin_7.0x5.0mm"*%
%TO.CVal,"12.000MHz"*%
%TO.CLbN,"Crystal"*%
%TO.CMnt,SMD*%
%TO.CRot,180*%
X29500000Y36400000D03*
D11*
X33799999Y33600001D02*
X25200001Y33600001D01*
X25200001Y39199999D01*
X33799999Y39199999D01*
X33799999Y33600001D01*
D13*
%TO.P,"Y2","1"*%
X32450000Y37750000D03*
D12*
%TO.P,"Y2","2"*%
X26550000Y37750000D03*
%TO.P,"Y2","3"*%
X26550000Y35050000D03*
%TO.P,"Y2","4"*%
X32450000Y35050000D03*
%TD*%
D10*
%TO.C,"Y3"*%
%TO.CFtp,"Crystal_SMD_3215-2Pin_3.2x1.5mm"*%
%TO.CVal,"32.768KHz"*%
%TO.CLbN,"Crystal"*%
%TO.CMnt,SMD*%
%TO.CRot,-90*%
X28230000Y21320000D03*
D11*
X29379999Y19320001D02*
X27080001Y19320001D01*
X27080001Y23319999D01*
X29379999Y23319999D01*
X29379999Y19320001D01*
D13*
%TO.P,"Y3","1"*%
X28230000Y20070000D03*
D12*
%TO.P,"Y3","2"*%
X28230000Y22570000D03*
%TD*%
D10*
%TO.C,"C51"*%
%TO.CFtp,"C_0603_1608Metric"*%
%TO.CVal,"8pF"*%
%TO.CLbN,"Capacitor_SMD"*%
%TO.CMnt,SMD*%
%TO.CRot,180*%
X31612000Y32100000D03*
D11*
X33091999Y31370001D02*
X30132001Y31370001D01*
X30132001Y32829999D01*
X33091999Y32829999D01*
X33091999Y31370001D01*
D13*
%TO.P,"C51","1"*%
X32399500Y32100000D03*
D12*
%TO.P,"C51","2"*%
X30824500Y32100000D03*
%TD*%
D10*
%TO.C,"C31"*%
%TO.CFtp,"C_0603_1608Metric"*%
%TO.CVal,"0.1uF"*%
%TO.CLbN,"Capacitor_SMD"*%
%TO.CMnt,SMD*%
%TO.CRot,90*%
X45700000Y32500000D03*
D11*
X46429999Y31020001D02*
X44970001Y31020001D01*
X44970001Y33979999D01*
X46429999Y33979999D01*
X46429999Y31020001D01*
D13*
%TO.P,"C31","1"*%
X45700000Y31712500D03*
D12*
%TO.P,"C31","2"*%
X45700000Y33287500D03*
%TD*%
D10*
%TO.C,"C33"*%
%TO.CFtp,"C_0603_1608Metric"*%
%TO.CVal,"0.1uF"*%
%TO.CLbN,"Capacitor_SMD"*%
%TO.CMnt,SMD*%
%TO.CRot,180*%
X29100000Y27800000D03*
D11*
X30579999Y27070001D02*
X27620001Y27070001D01*
X27620001Y28529999D01*
X30579999Y28529999D01*
X30579999Y27070001D01*
D13*
%TO.P,"C33","1"*%
X29887500Y27800000D03*
D12*
%TO.P,"C33","2"*%
X28312500Y27800000D03*
%TD*%
D10*
%TO.C,"C35"*%
%TO.CFtp,"C_0603_1608Metric"*%
%TO.CVal,"0.1uF"*%
%TO.CLbN,"Capacitor_SMD"*%
%TO.CMnt,SMD*%
%TO.CRot,180*%
X28702000Y18034000D03*
D11*
X30181999Y17304001D02*
X27222001Y17304001D01*
X27222001Y18763999D01*
X30181999Y18763999D01*
X30181999Y17304001D01*
D13*
%TO.P,"C35","1"*%
X29489500Y18034000D03*
D12*
%TO.P,"C35","2"*%
X27914500Y18034000D03*
%TD*%
D10*
%TO.C,"C38"*%
%TO.CFtp,"C_0603_1608Metric"*%
%TO.CVal,"0.1uF"*%
%TO.CLbN,"Capacitor_SMD"*%
%TO.CMnt,SMD*%
%TO.CRot,180*%
X27000000Y9400000D03*
D11*
X28479999Y8670001D02*
X25520001Y8670001D01*
X25520001Y10129999D01*
X28479999Y10129999D01*
X28479999Y8670001D01*
D13*
%TO.P,"C38","1"*%
X27787500Y9400000D03*
D12*
%TO.P,"C38","2"*%
X26212500Y9400000D03*
%TD*%
D10*
%TO.C,"C36"*%
%TO.CFtp,"C_0603_1608Metric"*%
%TO.CVal,"0.1uF"*%
%TO.CLbN,"Capacitor_SMD"*%
%TO.CMnt,SMD*%
%TO.CRot,180*%
X28702000Y14986000D03*
D11*
X30181999Y14256001D02*
X27222001Y14256001D01*
X27222001Y15715999D01*
X30181999Y15715999D01*
X30181999Y14256001D01*
D13*
%TO.P,"C36","1"*%
X29489500Y14986000D03*
D12*
%TO.P,"C36","2"*%
X27914500Y14986000D03*
%TD*%
D10*
%TO.C,"R25"*%
%TO.CFtp,"R_0603_1608Metric"*%
%TO.CVal,"6.8k"*%
%TO.CLbN,"Resistor_SMD"*%
%TO.CMnt,SMD*%
%TO.CRot,0*%
X19888000Y27700000D03*
D11*
X21367999Y26970001D02*
X18408001Y26970001D01*
X18408001Y28429999D01*
X21367999Y28429999D01*
X21367999Y26970001D01*
D13*
%TO.P,"R25","1"*%
X19100500Y27700000D03*
D12*
%TO.P,"R25","2"*%
X20675500Y27700000D03*
%TD*%
D10*
%TO.C,"C41"*%
%TO.CFtp,"C_0603_1608Metric"*%
%TO.CVal,"10pF"*%
%TO.CLbN,"Capacitor_SMD"*%
%TO.CMnt,SMD*%
%TO.CRot,0*%
X19900000Y30800000D03*
D11*
X21379999Y30070001D02*
X18420001Y30070001D01*
X18420001Y31529999D01*
X21379999Y31529999D01*
X21379999Y30070001D01*
D13*
%TO.P,"C41","1"*%
X19112500Y30800000D03*
D12*
%TO.P,"C41","2"*%
X20687500Y30800000D03*
%TD*%
D10*
%TO.C,"C42"*%
%TO.CFtp,"C_0603_1608Metric"*%
%TO.CVal,"0.1uF"*%
%TO.CLbN,"Capacitor_SMD"*%
%TO.CMnt,SMD*%
%TO.CRot,-90*%
X33200000Y3600000D03*
D11*
X33929999Y2120001D02*
X32470001Y2120001D01*
X32470001Y5079999D01*
X33929999Y5079999D01*
X33929999Y2120001D01*
D13*
%TO.P,"C42","1"*%
X33200000Y4387500D03*
D12*
%TO.P,"C42","2"*%
X33200000Y2812500D03*
%TD*%
D10*
%TO.C,"C45"*%
%TO.CFtp,"C_0603_1608Metric"*%
%TO.CVal,"0.1uF"*%
%TO.CLbN,"Capacitor_SMD"*%
%TO.CMnt,SMD*%
%TO.CRot,-90*%
X36100000Y3600000D03*
D11*
X36829999Y2120001D02*
X35370001Y2120001D01*
X35370001Y5079999D01*
X36829999Y5079999D01*
X36829999Y2120001D01*
D13*
%TO.P,"C45","1"*%
X36100000Y4387500D03*
D12*
%TO.P,"C45","2"*%
X36100000Y2812500D03*
%TD*%
D10*
%TO.C,"U3"*%
%TO.CFtp,"SOT-23"*%
%TO.CVal,"TLV431A"*%
%TO.CLbN,"Package_TO_SOT_SMD"*%
%TO.CMnt,SMD*%
%TO.CRot,180*%
X50200000Y42800000D03*
D11*
X51899999Y41050001D02*
X48500001Y41050001D01*
X48500001Y44549999D01*
X51899999Y44549999D01*
X51899999Y41050001D01*
D13*
%TO.P,"U3","1"*%
X51200000Y41850000D03*
D12*
%TO.P,"U3","2"*%
X51200000Y43750000D03*
%TO.P,"U3","3"*%
X49200000Y42800000D03*
%TD*%
D10*
%TO.C,"R39"*%
%TO.CFtp,"R_0805_2012Metric"*%
%TO.CVal,"33.0"*%
%TO.CLbN,"Resistor_SMD"*%
%TO.CMnt,SMD*%
%TO.CRot,90*%
X19050000Y40640000D03*
D11*
X19999999Y38960001D02*
X18100001Y38960001D01*
X18100001Y42319999D01*
X19999999Y42319999D01*
X19999999Y38960001D01*
D13*
%TO.P,"R39","1"*%
X19050000Y39702500D03*
D12*
%TO.P,"R39","2"*%
X19050000Y41577500D03*
%TD*%
D10*
%TO.C,"C7"*%
%TO.CFtp,"C_2211_5728Metric"*%
%TO.CVal,"2200pF 250VAC"*%
%TO.CLbN,"luken-footprints"*%
%TO.CMnt,SMD*%
%TO.CRot,90*%
X75830000Y49620000D03*
D11*
X77897999Y45658001D02*
X73762001Y45658001D01*
X73762001Y53581999D01*
X77897999Y53581999D01*
X77897999Y45658001D01*
D13*
%TO.P,"C7","1"*%
X75830000Y46852000D03*
D12*
%TO.P,"C7","2"*%
X75830000Y52388000D03*
%TD*%
D10*
%TO.C,"U2"*%
%TO.CFtp,"PS2911-1"*%
%TO.CVal,"PS2911-1"*%
%TO.CLbN,"luken-footprints"*%
%TO.CMnt,SMD*%
%TO.CRot,90*%
X48570000Y49700000D03*
D14*
X47535000Y46850000D02*
X49605000Y46850000D01*
X49605000Y52550000D01*
X47535000Y52550000D01*
X47535000Y46850000D01*
D13*
%TO.P,"U2","1"*%
X47935000Y47100000D03*
D12*
%TO.P,"U2","2"*%
X49205000Y47100000D03*
%TO.P,"U2","3"*%
X49205000Y52300000D03*
%TO.P,"U2","4"*%
X47935000Y52300000D03*
%TD*%
D10*
%TO.C,"R8"*%
%TO.CFtp,"R_2512_6332Metric"*%
%TO.CVal,"330"*%
%TO.CLbN,"Resistor_SMD"*%
%TO.CMnt,SMD*%
%TO.CRot,180*%
X77330000Y55870000D03*
D11*
X81149999Y53950001D02*
X73510001Y53950001D01*
X73510001Y57789999D01*
X81149999Y57789999D01*
X81149999Y53950001D01*
D13*
%TO.P,"R8","1"*%
X80230000Y55870000D03*
D12*
%TO.P,"R8","2"*%
X74430000Y55870000D03*
%TD*%
D10*
%TO.C,"R10"*%
%TO.CFtp,"R_0603_1608Metric"*%
%TO.CVal,"499"*%
%TO.CLbN,"Resistor_SMD"*%
%TO.CMnt,SMD*%
%TO.CRot,0*%
X59062000Y60370000D03*
D11*
X60541999Y59640001D02*
X57582001Y59640001D01*
X57582001Y61099999D01*
X60541999Y61099999D01*
X60541999Y59640001D01*
D13*
%TO.P,"R10","1"*%
X58274500Y60370000D03*
D12*
%TO.P,"R10","2"*%
X59849500Y60370000D03*
%TD*%
D10*
%TO.C,"T1"*%
%TO.CFtp,"PA1136NL"*%
%TO.CVal,"PA1136NL"*%
%TO.CLbN,"luken-footprints"*%
%TO.CMnt,SMD*%
%TO.CRot,0*%
X63810000Y49700000D03*
D14*
X58200000Y58850000D02*
X58200000Y40550000D01*
X69420000Y40550000D01*
X69420000Y58850000D01*
X58200000Y58850000D01*
D13*
%TO.P,"T1","1"*%
X58810000Y57580000D03*
D12*
%TO.P,"T1","2"*%
X61310000Y57580000D03*
%TO.P,"T1","3"*%
X63810000Y57580000D03*
%TO.P,"T1","4"*%
X66310000Y57580000D03*
%TO.P,"T1","5"*%
X68810000Y57580000D03*
%TO.P,"T1","6"*%
X68810000Y41820000D03*
%TO.P,"T1","7"*%
X66310000Y41820000D03*
%TO.P,"T1","8"*%
X63810000Y41820000D03*
%TO.P,"T1","9"*%
X61310000Y41820000D03*
%TO.P,"T1","10"*%
X58860000Y41820000D03*
%TD*%
D10*
%TO.C,"D7"*%
%TO.CFtp,"POWERDI5"*%
%TO.CVal,"PDS1040L"*%
%TO.CLbN,"luken-footprints"*%
%TO.CMnt,SMD*%
%TO.CRot,180*%
X66350000Y35730000D03*
D14*
X68030000Y32180000D02*
X68030000Y39292000D01*
X64670000Y39292000D01*
X64670000Y32180000D01*
X68030000Y32180000D01*
D13*
%TO.P,"D7","1"*%
X66350000Y34610000D03*
D12*
%TO.P,"D7","2"*%
X67270000Y38592000D03*
X65430000Y38592000D03*
%TD*%
D10*
%TO.C,"U6"*%
%TO.CFtp,"SOT-143"*%
%TO.CVal,"CAT811STBI-GT3"*%
%TO.CLbN,"Package_TO_SOT_SMD"*%
%TO.CMnt,SMD*%
%TO.CRot,0*%
X68830000Y21370000D03*
D11*
X70879999Y19620001D02*
X66780001Y19620001D01*
X66780001Y23119999D01*
X70879999Y23119999D01*
X70879999Y19620001D01*
D13*
%TO.P,"U6","1"*%
X67730000Y22140000D03*
D12*
%TO.P,"U6","2"*%
X67730000Y20420000D03*
%TO.P,"U6","3"*%
X69930000Y20420000D03*
%TO.P,"U6","4"*%
X69930000Y22320000D03*
%TD*%
D10*
%TO.C,"R11"*%
%TO.CFtp,"R_0603_1608Metric"*%
%TO.CVal,"499"*%
%TO.CLbN,"Resistor_SMD"*%
%TO.CMnt,SMD*%
%TO.CRot,-90*%
X45200000Y46000000D03*
D11*
X45929999Y44520001D02*
X44470001Y44520001D01*
X44470001Y47479999D01*
X45929999Y47479999D01*
X45929999Y44520001D01*
D13*
%TO.P,"R11","1"*%
X45200000Y46787500D03*
D12*
%TO.P,"R11","2"*%
X45200000Y45212500D03*
%TD*%
D10*
%TO.C,"C3"*%
%TO.CFtp,"CP_EIA-7343-15_Kemet-W"*%
%TO.CVal,"4.7uF"*%
%TO.CLbN,"Capacitor_Tantalum_SMD"*%
%TO.CMnt,SMD*%
%TO.CRot,90*%
X77080000Y63120000D03*
D11*
X79479999Y58720001D02*
X74680001Y58720001D01*
X74680001Y67519999D01*
X79479999Y67519999D01*
X79479999Y58720001D01*
D13*
%TO.P,"C3","1"*%
X77080000Y60007500D03*
D12*
%TO.P,"C3","2"*%
X77080000Y66232500D03*
%TD*%
D10*
%TO.C,"C11"*%
%TO.CFtp,"CP_EIA-7343-30_AVX-N"*%
%TO.CVal,"470uF"*%
%TO.CLbN,"Capacitor_Tantalum_SMD"*%
%TO.CMnt,SMD*%
%TO.CRot,90*%
X60000000Y34460000D03*
D11*
X62399999Y30060001D02*
X57600001Y30060001D01*
X57600001Y38859999D01*
X62399999Y38859999D01*
X62399999Y30060001D01*
D13*
%TO.P,"C11","1"*%
X60000000Y31347500D03*
D12*
%TO.P,"C11","2"*%
X60000000Y37572500D03*
%TD*%
D10*
%TO.C,"C30"*%
%TO.CFtp,"CP_EIA-1608-08_AVX-J"*%
%TO.CVal,"10uF"*%
%TO.CLbN,"Capacitor_Tantalum_SMD"*%
%TO.CMnt,SMD*%
%TO.CRot,180*%
X27000000Y12300000D03*
D11*
X28499999Y11520001D02*
X25500001Y11520001D01*
X25500001Y13079999D01*
X28499999Y13079999D01*
X28499999Y11520001D01*
D13*
%TO.P,"C30","1"*%
X27712500Y12300000D03*
D12*
%TO.P,"C30","2"*%
X26287500Y12300000D03*
%TD*%
D10*
%TO.C,"Q3"*%
%TO.CFtp,"TO-252-2"*%
%TO.CVal,"SiHD9N60E"*%
%TO.CLbN,"Package_TO_SOT_SMD"*%
%TO.CMnt,SMD*%
%TO.CRot,180*%
X66330000Y63870000D03*
D11*
X71879999Y60370001D02*
X60780001Y60370001D01*
X60780001Y67369999D01*
X71879999Y67369999D01*
X71879999Y60370001D01*
D13*
%TO.P,"Q3","1"*%
X70530000Y61590000D03*
D12*
%TO.P,"Q3","2"*%
X64230000Y63870000D03*
%TO.P,"Q3","3"*%
X70530000Y66150000D03*
%TD*%
D10*
%TO.C,"FID3"*%
%TO.CFtp,"Fiducial_1mm_Dia_2.54mm_Outer_CopperTop"*%
%TO.CVal,"Fiducial_1mm_Dia_2.54mm_Outer_CopperTop"*%
%TO.CLbN,"Fiducial"*%
%TO.CMnt,SMD*%
%TO.CRot,0*%
X97830000Y67620000D03*
D11*
X97351024Y66145863D02*
X96918933Y66366025D01*
X96576024Y66708934D01*
X96355863Y67141024D01*
X96280001Y67620000D01*
X96355863Y68098976D01*
X96576025Y68531067D01*
X96918934Y68873976D01*
X97351024Y69094137D01*
X97830000Y69169999D01*
X98308976Y69094137D01*
X98741067Y68873975D01*
X99083976Y68531066D01*
X99304137Y68098976D01*
X99379999Y67620000D01*
X99304137Y67141024D01*
X99083975Y66708933D01*
X98741066Y66366024D01*
X98308976Y66145863D01*
X97830000Y66070001D01*
X97351024Y66145863D01*
D12*
%TO.P,"FID3",*%
X97830000Y67620000D03*
%TD*%
D10*
%TO.C,"FID1"*%
%TO.CFtp,"Fiducial_1mm_Dia_2.54mm_Outer_CopperTop"*%
%TO.CVal,"Fiducial_1mm_Dia_2.54mm_Outer_CopperTop"*%
%TO.CLbN,"Fiducial"*%
%TO.CMnt,SMD*%
%TO.CRot,0*%
X6080000Y2620000D03*
D11*
X5601024Y1145863D02*
X5168933Y1366025D01*
X4826024Y1708934D01*
X4605863Y2141024D01*
X4530001Y2620000D01*
X4605863Y3098976D01*
X4826025Y3531067D01*
X5168934Y3873976D01*
X5601024Y4094137D01*
X6080000Y4169999D01*
X6558976Y4094137D01*
X6991067Y3873975D01*
X7333976Y3531066D01*
X7554137Y3098976D01*
X7629999Y2620000D01*
X7554137Y2141024D01*
X7333975Y1708933D01*
X6991066Y1366024D01*
X6558976Y1145863D01*
X6080000Y1070001D01*
X5601024Y1145863D01*
D12*
%TO.P,"FID1",*%
X6080000Y2620000D03*
%TD*%
D10*
%TO.C,"Q5"*%
%TO.CFtp,"SOT-23-3"*%
%TO.CVal,"MMBTA42LT1G"*%
%TO.CLbN,"digikey-footprints"*%
%TO.CMnt,SMD*%
%TO.CRot,90*%
X8890000Y53340000D03*
D11*
X10839999Y51515001D02*
X6940001Y51515001D01*
X6940001Y55164999D01*
X10839999Y55164999D01*
X10839999Y51515001D01*
D13*
%TO.P,"Q5","1"*%
X7940000Y52290000D03*
D12*
%TO.P,"Q5","2"*%
X9840000Y52290000D03*
%TO.P,"Q5","3"*%
X8890000Y54390000D03*
%TD*%
D10*
%TO.C,"Q6"*%
%TO.CFtp,"SOT-23-3"*%
%TO.CVal,"MMBTA42LT1G"*%
%TO.CLbN,"digikey-footprints"*%
%TO.CMnt,SMD*%
%TO.CRot,90*%
X8890000Y35560000D03*
D11*
X10839999Y33735001D02*
X6940001Y33735001D01*
X6940001Y37384999D01*
X10839999Y37384999D01*
X10839999Y33735001D01*
D13*
%TO.P,"Q6","1"*%
X7940000Y34510000D03*
D12*
%TO.P,"Q6","2"*%
X9840000Y34510000D03*
%TO.P,"Q6","3"*%
X8890000Y36610000D03*
%TD*%
D10*
%TO.C,"Q7"*%
%TO.CFtp,"SOT-23-3"*%
%TO.CVal,"MMBTA42LT1G"*%
%TO.CLbN,"digikey-footprints"*%
%TO.CMnt,SMD*%
%TO.CRot,90*%
X8890000Y17780000D03*
D11*
X10839999Y15955001D02*
X6940001Y15955001D01*
X6940001Y19604999D01*
X10839999Y19604999D01*
X10839999Y15955001D01*
D13*
%TO.P,"Q7","1"*%
X7940000Y16730000D03*
D12*
%TO.P,"Q7","2"*%
X9840000Y16730000D03*
%TO.P,"Q7","3"*%
X8890000Y18830000D03*
%TD*%
D10*
%TO.C,"R12"*%
%TO.CFtp,"R_0603_1608Metric"*%
%TO.CVal,"10"*%
%TO.CLbN,"Resistor_SMD"*%
%TO.CMnt,SMD*%
%TO.CRot,0*%
X71580000Y39207500D03*
D11*
X73059999Y38477501D02*
X70100001Y38477501D01*
X70100001Y39937499D01*
X73059999Y39937499D01*
X73059999Y38477501D01*
D13*
%TO.P,"R12","1"*%
X70792500Y39207500D03*
D12*
%TO.P,"R12","2"*%
X72367500Y39207500D03*
%TD*%
D10*
%TO.C,"FID2"*%
%TO.CFtp,"Fiducial_1mm_Dia_2.54mm_Outer_CopperTop"*%
%TO.CVal,"Fiducial_1mm_Dia_2.54mm_Outer_CopperTop"*%
%TO.CLbN,"Fiducial"*%
%TO.CMnt,SMD*%
%TO.CRot,0*%
X13250000Y67750000D03*
D11*
X12771024Y66275863D02*
X12338933Y66496025D01*
X11996024Y66838934D01*
X11775863Y67271024D01*
X11700001Y67750000D01*
X11775863Y68228976D01*
X11996025Y68661067D01*
X12338934Y69003976D01*
X12771024Y69224137D01*
X13250000Y69299999D01*
X13728976Y69224137D01*
X14161067Y69003975D01*
X14503976Y68661066D01*
X14724137Y68228976D01*
X14799999Y67750000D01*
X14724137Y67271024D01*
X14503975Y66838933D01*
X14161066Y66496024D01*
X13728976Y66275863D01*
X13250000Y66200001D01*
X12771024Y66275863D01*
D12*
%TO.P,"FID2",*%
X13250000Y67750000D03*
%TD*%
D10*
%TO.C,"FID4"*%
%TO.CFtp,"Fiducial_1mm_Dia_2.54mm_Outer_CopperTop"*%
%TO.CVal,"Fiducial_1mm_Dia_2.54mm_Outer_CopperTop"*%
%TO.CLbN,"Fiducial"*%
%TO.CMnt,SMD*%
%TO.CRot,0*%
X96830000Y2620000D03*
D11*
X96351024Y1145863D02*
X95918933Y1366025D01*
X95576024Y1708934D01*
X95355863Y2141024D01*
X95280001Y2620000D01*
X95355863Y3098976D01*
X95576025Y3531067D01*
X95918934Y3873976D01*
X96351024Y4094137D01*
X96830000Y4169999D01*
X97308976Y4094137D01*
X97741067Y3873975D01*
X98083976Y3531066D01*
X98304137Y3098976D01*
X98379999Y2620000D01*
X98304137Y2141024D01*
X98083975Y1708933D01*
X97741066Y1366024D01*
X97308976Y1145863D01*
X96830000Y1070001D01*
X96351024Y1145863D01*
D12*
%TO.P,"FID4",*%
X96830000Y2620000D03*
%TD*%
M02*
